M48
INCH,TZ
T1C0.013
T2C0.024
T3C0.040
%
G90
G05
T1
X44025Y-52150
X44025Y-52575
X44100Y-53800
X44900Y-59200
X44900Y-62825
X45375Y-56450
X45400Y-59200
X45400Y-62825
X45900Y-57150
X45900Y-58250
X45900Y-60725
X45900Y-62300
X45900Y-64075
X46050Y-54450
X46400Y-58250
X46400Y-60725
X46425Y-56875
X46775Y-53775
X47125Y-53800
X47300Y-52750
X47600Y-67000
X48025Y-54200
X48122Y-53803
X48500Y-56480
X48500Y-59200
X48625Y-67000
X49000Y-59200
X49500Y-60350
X49800Y-58275
T2
X51300Y-53625
X51300Y-54625
X51300Y-56125
X51300Y-57125
X51300Y-58625
X51300Y-59625
X51300Y-61125
X51300Y-62125
X51300Y-63625
X51300Y-64625
X51300Y-66125
X51300Y-67125
T3
X45000Y-50000
X46000Y-50000
X47000Y-50000
X47600Y-69000
X48000Y-50000
X48600Y-69000
X49000Y-50000
X49600Y-69000
X50000Y-50000
X50600Y-69000
X50900Y-52000
X51600Y-69000
T0
M30
