G04 #@! TF.FileFunction,Copper,L1,Top,Signal*
%FSLAX46Y46*%
G04 Gerber Fmt 4.6, Leading zero omitted, Abs format (unit mm)*
G04 Created by KiCad (PCBNEW (2014-11-02 BZR 5250)-product) date 05/11/2014 09:55:45*
%MOMM*%
G01*
G04 APERTURE LIST*
%ADD10C,0.100000*%
%ADD11R,1.397000X0.889000*%
%ADD12R,0.889000X1.397000*%
%ADD13R,1.676400X1.676400*%
%ADD14C,1.676400*%
%ADD15R,0.406400X1.270000*%
%ADD16R,0.599440X1.399540*%
%ADD17C,1.500000*%
%ADD18C,0.685800*%
%ADD19C,0.406400*%
%ADD20C,0.254000*%
%ADD21C,0.152400*%
%ADD22C,0.304800*%
%ADD23C,0.203200*%
G04 APERTURE END LIST*
D10*
D11*
X112014000Y-148018500D03*
X112014000Y-146113500D03*
X121158000Y-148018500D03*
X121158000Y-146113500D03*
X112014000Y-157226000D03*
X112014000Y-155321000D03*
X112014000Y-150177500D03*
X112014000Y-152082500D03*
X121158000Y-150177500D03*
X121158000Y-152082500D03*
X112014000Y-159385000D03*
X112014000Y-161290000D03*
D12*
X115760500Y-131191000D03*
X113855500Y-131191000D03*
X115760500Y-134302500D03*
X113855500Y-134302500D03*
D13*
X127000000Y-127000000D03*
D14*
X124460000Y-127000000D03*
X121920000Y-127000000D03*
X119380000Y-127000000D03*
X116840000Y-127000000D03*
X114300000Y-127000000D03*
D15*
X117729000Y-135382000D03*
X118364000Y-135382000D03*
X119024400Y-135382000D03*
X119684800Y-135382000D03*
X120319800Y-135382000D03*
X120980200Y-135382000D03*
X121640600Y-135382000D03*
X122275600Y-135382000D03*
X122936000Y-135382000D03*
X123571000Y-135382000D03*
X123571000Y-130048000D03*
X122936000Y-130048000D03*
X122275600Y-130048000D03*
X121640600Y-130048000D03*
X120980200Y-130048000D03*
X120319800Y-130048000D03*
X119684800Y-130048000D03*
X119024400Y-130048000D03*
X118364000Y-130048000D03*
X117729000Y-130048000D03*
D16*
X114046000Y-155638500D03*
X114046000Y-160972500D03*
X115316000Y-155638500D03*
X116586000Y-155638500D03*
X117856000Y-155638500D03*
X115316000Y-160972500D03*
X116586000Y-160972500D03*
X117856000Y-160972500D03*
X114046000Y-146431000D03*
X114046000Y-151765000D03*
X115316000Y-146431000D03*
X116586000Y-146431000D03*
X117856000Y-146431000D03*
X115316000Y-151765000D03*
X116586000Y-151765000D03*
X117856000Y-151765000D03*
X123190000Y-146431000D03*
X123190000Y-151765000D03*
X124460000Y-146431000D03*
X125730000Y-146431000D03*
X127000000Y-146431000D03*
X124460000Y-151765000D03*
X125730000Y-151765000D03*
X127000000Y-151765000D03*
D17*
X130302000Y-170497500D03*
X130302000Y-167957500D03*
X130302000Y-164147500D03*
X130302000Y-161607500D03*
X130302000Y-157797500D03*
X130302000Y-155257500D03*
X130302000Y-151447500D03*
X130302000Y-148907500D03*
X130302000Y-145097500D03*
X130302000Y-142557500D03*
X130302000Y-138747500D03*
X130302000Y-136207500D03*
D13*
X129286000Y-132080000D03*
X131064000Y-175260000D03*
D14*
X128524000Y-175260000D03*
X125984000Y-175260000D03*
X123444000Y-175260000D03*
X120904000Y-175260000D03*
X118364000Y-175260000D03*
X115824000Y-175260000D03*
X113284000Y-175260000D03*
D18*
X115697000Y-163004500D03*
X111823500Y-133540500D03*
X125730000Y-153289000D03*
X116586000Y-158242000D03*
X126492000Y-148018500D03*
X116586000Y-154241500D03*
X116586000Y-147955000D03*
X116586000Y-145161000D03*
X116967000Y-138303000D03*
X115316000Y-150368000D03*
X124460000Y-150368000D03*
X118808500Y-136588500D03*
X115316000Y-159575500D03*
X117856000Y-154241500D03*
X117919500Y-144462500D03*
X117856000Y-147955000D03*
X119697500Y-136652000D03*
X120142000Y-133985000D03*
X114046000Y-159575500D03*
X123190000Y-150368000D03*
X121983500Y-137668000D03*
X122230855Y-136659198D03*
X114046000Y-150368000D03*
X111823500Y-132461000D03*
D19*
X116039899Y-162661601D02*
X115697000Y-163004500D01*
X116586000Y-160972500D02*
X116586000Y-162115500D01*
X116586000Y-162115500D02*
X116039899Y-162661601D01*
X112166399Y-133197601D02*
X111823500Y-133540500D01*
X112229899Y-133197601D02*
X112166399Y-133197601D01*
D20*
X118364000Y-134239000D02*
X118364000Y-135382000D01*
X116395500Y-134239000D02*
X118364000Y-134239000D01*
X115824000Y-134810500D02*
X116395500Y-134239000D01*
D21*
X115760500Y-134810500D02*
X115824000Y-134810500D01*
D20*
X119316500Y-133286500D02*
X118364000Y-134239000D01*
X120459500Y-133286500D02*
X119316500Y-133286500D01*
X121094500Y-133921500D02*
X120459500Y-133286500D01*
X123190000Y-133921500D02*
X121094500Y-133921500D01*
X123571000Y-134302500D02*
X123190000Y-133921500D01*
X123571000Y-135382000D02*
X123571000Y-134302500D01*
D19*
X114528601Y-133197601D02*
X112229899Y-133197601D01*
X115760500Y-134429500D02*
X114528601Y-133197601D01*
X115760500Y-134810500D02*
X115760500Y-134429500D01*
X114046000Y-155638500D02*
X115316000Y-155638500D01*
X116586000Y-158242000D02*
X116586000Y-160972500D01*
X116586000Y-157480000D02*
X116586000Y-158242000D01*
X115316000Y-156210000D02*
X116586000Y-157480000D01*
D21*
X115316000Y-155638500D02*
X115316000Y-156210000D01*
D19*
X113601500Y-155638500D02*
X112014000Y-157226000D01*
X114046000Y-155638500D02*
X113601500Y-155638500D01*
X112014000Y-157226000D02*
X112014000Y-159385000D01*
X114046000Y-146431000D02*
X115316000Y-146431000D01*
X113601500Y-146431000D02*
X112014000Y-148018500D01*
X114046000Y-146431000D02*
X113601500Y-146431000D01*
X112014000Y-148018500D02*
X112014000Y-150177500D01*
X124460000Y-146431000D02*
X123190000Y-146431000D01*
X122745500Y-146431000D02*
X121158000Y-148018500D01*
X123190000Y-146431000D02*
X122745500Y-146431000D01*
X121158000Y-148018500D02*
X121158000Y-150177500D01*
X125730000Y-148526500D02*
X125730000Y-151765000D01*
X124460000Y-147256500D02*
X125730000Y-148526500D01*
X124460000Y-146431000D02*
X124460000Y-147256500D01*
X113220500Y-154813000D02*
X114046000Y-155638500D01*
X113220500Y-151320500D02*
X113220500Y-154813000D01*
X112077500Y-150177500D02*
X113220500Y-151320500D01*
D20*
X112014000Y-150177500D02*
X112077500Y-150177500D01*
D19*
X116014499Y-150341329D02*
X116014500Y-150341330D01*
X116014500Y-150341330D02*
X116586000Y-150912830D01*
X116586000Y-150912830D02*
X116586000Y-151765000D01*
X115316000Y-146431000D02*
X115316000Y-147283170D01*
X125730000Y-151765000D02*
X125730000Y-153289000D01*
X125793500Y-153416000D02*
X125730000Y-153352500D01*
X125730000Y-153352500D02*
X125730000Y-153289000D01*
X115316000Y-148399500D02*
X116014500Y-149098000D01*
X116014500Y-149098000D02*
X116014500Y-150341330D01*
X115316000Y-146431000D02*
X115316000Y-148399500D01*
D20*
X121640600Y-129311400D02*
X121640600Y-130048000D01*
X122301000Y-128651000D02*
X121640600Y-129311400D01*
X125349000Y-128651000D02*
X122301000Y-128651000D01*
X127000000Y-127000000D02*
X125349000Y-128651000D01*
X120980200Y-129209800D02*
X120980200Y-130048000D01*
X121983500Y-128206500D02*
X120980200Y-129209800D01*
X123761500Y-128206500D02*
X121983500Y-128206500D01*
X124460000Y-127508000D02*
X123761500Y-128206500D01*
X124460000Y-127000000D02*
X124460000Y-127508000D01*
X121920000Y-127000000D02*
X121920000Y-127254000D01*
X121920000Y-127254000D02*
X120319800Y-128854200D01*
X120319800Y-128854200D02*
X120319800Y-130048000D01*
X120319800Y-130048000D02*
X120332500Y-130060700D01*
X119380000Y-127000000D02*
X119380000Y-128651000D01*
X119684800Y-128955800D02*
X119684800Y-130048000D01*
X119380000Y-128651000D02*
X119684800Y-128955800D01*
X116840000Y-127000000D02*
X116967000Y-127000000D01*
X116967000Y-127000000D02*
X119024400Y-129057400D01*
X119024400Y-129057400D02*
X119024400Y-130048000D01*
X114300000Y-127000000D02*
X114300000Y-127381000D01*
X114300000Y-127381000D02*
X115570000Y-128651000D01*
X115570000Y-128651000D02*
X117094000Y-128651000D01*
X117094000Y-128651000D02*
X117729000Y-129286000D01*
X117729000Y-129286000D02*
X117729000Y-130048000D01*
D19*
X125730000Y-147256500D02*
X126492000Y-148018500D01*
X125730000Y-146431000D02*
X125730000Y-147256500D01*
X130302000Y-170497500D02*
X130302000Y-167957500D01*
X116586000Y-146431000D02*
X116586000Y-147955000D01*
X116586000Y-155638500D02*
X116586000Y-154241500D01*
D20*
X116586000Y-146431000D02*
X116586000Y-145161000D01*
D21*
X125730000Y-146431000D02*
X125730000Y-146030950D01*
D22*
X125730000Y-146030950D02*
X124860050Y-145161000D01*
X124860050Y-145161000D02*
X117070933Y-145161000D01*
X117070933Y-145161000D02*
X116586000Y-145161000D01*
D20*
X117729000Y-135382000D02*
X117729000Y-137477500D01*
X117729000Y-136525000D02*
X117729000Y-137477500D01*
D19*
X116967000Y-138239500D02*
X116967000Y-138303000D01*
X117729000Y-137477500D02*
X116967000Y-138239500D01*
X130302000Y-164147500D02*
X130302000Y-161607500D01*
X115316000Y-150368000D02*
X115316000Y-151765000D01*
X124460000Y-151765000D02*
X124460000Y-150368000D01*
D20*
X119024400Y-135382000D02*
X119024399Y-136309101D01*
X119024400Y-136245600D02*
X119024399Y-136309101D01*
D19*
X118808500Y-136525000D02*
X118808500Y-136588500D01*
X119024399Y-136309101D02*
X118808500Y-136525000D01*
X115316000Y-159575500D02*
X115316000Y-160972500D01*
D22*
X130302000Y-155257500D02*
X129857500Y-155257500D01*
X129857500Y-155257500D02*
X127762000Y-153162000D01*
X127762000Y-147193000D02*
X127000000Y-146431000D01*
X127762000Y-153162000D02*
X127762000Y-147193000D01*
D19*
X130302000Y-157797500D02*
X130302000Y-155257500D01*
X117856000Y-155638500D02*
X117856000Y-154241500D01*
X117856000Y-147955000D02*
X117856000Y-146431000D01*
D21*
X127000000Y-146431000D02*
X127000000Y-146030950D01*
D19*
X119684800Y-135382000D02*
X119684800Y-136639300D01*
X119684800Y-136639300D02*
X119697500Y-136652000D01*
D20*
X130302000Y-157797500D02*
X130302000Y-157543500D01*
D22*
X118110000Y-144653000D02*
X117919500Y-144462500D01*
X125622050Y-144653000D02*
X118110000Y-144653000D01*
X127000000Y-146030950D02*
X125622050Y-144653000D01*
X130302000Y-148907500D02*
X129984500Y-148907500D01*
D19*
X130302000Y-151447500D02*
X130302000Y-148907500D01*
D20*
X120319800Y-134162800D02*
X120142000Y-133985000D01*
X120319800Y-135382000D02*
X120319800Y-134162800D01*
D19*
X114046000Y-159575500D02*
X114046000Y-160972500D01*
D20*
X130302000Y-151447500D02*
X130302000Y-151066500D01*
D19*
X130302000Y-145097500D02*
X130302000Y-142557500D01*
X123190000Y-150368000D02*
X123190000Y-151765000D01*
X121640601Y-137325101D02*
X121983500Y-137668000D01*
X120980200Y-135382000D02*
X120980200Y-136664700D01*
X120980200Y-136664700D02*
X121640601Y-137325101D01*
X130302000Y-138747500D02*
X130302000Y-136207500D01*
D20*
X122028798Y-136659198D02*
X122230855Y-136659198D01*
X121640600Y-136271000D02*
X122028798Y-136659198D01*
X121640600Y-135382000D02*
X121640600Y-136271000D01*
D19*
X114046000Y-150368000D02*
X114046000Y-151765000D01*
X115760500Y-131064000D02*
X114363500Y-132461000D01*
X112308433Y-132461000D02*
X111823500Y-132461000D01*
X114363500Y-132461000D02*
X112308433Y-132461000D01*
D20*
X116332000Y-131762500D02*
X117602000Y-131762500D01*
X118364000Y-130048000D02*
X118364000Y-131000500D01*
X118364000Y-131000500D02*
X117602000Y-131762500D01*
X115760500Y-131191000D02*
X116332000Y-131762500D01*
D21*
X115760500Y-131064000D02*
X115760500Y-131191000D01*
D23*
G36*
X133147600Y-175610390D02*
X133057733Y-176277367D01*
X132749712Y-176807158D01*
X132308600Y-177143515D01*
X132308600Y-176179038D01*
X132308600Y-176017362D01*
X132308600Y-174340962D01*
X132246729Y-174191593D01*
X132132407Y-174077271D01*
X131983038Y-174015400D01*
X131821362Y-174015400D01*
X131458600Y-174015400D01*
X131458600Y-170268487D01*
X131282920Y-169843308D01*
X130957903Y-169517724D01*
X130911600Y-169498497D01*
X130911600Y-168956844D01*
X130956192Y-168938420D01*
X131281776Y-168613403D01*
X131458199Y-168188531D01*
X131458600Y-167728487D01*
X131458600Y-163918487D01*
X131282920Y-163493308D01*
X130957903Y-163167724D01*
X130911600Y-163148497D01*
X130911600Y-162606844D01*
X130956192Y-162588420D01*
X131281776Y-162263403D01*
X131458199Y-161838531D01*
X131458600Y-161378487D01*
X131458600Y-157568487D01*
X131282920Y-157143308D01*
X130957903Y-156817724D01*
X130911600Y-156798497D01*
X130911600Y-156256844D01*
X130956192Y-156238420D01*
X131281776Y-155913403D01*
X131458199Y-155488531D01*
X131458600Y-155028487D01*
X131458600Y-151218487D01*
X131282920Y-150793308D01*
X130957903Y-150467724D01*
X130911600Y-150448497D01*
X130911600Y-149906844D01*
X130956192Y-149888420D01*
X131281776Y-149563403D01*
X131458199Y-149138531D01*
X131458600Y-148678487D01*
X131458600Y-144868487D01*
X131282920Y-144443308D01*
X130957903Y-144117724D01*
X130911600Y-144098497D01*
X130911600Y-143556844D01*
X130956192Y-143538420D01*
X131281776Y-143213403D01*
X131458199Y-142788531D01*
X131458600Y-142328487D01*
X131458600Y-138518487D01*
X131282920Y-138093308D01*
X130957903Y-137767724D01*
X130911600Y-137748497D01*
X130911600Y-137206844D01*
X130956192Y-137188420D01*
X131281776Y-136863403D01*
X131458199Y-136438531D01*
X131458600Y-135978487D01*
X131282920Y-135553308D01*
X130957903Y-135227724D01*
X130733800Y-135134667D01*
X130733800Y-133039457D01*
X130733800Y-132796943D01*
X130733800Y-132384800D01*
X130733800Y-131775200D01*
X130733800Y-131363057D01*
X130733800Y-131120543D01*
X130640994Y-130896489D01*
X130469511Y-130725006D01*
X130245457Y-130632200D01*
X129590800Y-130632200D01*
X129438400Y-130784600D01*
X129438400Y-131927600D01*
X130581400Y-131927600D01*
X130733800Y-131775200D01*
X130733800Y-132384800D01*
X130581400Y-132232400D01*
X129438400Y-132232400D01*
X129438400Y-133375400D01*
X129590800Y-133527800D01*
X130245457Y-133527800D01*
X130469511Y-133434994D01*
X130640994Y-133263511D01*
X130733800Y-133039457D01*
X130733800Y-135134667D01*
X130533031Y-135051301D01*
X130072987Y-135050900D01*
X129647808Y-135226580D01*
X129322224Y-135551597D01*
X129145801Y-135976469D01*
X129145400Y-136436513D01*
X129321080Y-136861692D01*
X129646097Y-137187276D01*
X129692400Y-137206502D01*
X129692400Y-137748155D01*
X129647808Y-137766580D01*
X129322224Y-138091597D01*
X129145801Y-138516469D01*
X129145400Y-138976513D01*
X129321080Y-139401692D01*
X129646097Y-139727276D01*
X130070969Y-139903699D01*
X130531013Y-139904100D01*
X130956192Y-139728420D01*
X131281776Y-139403403D01*
X131458199Y-138978531D01*
X131458600Y-138518487D01*
X131458600Y-142328487D01*
X131282920Y-141903308D01*
X130957903Y-141577724D01*
X130533031Y-141401301D01*
X130072987Y-141400900D01*
X129647808Y-141576580D01*
X129322224Y-141901597D01*
X129145801Y-142326469D01*
X129145400Y-142786513D01*
X129321080Y-143211692D01*
X129646097Y-143537276D01*
X129692400Y-143556502D01*
X129692400Y-144098155D01*
X129647808Y-144116580D01*
X129322224Y-144441597D01*
X129145801Y-144866469D01*
X129145400Y-145326513D01*
X129321080Y-145751692D01*
X129646097Y-146077276D01*
X130070969Y-146253699D01*
X130531013Y-146254100D01*
X130956192Y-146078420D01*
X131281776Y-145753403D01*
X131458199Y-145328531D01*
X131458600Y-144868487D01*
X131458600Y-148678487D01*
X131282920Y-148253308D01*
X130957903Y-147927724D01*
X130533031Y-147751301D01*
X130072987Y-147750900D01*
X129647808Y-147926580D01*
X129322224Y-148251597D01*
X129145801Y-148676469D01*
X129145400Y-149136513D01*
X129321080Y-149561692D01*
X129646097Y-149887276D01*
X129692400Y-149906502D01*
X129692400Y-150448155D01*
X129647808Y-150466580D01*
X129322224Y-150791597D01*
X129145801Y-151216469D01*
X129145400Y-151676513D01*
X129321080Y-152101692D01*
X129646097Y-152427276D01*
X130070969Y-152603699D01*
X130531013Y-152604100D01*
X130956192Y-152428420D01*
X131281776Y-152103403D01*
X131458199Y-151678531D01*
X131458600Y-151218487D01*
X131458600Y-155028487D01*
X131282920Y-154603308D01*
X130957903Y-154277724D01*
X130533031Y-154101301D01*
X130072987Y-154100900D01*
X129661277Y-154271014D01*
X129133600Y-153743337D01*
X129133600Y-133375400D01*
X129133600Y-132232400D01*
X129133600Y-131927600D01*
X129133600Y-130784600D01*
X128981200Y-130632200D01*
X128326543Y-130632200D01*
X128102489Y-130725006D01*
X127931006Y-130896489D01*
X127838200Y-131120543D01*
X127838200Y-131363057D01*
X127838200Y-131775200D01*
X127990600Y-131927600D01*
X129133600Y-131927600D01*
X129133600Y-132232400D01*
X127990600Y-132232400D01*
X127838200Y-132384800D01*
X127838200Y-132796943D01*
X127838200Y-133039457D01*
X127931006Y-133263511D01*
X128102489Y-133434994D01*
X128326543Y-133527800D01*
X128981200Y-133527800D01*
X129133600Y-133375400D01*
X129133600Y-153743337D01*
X128320800Y-152930537D01*
X128320800Y-147193000D01*
X128278265Y-146979157D01*
X128278264Y-146979156D01*
X128157131Y-146797869D01*
X127706120Y-146346858D01*
X127706120Y-145650392D01*
X127644249Y-145501023D01*
X127529927Y-145386701D01*
X127380558Y-145324830D01*
X127218882Y-145324830D01*
X127084142Y-145324830D01*
X126017181Y-144257869D01*
X125835894Y-144136736D01*
X125622050Y-144094200D01*
X124383800Y-144094200D01*
X124383800Y-130804257D01*
X124383800Y-130561743D01*
X124383800Y-130352800D01*
X124231400Y-130200400D01*
X123672600Y-130200400D01*
X123672600Y-131140200D01*
X123825000Y-131292600D01*
X123895457Y-131292600D01*
X124119511Y-131199794D01*
X124290994Y-131028311D01*
X124383800Y-130804257D01*
X124383800Y-144094200D01*
X118578065Y-144094200D01*
X118555096Y-144038610D01*
X118344499Y-143827644D01*
X118069199Y-143713330D01*
X117771109Y-143713070D01*
X117495610Y-143826904D01*
X117284644Y-144037501D01*
X117170330Y-144312801D01*
X117170077Y-144602200D01*
X117086921Y-144602200D01*
X117010999Y-144526144D01*
X116735699Y-144411830D01*
X116437609Y-144411570D01*
X116162110Y-144525404D01*
X115951144Y-144736001D01*
X115836830Y-145011301D01*
X115836570Y-145309391D01*
X115884418Y-145425192D01*
X115845927Y-145386701D01*
X115696558Y-145324830D01*
X115534882Y-145324830D01*
X114935442Y-145324830D01*
X114786073Y-145386701D01*
X114681000Y-145491774D01*
X114575927Y-145386701D01*
X114426558Y-145324830D01*
X114264882Y-145324830D01*
X113703100Y-145324830D01*
X113703100Y-135458200D01*
X113703100Y-134454900D01*
X112953800Y-134454900D01*
X112801400Y-134607300D01*
X112801400Y-134879743D01*
X112801400Y-135122257D01*
X112894206Y-135346311D01*
X113065689Y-135517794D01*
X113289743Y-135610600D01*
X113550700Y-135610600D01*
X113703100Y-135458200D01*
X113703100Y-145324830D01*
X113665442Y-145324830D01*
X113516073Y-145386701D01*
X113401751Y-145501023D01*
X113339880Y-145650392D01*
X113339880Y-145812068D01*
X113339880Y-145886736D01*
X113322100Y-145898616D01*
X113228590Y-145961098D01*
X113169702Y-145961098D01*
X113322100Y-145808700D01*
X113322100Y-145547743D01*
X113229294Y-145323689D01*
X113057811Y-145152206D01*
X112833757Y-145059400D01*
X112591243Y-145059400D01*
X112318800Y-145059400D01*
X112166400Y-145211800D01*
X112166400Y-145961100D01*
X112186400Y-145961100D01*
X112186400Y-146265900D01*
X112166400Y-146265900D01*
X112166400Y-146285900D01*
X111861600Y-146285900D01*
X111861600Y-146265900D01*
X111861600Y-145961100D01*
X111861600Y-145211800D01*
X111709200Y-145059400D01*
X111436757Y-145059400D01*
X111194243Y-145059400D01*
X110970189Y-145152206D01*
X110798706Y-145323689D01*
X110705900Y-145547743D01*
X110705900Y-145808700D01*
X110858300Y-145961100D01*
X111861600Y-145961100D01*
X111861600Y-146265900D01*
X110858300Y-146265900D01*
X110705900Y-146418300D01*
X110705900Y-146679257D01*
X110798706Y-146903311D01*
X110970189Y-147074794D01*
X111194243Y-147167600D01*
X111234662Y-147167600D01*
X111085293Y-147229471D01*
X110970971Y-147343793D01*
X110909100Y-147493162D01*
X110909100Y-147654838D01*
X110909100Y-148543838D01*
X110970971Y-148693207D01*
X111085293Y-148807529D01*
X111234662Y-148869400D01*
X111396338Y-148869400D01*
X111404400Y-148869400D01*
X111404400Y-149326600D01*
X111234662Y-149326600D01*
X111085293Y-149388471D01*
X110970971Y-149502793D01*
X110909100Y-149652162D01*
X110909100Y-149813838D01*
X110909100Y-150702838D01*
X110970971Y-150852207D01*
X111085293Y-150966529D01*
X111234662Y-151028400D01*
X111194243Y-151028400D01*
X110970189Y-151121206D01*
X110798706Y-151292689D01*
X110705900Y-151516743D01*
X110705900Y-151777700D01*
X110858300Y-151930100D01*
X111861600Y-151930100D01*
X111861600Y-151180800D01*
X111709200Y-151028400D01*
X112066296Y-151028400D01*
X112192548Y-151154652D01*
X112166400Y-151180800D01*
X112166400Y-151930100D01*
X112186400Y-151930100D01*
X112186400Y-152234900D01*
X112166400Y-152234900D01*
X112166400Y-152984200D01*
X112318800Y-153136600D01*
X112591243Y-153136600D01*
X112610900Y-153136600D01*
X112610900Y-154266900D01*
X112591243Y-154266900D01*
X112318800Y-154266900D01*
X112166400Y-154419300D01*
X112166400Y-155168600D01*
X112186400Y-155168600D01*
X112186400Y-155473400D01*
X112166400Y-155473400D01*
X112166400Y-155493400D01*
X111861600Y-155493400D01*
X111861600Y-155473400D01*
X111861600Y-155168600D01*
X111861600Y-154419300D01*
X111861600Y-152984200D01*
X111861600Y-152234900D01*
X110858300Y-152234900D01*
X110705900Y-152387300D01*
X110705900Y-152648257D01*
X110798706Y-152872311D01*
X110970189Y-153043794D01*
X111194243Y-153136600D01*
X111436757Y-153136600D01*
X111709200Y-153136600D01*
X111861600Y-152984200D01*
X111861600Y-154419300D01*
X111709200Y-154266900D01*
X111436757Y-154266900D01*
X111194243Y-154266900D01*
X110970189Y-154359706D01*
X110798706Y-154531189D01*
X110705900Y-154755243D01*
X110705900Y-155016200D01*
X110858300Y-155168600D01*
X111861600Y-155168600D01*
X111861600Y-155473400D01*
X110858300Y-155473400D01*
X110705900Y-155625800D01*
X110705900Y-155886757D01*
X110798706Y-156110811D01*
X110970189Y-156282294D01*
X111194243Y-156375100D01*
X111234662Y-156375100D01*
X111085293Y-156436971D01*
X110970971Y-156551293D01*
X110909100Y-156700662D01*
X110909100Y-156862338D01*
X110909100Y-157751338D01*
X110970971Y-157900707D01*
X111085293Y-158015029D01*
X111234662Y-158076900D01*
X111396338Y-158076900D01*
X111404400Y-158076900D01*
X111404400Y-158534100D01*
X111234662Y-158534100D01*
X111085293Y-158595971D01*
X110970971Y-158710293D01*
X110909100Y-158859662D01*
X110909100Y-159021338D01*
X110909100Y-159910338D01*
X110970971Y-160059707D01*
X111085293Y-160174029D01*
X111234662Y-160235900D01*
X111194243Y-160235900D01*
X110970189Y-160328706D01*
X110798706Y-160500189D01*
X110705900Y-160724243D01*
X110705900Y-160985200D01*
X110858300Y-161137600D01*
X111861600Y-161137600D01*
X111861600Y-160388300D01*
X111709200Y-160235900D01*
X112318800Y-160235900D01*
X112166400Y-160388300D01*
X112166400Y-161137600D01*
X113169700Y-161137600D01*
X113322100Y-160985200D01*
X113322100Y-160724243D01*
X113229294Y-160500189D01*
X113057811Y-160328706D01*
X112833757Y-160235900D01*
X112793338Y-160235900D01*
X112942707Y-160174029D01*
X113057029Y-160059707D01*
X113118900Y-159910338D01*
X113118900Y-159748662D01*
X113118900Y-158859662D01*
X113057029Y-158710293D01*
X112942707Y-158595971D01*
X112793338Y-158534100D01*
X112631662Y-158534100D01*
X112623600Y-158534100D01*
X112623600Y-158076900D01*
X112793338Y-158076900D01*
X112942707Y-158015029D01*
X113057029Y-157900707D01*
X113118900Y-157751338D01*
X113118900Y-157589662D01*
X113118900Y-156983204D01*
X113467689Y-156634415D01*
X113516073Y-156682799D01*
X113665442Y-156744670D01*
X113827118Y-156744670D01*
X114426558Y-156744670D01*
X114575927Y-156682799D01*
X114681000Y-156577726D01*
X114786073Y-156682799D01*
X114935442Y-156744670D01*
X114988566Y-156744670D01*
X115976400Y-157732504D01*
X115976400Y-157791789D01*
X115951144Y-157817001D01*
X115836830Y-158092301D01*
X115836570Y-158390391D01*
X115950404Y-158665890D01*
X115976400Y-158691931D01*
X115976400Y-159211640D01*
X115951596Y-159151610D01*
X115740999Y-158940644D01*
X115465699Y-158826330D01*
X115167609Y-158826070D01*
X114892110Y-158939904D01*
X114681144Y-159150501D01*
X114680951Y-159150964D01*
X114470999Y-158940644D01*
X114195699Y-158826330D01*
X113897609Y-158826070D01*
X113622110Y-158939904D01*
X113411144Y-159150501D01*
X113296830Y-159425801D01*
X113296570Y-159723891D01*
X113410404Y-159999390D01*
X113427628Y-160016645D01*
X113401751Y-160042523D01*
X113339880Y-160191892D01*
X113339880Y-160353568D01*
X113339880Y-161753108D01*
X113401751Y-161902477D01*
X113516073Y-162016799D01*
X113665442Y-162078670D01*
X113827118Y-162078670D01*
X114426558Y-162078670D01*
X114575927Y-162016799D01*
X114681000Y-161911726D01*
X114786073Y-162016799D01*
X114935442Y-162078670D01*
X115097118Y-162078670D01*
X115696558Y-162078670D01*
X115806099Y-162033296D01*
X115608849Y-162230546D01*
X115608846Y-162230549D01*
X115584293Y-162255101D01*
X115548609Y-162255070D01*
X115273110Y-162368904D01*
X115062144Y-162579501D01*
X114947830Y-162854801D01*
X114947570Y-163152891D01*
X115061404Y-163428390D01*
X115272001Y-163639356D01*
X115547301Y-163753670D01*
X115845391Y-163753930D01*
X116120890Y-163640096D01*
X116331856Y-163429499D01*
X116446170Y-163154199D01*
X116446202Y-163117402D01*
X116470951Y-163092654D01*
X116470951Y-163092653D01*
X116470953Y-163092650D01*
X117017052Y-162546553D01*
X117017052Y-162546552D01*
X117149197Y-162348784D01*
X117185944Y-162164039D01*
X117210969Y-162189064D01*
X117435023Y-162281870D01*
X117553740Y-162281870D01*
X117706140Y-162129470D01*
X117706140Y-161124900D01*
X117683600Y-161124900D01*
X117683600Y-160820100D01*
X117706140Y-160820100D01*
X117706140Y-159815530D01*
X117553740Y-159663130D01*
X117435023Y-159663130D01*
X117210969Y-159755936D01*
X117195600Y-159771305D01*
X117195600Y-158692210D01*
X117220856Y-158666999D01*
X117335170Y-158391699D01*
X117335430Y-158093609D01*
X117221596Y-157818110D01*
X117195600Y-157792068D01*
X117195600Y-157480000D01*
X117149197Y-157246716D01*
X117017052Y-157048948D01*
X116712774Y-156744670D01*
X116966558Y-156744670D01*
X117115927Y-156682799D01*
X117221000Y-156577726D01*
X117326073Y-156682799D01*
X117475442Y-156744670D01*
X117637118Y-156744670D01*
X118236558Y-156744670D01*
X118385927Y-156682799D01*
X118500249Y-156568477D01*
X118562120Y-156419108D01*
X118562120Y-156257432D01*
X118562120Y-154857892D01*
X118500249Y-154708523D01*
X118474526Y-154682800D01*
X118490856Y-154666499D01*
X118605170Y-154391199D01*
X118605430Y-154093109D01*
X118491596Y-153817610D01*
X118280999Y-153606644D01*
X118005699Y-153492330D01*
X117707609Y-153492070D01*
X117432110Y-153605904D01*
X117221144Y-153816501D01*
X117220951Y-153816964D01*
X117010999Y-153606644D01*
X116735699Y-153492330D01*
X116437609Y-153492070D01*
X116162110Y-153605904D01*
X115951144Y-153816501D01*
X115836830Y-154091801D01*
X115836570Y-154389891D01*
X115950404Y-154665390D01*
X115967628Y-154682645D01*
X115951000Y-154699274D01*
X115845927Y-154594201D01*
X115696558Y-154532330D01*
X115534882Y-154532330D01*
X114935442Y-154532330D01*
X114786073Y-154594201D01*
X114681000Y-154699274D01*
X114575927Y-154594201D01*
X114426558Y-154532330D01*
X114264882Y-154532330D01*
X113830100Y-154532330D01*
X113830100Y-152871170D01*
X114426558Y-152871170D01*
X114575927Y-152809299D01*
X114681000Y-152704226D01*
X114786073Y-152809299D01*
X114935442Y-152871170D01*
X115097118Y-152871170D01*
X115696558Y-152871170D01*
X115845927Y-152809299D01*
X115951000Y-152704226D01*
X116056073Y-152809299D01*
X116205442Y-152871170D01*
X116367118Y-152871170D01*
X116966558Y-152871170D01*
X117061322Y-152831917D01*
X117210969Y-152981564D01*
X117435023Y-153074370D01*
X117553740Y-153074370D01*
X117706140Y-152921970D01*
X117706140Y-151917400D01*
X117683600Y-151917400D01*
X117683600Y-151612600D01*
X117706140Y-151612600D01*
X117706140Y-150608030D01*
X117553740Y-150455630D01*
X117435023Y-150455630D01*
X117210969Y-150548436D01*
X117121424Y-150637980D01*
X117017052Y-150481778D01*
X116624100Y-150088826D01*
X116624100Y-149098000D01*
X116577697Y-148864716D01*
X116470442Y-148704199D01*
X116734391Y-148704430D01*
X117009890Y-148590596D01*
X117220856Y-148379999D01*
X117221048Y-148379535D01*
X117431001Y-148589856D01*
X117706301Y-148704170D01*
X118004391Y-148704430D01*
X118279890Y-148590596D01*
X118490856Y-148379999D01*
X118605170Y-148104699D01*
X118605430Y-147806609D01*
X118491596Y-147531110D01*
X118465600Y-147505068D01*
X118465600Y-147395626D01*
X118500249Y-147360977D01*
X118562120Y-147211608D01*
X118562120Y-147049932D01*
X118562120Y-145719800D01*
X119849900Y-145719800D01*
X119849900Y-145808700D01*
X120002300Y-145961100D01*
X121005600Y-145961100D01*
X121005600Y-145941100D01*
X121310400Y-145941100D01*
X121310400Y-145961100D01*
X121330400Y-145961100D01*
X121330400Y-146265900D01*
X121310400Y-146265900D01*
X121310400Y-146285900D01*
X121005600Y-146285900D01*
X121005600Y-146265900D01*
X120002300Y-146265900D01*
X119849900Y-146418300D01*
X119849900Y-146679257D01*
X119942706Y-146903311D01*
X120114189Y-147074794D01*
X120338243Y-147167600D01*
X120378662Y-147167600D01*
X120229293Y-147229471D01*
X120114971Y-147343793D01*
X120053100Y-147493162D01*
X120053100Y-147654838D01*
X120053100Y-148543838D01*
X120114971Y-148693207D01*
X120229293Y-148807529D01*
X120378662Y-148869400D01*
X120540338Y-148869400D01*
X120548400Y-148869400D01*
X120548400Y-149326600D01*
X120378662Y-149326600D01*
X120229293Y-149388471D01*
X120114971Y-149502793D01*
X120053100Y-149652162D01*
X120053100Y-149813838D01*
X120053100Y-150702838D01*
X120114971Y-150852207D01*
X120229293Y-150966529D01*
X120378662Y-151028400D01*
X120338243Y-151028400D01*
X120114189Y-151121206D01*
X119942706Y-151292689D01*
X119849900Y-151516743D01*
X119849900Y-151777700D01*
X120002300Y-151930100D01*
X121005600Y-151930100D01*
X121005600Y-151180800D01*
X120853200Y-151028400D01*
X121462800Y-151028400D01*
X121310400Y-151180800D01*
X121310400Y-151930100D01*
X122313700Y-151930100D01*
X122466100Y-151777700D01*
X122466100Y-151516743D01*
X122373294Y-151292689D01*
X122201811Y-151121206D01*
X121977757Y-151028400D01*
X121937338Y-151028400D01*
X122086707Y-150966529D01*
X122201029Y-150852207D01*
X122262900Y-150702838D01*
X122262900Y-150541162D01*
X122262900Y-149652162D01*
X122201029Y-149502793D01*
X122086707Y-149388471D01*
X121937338Y-149326600D01*
X121775662Y-149326600D01*
X121767600Y-149326600D01*
X121767600Y-148869400D01*
X121937338Y-148869400D01*
X122086707Y-148807529D01*
X122201029Y-148693207D01*
X122262900Y-148543838D01*
X122262900Y-148382162D01*
X122262900Y-147775704D01*
X122611689Y-147426915D01*
X122660073Y-147475299D01*
X122809442Y-147537170D01*
X122971118Y-147537170D01*
X123570558Y-147537170D01*
X123719927Y-147475299D01*
X123825000Y-147370226D01*
X123884945Y-147430171D01*
X123896803Y-147489784D01*
X124028948Y-147687552D01*
X125120400Y-148779004D01*
X125120400Y-150004140D01*
X125095596Y-149944110D01*
X124884999Y-149733144D01*
X124609699Y-149618830D01*
X124311609Y-149618570D01*
X124036110Y-149732404D01*
X123825144Y-149943001D01*
X123824951Y-149943464D01*
X123614999Y-149733144D01*
X123339699Y-149618830D01*
X123041609Y-149618570D01*
X122766110Y-149732404D01*
X122555144Y-149943001D01*
X122440830Y-150218301D01*
X122440570Y-150516391D01*
X122554404Y-150791890D01*
X122571628Y-150809145D01*
X122545751Y-150835023D01*
X122483880Y-150984392D01*
X122483880Y-151146068D01*
X122483880Y-152545608D01*
X122545751Y-152694977D01*
X122660073Y-152809299D01*
X122809442Y-152871170D01*
X122971118Y-152871170D01*
X123570558Y-152871170D01*
X123719927Y-152809299D01*
X123825000Y-152704226D01*
X123930073Y-152809299D01*
X124079442Y-152871170D01*
X124241118Y-152871170D01*
X124840558Y-152871170D01*
X124989927Y-152809299D01*
X125095000Y-152704226D01*
X125120400Y-152729626D01*
X125120400Y-152838789D01*
X125095144Y-152864001D01*
X124980830Y-153139301D01*
X124980570Y-153437391D01*
X125094404Y-153712890D01*
X125305001Y-153923856D01*
X125580301Y-154038170D01*
X125878391Y-154038430D01*
X126017068Y-153981129D01*
X126026784Y-153979197D01*
X126034948Y-153973741D01*
X126153890Y-153924596D01*
X126364856Y-153713999D01*
X126479170Y-153438699D01*
X126479430Y-153140609D01*
X126425844Y-153010921D01*
X126579023Y-153074370D01*
X126697740Y-153074370D01*
X126850140Y-152921970D01*
X126850140Y-151917400D01*
X126827600Y-151917400D01*
X126827600Y-151612600D01*
X126850140Y-151612600D01*
X126850140Y-150608030D01*
X126697740Y-150455630D01*
X126579023Y-150455630D01*
X126354969Y-150548436D01*
X126339600Y-150563805D01*
X126339600Y-148766548D01*
X126342301Y-148767670D01*
X126640391Y-148767930D01*
X126915890Y-148654096D01*
X127126856Y-148443499D01*
X127203200Y-148259641D01*
X127203200Y-150554690D01*
X127149860Y-150608030D01*
X127149860Y-151612600D01*
X127172400Y-151612600D01*
X127172400Y-151917400D01*
X127149860Y-151917400D01*
X127149860Y-152921970D01*
X127203200Y-152975310D01*
X127203200Y-153162000D01*
X127245736Y-153375844D01*
X127366869Y-153557131D01*
X129145531Y-155335794D01*
X129145400Y-155486513D01*
X129321080Y-155911692D01*
X129646097Y-156237276D01*
X129692400Y-156256502D01*
X129692400Y-156798155D01*
X129647808Y-156816580D01*
X129322224Y-157141597D01*
X129145801Y-157566469D01*
X129145400Y-158026513D01*
X129321080Y-158451692D01*
X129646097Y-158777276D01*
X130070969Y-158953699D01*
X130531013Y-158954100D01*
X130956192Y-158778420D01*
X131281776Y-158453403D01*
X131458199Y-158028531D01*
X131458600Y-157568487D01*
X131458600Y-161378487D01*
X131282920Y-160953308D01*
X130957903Y-160627724D01*
X130533031Y-160451301D01*
X130072987Y-160450900D01*
X129647808Y-160626580D01*
X129322224Y-160951597D01*
X129145801Y-161376469D01*
X129145400Y-161836513D01*
X129321080Y-162261692D01*
X129646097Y-162587276D01*
X129692400Y-162606502D01*
X129692400Y-163148155D01*
X129647808Y-163166580D01*
X129322224Y-163491597D01*
X129145801Y-163916469D01*
X129145400Y-164376513D01*
X129321080Y-164801692D01*
X129646097Y-165127276D01*
X130070969Y-165303699D01*
X130531013Y-165304100D01*
X130956192Y-165128420D01*
X131281776Y-164803403D01*
X131458199Y-164378531D01*
X131458600Y-163918487D01*
X131458600Y-167728487D01*
X131282920Y-167303308D01*
X130957903Y-166977724D01*
X130533031Y-166801301D01*
X130072987Y-166800900D01*
X129647808Y-166976580D01*
X129322224Y-167301597D01*
X129145801Y-167726469D01*
X129145400Y-168186513D01*
X129321080Y-168611692D01*
X129646097Y-168937276D01*
X129692400Y-168956502D01*
X129692400Y-169498155D01*
X129647808Y-169516580D01*
X129322224Y-169841597D01*
X129145801Y-170266469D01*
X129145400Y-170726513D01*
X129321080Y-171151692D01*
X129646097Y-171477276D01*
X130070969Y-171653699D01*
X130531013Y-171654100D01*
X130956192Y-171478420D01*
X131281776Y-171153403D01*
X131458199Y-170728531D01*
X131458600Y-170268487D01*
X131458600Y-174015400D01*
X130144962Y-174015400D01*
X129995593Y-174077271D01*
X129881271Y-174191593D01*
X129819400Y-174340962D01*
X129819400Y-174502638D01*
X129819400Y-174563625D01*
X129801439Y-174520264D01*
X129561582Y-174437945D01*
X129346055Y-174653471D01*
X129346055Y-174222418D01*
X129263736Y-173982561D01*
X128718572Y-173796715D01*
X128143787Y-173833642D01*
X127784264Y-173982561D01*
X127701945Y-174222418D01*
X128524000Y-175044474D01*
X129346055Y-174222418D01*
X129346055Y-174653471D01*
X128739526Y-175260000D01*
X129561582Y-176082055D01*
X129801439Y-175999736D01*
X129819400Y-175947048D01*
X129819400Y-176179038D01*
X129881271Y-176328407D01*
X129995593Y-176442729D01*
X130144962Y-176504600D01*
X130306638Y-176504600D01*
X131983038Y-176504600D01*
X132132407Y-176442729D01*
X132246729Y-176328407D01*
X132308600Y-176179038D01*
X132308600Y-177143515D01*
X132262396Y-177178747D01*
X131639618Y-177343600D01*
X129346055Y-177343600D01*
X129346055Y-176297582D01*
X128524000Y-175475526D01*
X128308474Y-175691052D01*
X128308474Y-175260000D01*
X127486418Y-174437945D01*
X127254000Y-174517710D01*
X127021582Y-174437945D01*
X126806055Y-174653471D01*
X126806055Y-174222418D01*
X126723736Y-173982561D01*
X126178572Y-173796715D01*
X125603787Y-173833642D01*
X125244264Y-173982561D01*
X125161945Y-174222418D01*
X125984000Y-175044474D01*
X126806055Y-174222418D01*
X126806055Y-174653471D01*
X126199526Y-175260000D01*
X127021582Y-176082055D01*
X127254000Y-176002289D01*
X127486418Y-176082055D01*
X128308474Y-175260000D01*
X128308474Y-175691052D01*
X127701945Y-176297582D01*
X127784264Y-176537439D01*
X128329428Y-176723285D01*
X128904213Y-176686358D01*
X129263736Y-176537439D01*
X129346055Y-176297582D01*
X129346055Y-177343600D01*
X126806055Y-177343600D01*
X126806055Y-176297582D01*
X125984000Y-175475526D01*
X125768474Y-175691052D01*
X125768474Y-175260000D01*
X124946418Y-174437945D01*
X124706561Y-174520264D01*
X124606403Y-174814067D01*
X124499736Y-174555912D01*
X124149930Y-174205495D01*
X123692652Y-174015617D01*
X123197520Y-174015185D01*
X122739912Y-174204264D01*
X122466100Y-174477598D01*
X122466100Y-152648257D01*
X122466100Y-152387300D01*
X122313700Y-152234900D01*
X121310400Y-152234900D01*
X121310400Y-152984200D01*
X121462800Y-153136600D01*
X121735243Y-153136600D01*
X121977757Y-153136600D01*
X122201811Y-153043794D01*
X122373294Y-152872311D01*
X122466100Y-152648257D01*
X122466100Y-174477598D01*
X122389495Y-174554070D01*
X122199617Y-175011348D01*
X122199185Y-175506480D01*
X122388264Y-175964088D01*
X122738070Y-176314505D01*
X123195348Y-176504383D01*
X123690480Y-176504815D01*
X124148088Y-176315736D01*
X124498505Y-175965930D01*
X124595651Y-175731975D01*
X124706561Y-175999736D01*
X124946418Y-176082055D01*
X125768474Y-175260000D01*
X125768474Y-175691052D01*
X125161945Y-176297582D01*
X125244264Y-176537439D01*
X125789428Y-176723285D01*
X126364213Y-176686358D01*
X126723736Y-176537439D01*
X126806055Y-176297582D01*
X126806055Y-177343600D01*
X122148815Y-177343600D01*
X122148815Y-175013520D01*
X121959736Y-174555912D01*
X121609930Y-174205495D01*
X121152652Y-174015617D01*
X121005600Y-174015488D01*
X121005600Y-152984200D01*
X121005600Y-152234900D01*
X120002300Y-152234900D01*
X119849900Y-152387300D01*
X119849900Y-152648257D01*
X119942706Y-152872311D01*
X120114189Y-153043794D01*
X120338243Y-153136600D01*
X120580757Y-153136600D01*
X120853200Y-153136600D01*
X121005600Y-152984200D01*
X121005600Y-174015488D01*
X120657520Y-174015185D01*
X120199912Y-174204264D01*
X119849495Y-174554070D01*
X119659617Y-175011348D01*
X119659185Y-175506480D01*
X119848264Y-175964088D01*
X120198070Y-176314505D01*
X120655348Y-176504383D01*
X121150480Y-176504815D01*
X121608088Y-176315736D01*
X121958505Y-175965930D01*
X122148383Y-175508652D01*
X122148815Y-175013520D01*
X122148815Y-177343600D01*
X121285000Y-177343600D01*
X121158000Y-177343600D01*
X119608815Y-177343600D01*
X119608815Y-175013520D01*
X119419736Y-174555912D01*
X119069930Y-174205495D01*
X118765320Y-174079010D01*
X118765320Y-161793527D01*
X118765320Y-161551013D01*
X118765320Y-161277300D01*
X118765320Y-160667700D01*
X118765320Y-160393987D01*
X118765320Y-160151473D01*
X118765320Y-152586027D01*
X118765320Y-152343513D01*
X118765320Y-152069800D01*
X118765320Y-151460200D01*
X118765320Y-151186487D01*
X118765320Y-150943973D01*
X118672514Y-150719919D01*
X118501031Y-150548436D01*
X118276977Y-150455630D01*
X118158260Y-150455630D01*
X118005860Y-150608030D01*
X118005860Y-151612600D01*
X118612920Y-151612600D01*
X118765320Y-151460200D01*
X118765320Y-152069800D01*
X118612920Y-151917400D01*
X118005860Y-151917400D01*
X118005860Y-152921970D01*
X118158260Y-153074370D01*
X118276977Y-153074370D01*
X118501031Y-152981564D01*
X118672514Y-152810081D01*
X118765320Y-152586027D01*
X118765320Y-160151473D01*
X118672514Y-159927419D01*
X118501031Y-159755936D01*
X118276977Y-159663130D01*
X118158260Y-159663130D01*
X118005860Y-159815530D01*
X118005860Y-160820100D01*
X118612920Y-160820100D01*
X118765320Y-160667700D01*
X118765320Y-161277300D01*
X118612920Y-161124900D01*
X118005860Y-161124900D01*
X118005860Y-162129470D01*
X118158260Y-162281870D01*
X118276977Y-162281870D01*
X118501031Y-162189064D01*
X118672514Y-162017581D01*
X118765320Y-161793527D01*
X118765320Y-174079010D01*
X118612652Y-174015617D01*
X118117520Y-174015185D01*
X117659912Y-174204264D01*
X117309495Y-174554070D01*
X117119617Y-175011348D01*
X117119185Y-175506480D01*
X117308264Y-175964088D01*
X117658070Y-176314505D01*
X118115348Y-176504383D01*
X118610480Y-176504815D01*
X119068088Y-176315736D01*
X119418505Y-175965930D01*
X119608383Y-175508652D01*
X119608815Y-175013520D01*
X119608815Y-177343600D01*
X117068815Y-177343600D01*
X117068815Y-175013520D01*
X116879736Y-174555912D01*
X116529930Y-174205495D01*
X116072652Y-174015617D01*
X115577520Y-174015185D01*
X115119912Y-174204264D01*
X114769495Y-174554070D01*
X114579617Y-175011348D01*
X114579185Y-175506480D01*
X114768264Y-175964088D01*
X115118070Y-176314505D01*
X115575348Y-176504383D01*
X116070480Y-176504815D01*
X116528088Y-176315736D01*
X116878505Y-175965930D01*
X117068383Y-175508652D01*
X117068815Y-175013520D01*
X117068815Y-177343600D01*
X114528815Y-177343600D01*
X114528815Y-175013520D01*
X114339736Y-174555912D01*
X113989930Y-174205495D01*
X113532652Y-174015617D01*
X113322100Y-174015433D01*
X113322100Y-161855757D01*
X113322100Y-161594800D01*
X113169700Y-161442400D01*
X112166400Y-161442400D01*
X112166400Y-162191700D01*
X112318800Y-162344100D01*
X112591243Y-162344100D01*
X112833757Y-162344100D01*
X113057811Y-162251294D01*
X113229294Y-162079811D01*
X113322100Y-161855757D01*
X113322100Y-174015433D01*
X113037520Y-174015185D01*
X112579912Y-174204264D01*
X112229495Y-174554070D01*
X112039617Y-175011348D01*
X112039185Y-175506480D01*
X112228264Y-175964088D01*
X112578070Y-176314505D01*
X113035348Y-176504383D01*
X113530480Y-176504815D01*
X113988088Y-176315736D01*
X114338505Y-175965930D01*
X114528383Y-175508652D01*
X114528815Y-175013520D01*
X114528815Y-177343600D01*
X111861600Y-177343600D01*
X111861600Y-162191700D01*
X111861600Y-161442400D01*
X110858300Y-161442400D01*
X110705900Y-161594800D01*
X110705900Y-161855757D01*
X110798706Y-162079811D01*
X110970189Y-162251294D01*
X111194243Y-162344100D01*
X111436757Y-162344100D01*
X111709200Y-162344100D01*
X111861600Y-162191700D01*
X111861600Y-177343600D01*
X110788949Y-177343600D01*
X110144466Y-177215404D01*
X109636205Y-176875794D01*
X109296595Y-176367533D01*
X109168400Y-175723050D01*
X109168400Y-169100500D01*
X109168400Y-165608000D01*
X109168400Y-126790949D01*
X109315931Y-126049263D01*
X109710599Y-125458600D01*
X110301265Y-125063929D01*
X111042949Y-124916400D01*
X126701050Y-124916400D01*
X127345533Y-125044595D01*
X127853794Y-125384205D01*
X128193404Y-125892466D01*
X128218239Y-126017323D01*
X128182729Y-125931593D01*
X128068407Y-125817271D01*
X127919038Y-125755400D01*
X127757362Y-125755400D01*
X126080962Y-125755400D01*
X125931593Y-125817271D01*
X125817271Y-125931593D01*
X125755400Y-126080962D01*
X125755400Y-126242638D01*
X125755400Y-127490258D01*
X125128058Y-128117600D01*
X125014365Y-128117600D01*
X125164088Y-128055736D01*
X125514505Y-127705930D01*
X125704383Y-127248652D01*
X125704815Y-126753520D01*
X125515736Y-126295912D01*
X125165930Y-125945495D01*
X124708652Y-125755617D01*
X124213520Y-125755185D01*
X123755912Y-125944264D01*
X123405495Y-126294070D01*
X123215617Y-126751348D01*
X123215185Y-127246480D01*
X123391460Y-127673100D01*
X122988137Y-127673100D01*
X123164383Y-127248652D01*
X123164815Y-126753520D01*
X122975736Y-126295912D01*
X122625930Y-125945495D01*
X122168652Y-125755617D01*
X121673520Y-125755185D01*
X121215912Y-125944264D01*
X120865495Y-126294070D01*
X120675617Y-126751348D01*
X120675185Y-127246480D01*
X120820788Y-127598869D01*
X119951500Y-128468158D01*
X119913400Y-128430058D01*
X119913400Y-128126262D01*
X120084088Y-128055736D01*
X120434505Y-127705930D01*
X120624383Y-127248652D01*
X120624815Y-126753520D01*
X120435736Y-126295912D01*
X120085930Y-125945495D01*
X119628652Y-125755617D01*
X119133520Y-125755185D01*
X118675912Y-125944264D01*
X118325495Y-126294070D01*
X118135617Y-126751348D01*
X118135185Y-127246480D01*
X118253030Y-127531688D01*
X118050820Y-127329478D01*
X118084383Y-127248652D01*
X118084815Y-126753520D01*
X117895736Y-126295912D01*
X117545930Y-125945495D01*
X117088652Y-125755617D01*
X116593520Y-125755185D01*
X116135912Y-125944264D01*
X115785495Y-126294070D01*
X115595617Y-126751348D01*
X115595185Y-127246480D01*
X115784264Y-127704088D01*
X116134070Y-128054505D01*
X116286019Y-128117600D01*
X115790942Y-128117600D01*
X115361771Y-127688429D01*
X115544383Y-127248652D01*
X115544815Y-126753520D01*
X115355736Y-126295912D01*
X115005930Y-125945495D01*
X114548652Y-125755617D01*
X114053520Y-125755185D01*
X113595912Y-125944264D01*
X113245495Y-126294070D01*
X113055617Y-126751348D01*
X113055185Y-127246480D01*
X113244264Y-127704088D01*
X113594070Y-128054505D01*
X114051348Y-128244383D01*
X114409353Y-128244695D01*
X115192829Y-129028171D01*
X115365876Y-129143797D01*
X115365877Y-129143797D01*
X115570000Y-129184400D01*
X116873058Y-129184400D01*
X117119400Y-129430741D01*
X117119400Y-129493838D01*
X117119400Y-130763838D01*
X117181271Y-130913207D01*
X117295593Y-131027529D01*
X117444962Y-131089400D01*
X117520758Y-131089400D01*
X117381058Y-131229100D01*
X116611400Y-131229100D01*
X116611400Y-130411662D01*
X116549529Y-130262293D01*
X116435207Y-130147971D01*
X116285838Y-130086100D01*
X116124162Y-130086100D01*
X115235162Y-130086100D01*
X115085793Y-130147971D01*
X114971471Y-130262293D01*
X114909600Y-130411662D01*
X114909600Y-130371243D01*
X114816794Y-130147189D01*
X114645311Y-129975706D01*
X114421257Y-129882900D01*
X114160300Y-129882900D01*
X114007900Y-130035300D01*
X114007900Y-131038600D01*
X114027900Y-131038600D01*
X114027900Y-131343400D01*
X114007900Y-131343400D01*
X114007900Y-131363400D01*
X113703100Y-131363400D01*
X113703100Y-131343400D01*
X113703100Y-131038600D01*
X113703100Y-130035300D01*
X113550700Y-129882900D01*
X113289743Y-129882900D01*
X113065689Y-129975706D01*
X112894206Y-130147189D01*
X112801400Y-130371243D01*
X112801400Y-130613757D01*
X112801400Y-130886200D01*
X112953800Y-131038600D01*
X113703100Y-131038600D01*
X113703100Y-131343400D01*
X112953800Y-131343400D01*
X112801400Y-131495800D01*
X112801400Y-131768243D01*
X112801400Y-131851400D01*
X112308433Y-131851400D01*
X112273710Y-131851400D01*
X112248499Y-131826144D01*
X111973199Y-131711830D01*
X111675109Y-131711570D01*
X111399610Y-131825404D01*
X111188644Y-132036001D01*
X111074330Y-132311301D01*
X111074070Y-132609391D01*
X111187904Y-132884890D01*
X111303578Y-133000767D01*
X111188644Y-133115501D01*
X111074330Y-133390801D01*
X111074070Y-133688891D01*
X111187904Y-133964390D01*
X111398501Y-134175356D01*
X111673801Y-134289670D01*
X111971891Y-134289930D01*
X112247390Y-134176096D01*
X112458356Y-133965499D01*
X112524086Y-133807201D01*
X112801400Y-133807201D01*
X112801400Y-133997700D01*
X112953800Y-134150100D01*
X113703100Y-134150100D01*
X113703100Y-134130100D01*
X114007900Y-134130100D01*
X114007900Y-134150100D01*
X114027900Y-134150100D01*
X114027900Y-134454900D01*
X114007900Y-134454900D01*
X114007900Y-135458200D01*
X114160300Y-135610600D01*
X114421257Y-135610600D01*
X114645311Y-135517794D01*
X114816794Y-135346311D01*
X114909600Y-135122257D01*
X114909600Y-135081838D01*
X114971471Y-135231207D01*
X115085793Y-135345529D01*
X115235162Y-135407400D01*
X115396838Y-135407400D01*
X115696652Y-135407400D01*
X115760500Y-135420100D01*
X115824347Y-135407400D01*
X116285838Y-135407400D01*
X116435207Y-135345529D01*
X116549529Y-135231207D01*
X116611400Y-135081838D01*
X116611400Y-134920162D01*
X116611400Y-134777442D01*
X116616442Y-134772400D01*
X117119400Y-134772400D01*
X117119400Y-134827838D01*
X117119400Y-136097838D01*
X117181271Y-136247207D01*
X117195600Y-136261536D01*
X117195600Y-136525000D01*
X117195600Y-137148796D01*
X116771263Y-137573132D01*
X116543110Y-137667404D01*
X116332144Y-137878001D01*
X116217830Y-138153301D01*
X116217570Y-138451391D01*
X116331404Y-138726890D01*
X116542001Y-138937856D01*
X116817301Y-139052170D01*
X117115391Y-139052430D01*
X117390890Y-138938596D01*
X117601856Y-138727999D01*
X117716170Y-138452699D01*
X117716257Y-138352346D01*
X118160052Y-137908552D01*
X118292197Y-137710784D01*
X118338600Y-137477500D01*
X118292197Y-137244216D01*
X118262400Y-137199621D01*
X118262400Y-137102042D01*
X118383501Y-137223356D01*
X118658801Y-137337670D01*
X118956891Y-137337930D01*
X119216432Y-137230689D01*
X119272501Y-137286856D01*
X119547801Y-137401170D01*
X119845891Y-137401430D01*
X120121390Y-137287596D01*
X120332356Y-137076999D01*
X120413662Y-136881190D01*
X120417003Y-136897984D01*
X120549148Y-137095752D01*
X121209549Y-137756153D01*
X121234101Y-137780705D01*
X121234070Y-137816391D01*
X121347904Y-138091890D01*
X121558501Y-138302856D01*
X121833801Y-138417170D01*
X122131891Y-138417430D01*
X122407390Y-138303596D01*
X122618356Y-138092999D01*
X122732670Y-137817699D01*
X122732930Y-137519609D01*
X122642182Y-137299984D01*
X122654745Y-137294794D01*
X122865711Y-137084197D01*
X122980025Y-136808897D01*
X122980285Y-136510807D01*
X122944169Y-136423400D01*
X123220038Y-136423400D01*
X123253500Y-136409539D01*
X123286962Y-136423400D01*
X123448638Y-136423400D01*
X123855038Y-136423400D01*
X124004407Y-136361529D01*
X124118729Y-136247207D01*
X124180600Y-136097838D01*
X124180600Y-135936162D01*
X124180600Y-134666162D01*
X124118729Y-134516793D01*
X124104400Y-134502464D01*
X124104400Y-134302500D01*
X124063797Y-134098377D01*
X124063797Y-134098376D01*
X124017483Y-134029063D01*
X123948171Y-133925329D01*
X123948167Y-133925326D01*
X123567171Y-133544329D01*
X123394123Y-133428703D01*
X123190000Y-133388100D01*
X121315441Y-133388100D01*
X120836671Y-132909329D01*
X120663623Y-132793703D01*
X120459500Y-132753100D01*
X119316500Y-132753100D01*
X119112376Y-132793703D01*
X119043063Y-132840016D01*
X118939329Y-132909329D01*
X118939326Y-132909332D01*
X118143058Y-133705600D01*
X116611400Y-133705600D01*
X116611400Y-133523162D01*
X116549529Y-133373793D01*
X116435207Y-133259471D01*
X116285838Y-133197600D01*
X116124162Y-133197600D01*
X115390704Y-133197600D01*
X114959653Y-132766549D01*
X114935915Y-132750688D01*
X115390704Y-132295900D01*
X115396838Y-132295900D01*
X116285838Y-132295900D01*
X116300814Y-132289696D01*
X116332000Y-132295900D01*
X117602000Y-132295900D01*
X117806123Y-132255297D01*
X117979171Y-132139671D01*
X118741171Y-131377671D01*
X118856797Y-131204623D01*
X118879716Y-131089400D01*
X118879717Y-131089400D01*
X118902038Y-131089400D01*
X119308438Y-131089400D01*
X119354600Y-131070278D01*
X119400762Y-131089400D01*
X119562438Y-131089400D01*
X119968838Y-131089400D01*
X120002300Y-131075539D01*
X120035762Y-131089400D01*
X120197438Y-131089400D01*
X120603838Y-131089400D01*
X120650000Y-131070278D01*
X120696162Y-131089400D01*
X120857838Y-131089400D01*
X121264238Y-131089400D01*
X121310400Y-131070278D01*
X121356562Y-131089400D01*
X121518238Y-131089400D01*
X121924638Y-131089400D01*
X121958100Y-131075539D01*
X121991562Y-131089400D01*
X122153238Y-131089400D01*
X122559638Y-131089400D01*
X122605800Y-131070278D01*
X122651962Y-131089400D01*
X122813638Y-131089400D01*
X122912095Y-131089400D01*
X123022489Y-131199794D01*
X123246543Y-131292600D01*
X123317000Y-131292600D01*
X123469400Y-131140200D01*
X123469400Y-130927536D01*
X123483729Y-130913207D01*
X123545600Y-130763838D01*
X123545600Y-130602162D01*
X123545600Y-129875600D01*
X123672600Y-129875600D01*
X123672600Y-129895600D01*
X124231400Y-129895600D01*
X124383800Y-129743200D01*
X124383800Y-129534257D01*
X124383800Y-129291743D01*
X124339337Y-129184400D01*
X125349000Y-129184400D01*
X125553123Y-129143797D01*
X125726171Y-129028171D01*
X126509741Y-128244600D01*
X127919038Y-128244600D01*
X128068407Y-128182729D01*
X128182729Y-128068407D01*
X128244600Y-127919038D01*
X128244600Y-127757362D01*
X128244600Y-126149844D01*
X128321600Y-126536949D01*
X128321600Y-127000000D01*
X128330369Y-127044089D01*
X128330370Y-127089039D01*
X128485046Y-127866646D01*
X128485046Y-127866652D01*
X128553194Y-128031175D01*
X128993676Y-128690403D01*
X129119597Y-128816324D01*
X129778821Y-129256803D01*
X129778824Y-129256806D01*
X129778825Y-129256806D01*
X129827012Y-129276765D01*
X129943348Y-129324954D01*
X129943353Y-129324954D01*
X130720960Y-129479630D01*
X130765910Y-129479630D01*
X130810000Y-129488400D01*
X131527050Y-129488400D01*
X132171533Y-129616595D01*
X132679794Y-129956205D01*
X133019404Y-130464466D01*
X133147600Y-131108949D01*
X133147600Y-135509000D01*
X133147600Y-175610390D01*
X133147600Y-175610390D01*
G37*
X133147600Y-175610390D02*
X133057733Y-176277367D01*
X132749712Y-176807158D01*
X132308600Y-177143515D01*
X132308600Y-176179038D01*
X132308600Y-176017362D01*
X132308600Y-174340962D01*
X132246729Y-174191593D01*
X132132407Y-174077271D01*
X131983038Y-174015400D01*
X131821362Y-174015400D01*
X131458600Y-174015400D01*
X131458600Y-170268487D01*
X131282920Y-169843308D01*
X130957903Y-169517724D01*
X130911600Y-169498497D01*
X130911600Y-168956844D01*
X130956192Y-168938420D01*
X131281776Y-168613403D01*
X131458199Y-168188531D01*
X131458600Y-167728487D01*
X131458600Y-163918487D01*
X131282920Y-163493308D01*
X130957903Y-163167724D01*
X130911600Y-163148497D01*
X130911600Y-162606844D01*
X130956192Y-162588420D01*
X131281776Y-162263403D01*
X131458199Y-161838531D01*
X131458600Y-161378487D01*
X131458600Y-157568487D01*
X131282920Y-157143308D01*
X130957903Y-156817724D01*
X130911600Y-156798497D01*
X130911600Y-156256844D01*
X130956192Y-156238420D01*
X131281776Y-155913403D01*
X131458199Y-155488531D01*
X131458600Y-155028487D01*
X131458600Y-151218487D01*
X131282920Y-150793308D01*
X130957903Y-150467724D01*
X130911600Y-150448497D01*
X130911600Y-149906844D01*
X130956192Y-149888420D01*
X131281776Y-149563403D01*
X131458199Y-149138531D01*
X131458600Y-148678487D01*
X131458600Y-144868487D01*
X131282920Y-144443308D01*
X130957903Y-144117724D01*
X130911600Y-144098497D01*
X130911600Y-143556844D01*
X130956192Y-143538420D01*
X131281776Y-143213403D01*
X131458199Y-142788531D01*
X131458600Y-142328487D01*
X131458600Y-138518487D01*
X131282920Y-138093308D01*
X130957903Y-137767724D01*
X130911600Y-137748497D01*
X130911600Y-137206844D01*
X130956192Y-137188420D01*
X131281776Y-136863403D01*
X131458199Y-136438531D01*
X131458600Y-135978487D01*
X131282920Y-135553308D01*
X130957903Y-135227724D01*
X130733800Y-135134667D01*
X130733800Y-133039457D01*
X130733800Y-132796943D01*
X130733800Y-132384800D01*
X130733800Y-131775200D01*
X130733800Y-131363057D01*
X130733800Y-131120543D01*
X130640994Y-130896489D01*
X130469511Y-130725006D01*
X130245457Y-130632200D01*
X129590800Y-130632200D01*
X129438400Y-130784600D01*
X129438400Y-131927600D01*
X130581400Y-131927600D01*
X130733800Y-131775200D01*
X130733800Y-132384800D01*
X130581400Y-132232400D01*
X129438400Y-132232400D01*
X129438400Y-133375400D01*
X129590800Y-133527800D01*
X130245457Y-133527800D01*
X130469511Y-133434994D01*
X130640994Y-133263511D01*
X130733800Y-133039457D01*
X130733800Y-135134667D01*
X130533031Y-135051301D01*
X130072987Y-135050900D01*
X129647808Y-135226580D01*
X129322224Y-135551597D01*
X129145801Y-135976469D01*
X129145400Y-136436513D01*
X129321080Y-136861692D01*
X129646097Y-137187276D01*
X129692400Y-137206502D01*
X129692400Y-137748155D01*
X129647808Y-137766580D01*
X129322224Y-138091597D01*
X129145801Y-138516469D01*
X129145400Y-138976513D01*
X129321080Y-139401692D01*
X129646097Y-139727276D01*
X130070969Y-139903699D01*
X130531013Y-139904100D01*
X130956192Y-139728420D01*
X131281776Y-139403403D01*
X131458199Y-138978531D01*
X131458600Y-138518487D01*
X131458600Y-142328487D01*
X131282920Y-141903308D01*
X130957903Y-141577724D01*
X130533031Y-141401301D01*
X130072987Y-141400900D01*
X129647808Y-141576580D01*
X129322224Y-141901597D01*
X129145801Y-142326469D01*
X129145400Y-142786513D01*
X129321080Y-143211692D01*
X129646097Y-143537276D01*
X129692400Y-143556502D01*
X129692400Y-144098155D01*
X129647808Y-144116580D01*
X129322224Y-144441597D01*
X129145801Y-144866469D01*
X129145400Y-145326513D01*
X129321080Y-145751692D01*
X129646097Y-146077276D01*
X130070969Y-146253699D01*
X130531013Y-146254100D01*
X130956192Y-146078420D01*
X131281776Y-145753403D01*
X131458199Y-145328531D01*
X131458600Y-144868487D01*
X131458600Y-148678487D01*
X131282920Y-148253308D01*
X130957903Y-147927724D01*
X130533031Y-147751301D01*
X130072987Y-147750900D01*
X129647808Y-147926580D01*
X129322224Y-148251597D01*
X129145801Y-148676469D01*
X129145400Y-149136513D01*
X129321080Y-149561692D01*
X129646097Y-149887276D01*
X129692400Y-149906502D01*
X129692400Y-150448155D01*
X129647808Y-150466580D01*
X129322224Y-150791597D01*
X129145801Y-151216469D01*
X129145400Y-151676513D01*
X129321080Y-152101692D01*
X129646097Y-152427276D01*
X130070969Y-152603699D01*
X130531013Y-152604100D01*
X130956192Y-152428420D01*
X131281776Y-152103403D01*
X131458199Y-151678531D01*
X131458600Y-151218487D01*
X131458600Y-155028487D01*
X131282920Y-154603308D01*
X130957903Y-154277724D01*
X130533031Y-154101301D01*
X130072987Y-154100900D01*
X129661277Y-154271014D01*
X129133600Y-153743337D01*
X129133600Y-133375400D01*
X129133600Y-132232400D01*
X129133600Y-131927600D01*
X129133600Y-130784600D01*
X128981200Y-130632200D01*
X128326543Y-130632200D01*
X128102489Y-130725006D01*
X127931006Y-130896489D01*
X127838200Y-131120543D01*
X127838200Y-131363057D01*
X127838200Y-131775200D01*
X127990600Y-131927600D01*
X129133600Y-131927600D01*
X129133600Y-132232400D01*
X127990600Y-132232400D01*
X127838200Y-132384800D01*
X127838200Y-132796943D01*
X127838200Y-133039457D01*
X127931006Y-133263511D01*
X128102489Y-133434994D01*
X128326543Y-133527800D01*
X128981200Y-133527800D01*
X129133600Y-133375400D01*
X129133600Y-153743337D01*
X128320800Y-152930537D01*
X128320800Y-147193000D01*
X128278265Y-146979157D01*
X128278264Y-146979156D01*
X128157131Y-146797869D01*
X127706120Y-146346858D01*
X127706120Y-145650392D01*
X127644249Y-145501023D01*
X127529927Y-145386701D01*
X127380558Y-145324830D01*
X127218882Y-145324830D01*
X127084142Y-145324830D01*
X126017181Y-144257869D01*
X125835894Y-144136736D01*
X125622050Y-144094200D01*
X124383800Y-144094200D01*
X124383800Y-130804257D01*
X124383800Y-130561743D01*
X124383800Y-130352800D01*
X124231400Y-130200400D01*
X123672600Y-130200400D01*
X123672600Y-131140200D01*
X123825000Y-131292600D01*
X123895457Y-131292600D01*
X124119511Y-131199794D01*
X124290994Y-131028311D01*
X124383800Y-130804257D01*
X124383800Y-144094200D01*
X118578065Y-144094200D01*
X118555096Y-144038610D01*
X118344499Y-143827644D01*
X118069199Y-143713330D01*
X117771109Y-143713070D01*
X117495610Y-143826904D01*
X117284644Y-144037501D01*
X117170330Y-144312801D01*
X117170077Y-144602200D01*
X117086921Y-144602200D01*
X117010999Y-144526144D01*
X116735699Y-144411830D01*
X116437609Y-144411570D01*
X116162110Y-144525404D01*
X115951144Y-144736001D01*
X115836830Y-145011301D01*
X115836570Y-145309391D01*
X115884418Y-145425192D01*
X115845927Y-145386701D01*
X115696558Y-145324830D01*
X115534882Y-145324830D01*
X114935442Y-145324830D01*
X114786073Y-145386701D01*
X114681000Y-145491774D01*
X114575927Y-145386701D01*
X114426558Y-145324830D01*
X114264882Y-145324830D01*
X113703100Y-145324830D01*
X113703100Y-135458200D01*
X113703100Y-134454900D01*
X112953800Y-134454900D01*
X112801400Y-134607300D01*
X112801400Y-134879743D01*
X112801400Y-135122257D01*
X112894206Y-135346311D01*
X113065689Y-135517794D01*
X113289743Y-135610600D01*
X113550700Y-135610600D01*
X113703100Y-135458200D01*
X113703100Y-145324830D01*
X113665442Y-145324830D01*
X113516073Y-145386701D01*
X113401751Y-145501023D01*
X113339880Y-145650392D01*
X113339880Y-145812068D01*
X113339880Y-145886736D01*
X113322100Y-145898616D01*
X113228590Y-145961098D01*
X113169702Y-145961098D01*
X113322100Y-145808700D01*
X113322100Y-145547743D01*
X113229294Y-145323689D01*
X113057811Y-145152206D01*
X112833757Y-145059400D01*
X112591243Y-145059400D01*
X112318800Y-145059400D01*
X112166400Y-145211800D01*
X112166400Y-145961100D01*
X112186400Y-145961100D01*
X112186400Y-146265900D01*
X112166400Y-146265900D01*
X112166400Y-146285900D01*
X111861600Y-146285900D01*
X111861600Y-146265900D01*
X111861600Y-145961100D01*
X111861600Y-145211800D01*
X111709200Y-145059400D01*
X111436757Y-145059400D01*
X111194243Y-145059400D01*
X110970189Y-145152206D01*
X110798706Y-145323689D01*
X110705900Y-145547743D01*
X110705900Y-145808700D01*
X110858300Y-145961100D01*
X111861600Y-145961100D01*
X111861600Y-146265900D01*
X110858300Y-146265900D01*
X110705900Y-146418300D01*
X110705900Y-146679257D01*
X110798706Y-146903311D01*
X110970189Y-147074794D01*
X111194243Y-147167600D01*
X111234662Y-147167600D01*
X111085293Y-147229471D01*
X110970971Y-147343793D01*
X110909100Y-147493162D01*
X110909100Y-147654838D01*
X110909100Y-148543838D01*
X110970971Y-148693207D01*
X111085293Y-148807529D01*
X111234662Y-148869400D01*
X111396338Y-148869400D01*
X111404400Y-148869400D01*
X111404400Y-149326600D01*
X111234662Y-149326600D01*
X111085293Y-149388471D01*
X110970971Y-149502793D01*
X110909100Y-149652162D01*
X110909100Y-149813838D01*
X110909100Y-150702838D01*
X110970971Y-150852207D01*
X111085293Y-150966529D01*
X111234662Y-151028400D01*
X111194243Y-151028400D01*
X110970189Y-151121206D01*
X110798706Y-151292689D01*
X110705900Y-151516743D01*
X110705900Y-151777700D01*
X110858300Y-151930100D01*
X111861600Y-151930100D01*
X111861600Y-151180800D01*
X111709200Y-151028400D01*
X112066296Y-151028400D01*
X112192548Y-151154652D01*
X112166400Y-151180800D01*
X112166400Y-151930100D01*
X112186400Y-151930100D01*
X112186400Y-152234900D01*
X112166400Y-152234900D01*
X112166400Y-152984200D01*
X112318800Y-153136600D01*
X112591243Y-153136600D01*
X112610900Y-153136600D01*
X112610900Y-154266900D01*
X112591243Y-154266900D01*
X112318800Y-154266900D01*
X112166400Y-154419300D01*
X112166400Y-155168600D01*
X112186400Y-155168600D01*
X112186400Y-155473400D01*
X112166400Y-155473400D01*
X112166400Y-155493400D01*
X111861600Y-155493400D01*
X111861600Y-155473400D01*
X111861600Y-155168600D01*
X111861600Y-154419300D01*
X111861600Y-152984200D01*
X111861600Y-152234900D01*
X110858300Y-152234900D01*
X110705900Y-152387300D01*
X110705900Y-152648257D01*
X110798706Y-152872311D01*
X110970189Y-153043794D01*
X111194243Y-153136600D01*
X111436757Y-153136600D01*
X111709200Y-153136600D01*
X111861600Y-152984200D01*
X111861600Y-154419300D01*
X111709200Y-154266900D01*
X111436757Y-154266900D01*
X111194243Y-154266900D01*
X110970189Y-154359706D01*
X110798706Y-154531189D01*
X110705900Y-154755243D01*
X110705900Y-155016200D01*
X110858300Y-155168600D01*
X111861600Y-155168600D01*
X111861600Y-155473400D01*
X110858300Y-155473400D01*
X110705900Y-155625800D01*
X110705900Y-155886757D01*
X110798706Y-156110811D01*
X110970189Y-156282294D01*
X111194243Y-156375100D01*
X111234662Y-156375100D01*
X111085293Y-156436971D01*
X110970971Y-156551293D01*
X110909100Y-156700662D01*
X110909100Y-156862338D01*
X110909100Y-157751338D01*
X110970971Y-157900707D01*
X111085293Y-158015029D01*
X111234662Y-158076900D01*
X111396338Y-158076900D01*
X111404400Y-158076900D01*
X111404400Y-158534100D01*
X111234662Y-158534100D01*
X111085293Y-158595971D01*
X110970971Y-158710293D01*
X110909100Y-158859662D01*
X110909100Y-159021338D01*
X110909100Y-159910338D01*
X110970971Y-160059707D01*
X111085293Y-160174029D01*
X111234662Y-160235900D01*
X111194243Y-160235900D01*
X110970189Y-160328706D01*
X110798706Y-160500189D01*
X110705900Y-160724243D01*
X110705900Y-160985200D01*
X110858300Y-161137600D01*
X111861600Y-161137600D01*
X111861600Y-160388300D01*
X111709200Y-160235900D01*
X112318800Y-160235900D01*
X112166400Y-160388300D01*
X112166400Y-161137600D01*
X113169700Y-161137600D01*
X113322100Y-160985200D01*
X113322100Y-160724243D01*
X113229294Y-160500189D01*
X113057811Y-160328706D01*
X112833757Y-160235900D01*
X112793338Y-160235900D01*
X112942707Y-160174029D01*
X113057029Y-160059707D01*
X113118900Y-159910338D01*
X113118900Y-159748662D01*
X113118900Y-158859662D01*
X113057029Y-158710293D01*
X112942707Y-158595971D01*
X112793338Y-158534100D01*
X112631662Y-158534100D01*
X112623600Y-158534100D01*
X112623600Y-158076900D01*
X112793338Y-158076900D01*
X112942707Y-158015029D01*
X113057029Y-157900707D01*
X113118900Y-157751338D01*
X113118900Y-157589662D01*
X113118900Y-156983204D01*
X113467689Y-156634415D01*
X113516073Y-156682799D01*
X113665442Y-156744670D01*
X113827118Y-156744670D01*
X114426558Y-156744670D01*
X114575927Y-156682799D01*
X114681000Y-156577726D01*
X114786073Y-156682799D01*
X114935442Y-156744670D01*
X114988566Y-156744670D01*
X115976400Y-157732504D01*
X115976400Y-157791789D01*
X115951144Y-157817001D01*
X115836830Y-158092301D01*
X115836570Y-158390391D01*
X115950404Y-158665890D01*
X115976400Y-158691931D01*
X115976400Y-159211640D01*
X115951596Y-159151610D01*
X115740999Y-158940644D01*
X115465699Y-158826330D01*
X115167609Y-158826070D01*
X114892110Y-158939904D01*
X114681144Y-159150501D01*
X114680951Y-159150964D01*
X114470999Y-158940644D01*
X114195699Y-158826330D01*
X113897609Y-158826070D01*
X113622110Y-158939904D01*
X113411144Y-159150501D01*
X113296830Y-159425801D01*
X113296570Y-159723891D01*
X113410404Y-159999390D01*
X113427628Y-160016645D01*
X113401751Y-160042523D01*
X113339880Y-160191892D01*
X113339880Y-160353568D01*
X113339880Y-161753108D01*
X113401751Y-161902477D01*
X113516073Y-162016799D01*
X113665442Y-162078670D01*
X113827118Y-162078670D01*
X114426558Y-162078670D01*
X114575927Y-162016799D01*
X114681000Y-161911726D01*
X114786073Y-162016799D01*
X114935442Y-162078670D01*
X115097118Y-162078670D01*
X115696558Y-162078670D01*
X115806099Y-162033296D01*
X115608849Y-162230546D01*
X115608846Y-162230549D01*
X115584293Y-162255101D01*
X115548609Y-162255070D01*
X115273110Y-162368904D01*
X115062144Y-162579501D01*
X114947830Y-162854801D01*
X114947570Y-163152891D01*
X115061404Y-163428390D01*
X115272001Y-163639356D01*
X115547301Y-163753670D01*
X115845391Y-163753930D01*
X116120890Y-163640096D01*
X116331856Y-163429499D01*
X116446170Y-163154199D01*
X116446202Y-163117402D01*
X116470951Y-163092654D01*
X116470951Y-163092653D01*
X116470953Y-163092650D01*
X117017052Y-162546553D01*
X117017052Y-162546552D01*
X117149197Y-162348784D01*
X117185944Y-162164039D01*
X117210969Y-162189064D01*
X117435023Y-162281870D01*
X117553740Y-162281870D01*
X117706140Y-162129470D01*
X117706140Y-161124900D01*
X117683600Y-161124900D01*
X117683600Y-160820100D01*
X117706140Y-160820100D01*
X117706140Y-159815530D01*
X117553740Y-159663130D01*
X117435023Y-159663130D01*
X117210969Y-159755936D01*
X117195600Y-159771305D01*
X117195600Y-158692210D01*
X117220856Y-158666999D01*
X117335170Y-158391699D01*
X117335430Y-158093609D01*
X117221596Y-157818110D01*
X117195600Y-157792068D01*
X117195600Y-157480000D01*
X117149197Y-157246716D01*
X117017052Y-157048948D01*
X116712774Y-156744670D01*
X116966558Y-156744670D01*
X117115927Y-156682799D01*
X117221000Y-156577726D01*
X117326073Y-156682799D01*
X117475442Y-156744670D01*
X117637118Y-156744670D01*
X118236558Y-156744670D01*
X118385927Y-156682799D01*
X118500249Y-156568477D01*
X118562120Y-156419108D01*
X118562120Y-156257432D01*
X118562120Y-154857892D01*
X118500249Y-154708523D01*
X118474526Y-154682800D01*
X118490856Y-154666499D01*
X118605170Y-154391199D01*
X118605430Y-154093109D01*
X118491596Y-153817610D01*
X118280999Y-153606644D01*
X118005699Y-153492330D01*
X117707609Y-153492070D01*
X117432110Y-153605904D01*
X117221144Y-153816501D01*
X117220951Y-153816964D01*
X117010999Y-153606644D01*
X116735699Y-153492330D01*
X116437609Y-153492070D01*
X116162110Y-153605904D01*
X115951144Y-153816501D01*
X115836830Y-154091801D01*
X115836570Y-154389891D01*
X115950404Y-154665390D01*
X115967628Y-154682645D01*
X115951000Y-154699274D01*
X115845927Y-154594201D01*
X115696558Y-154532330D01*
X115534882Y-154532330D01*
X114935442Y-154532330D01*
X114786073Y-154594201D01*
X114681000Y-154699274D01*
X114575927Y-154594201D01*
X114426558Y-154532330D01*
X114264882Y-154532330D01*
X113830100Y-154532330D01*
X113830100Y-152871170D01*
X114426558Y-152871170D01*
X114575927Y-152809299D01*
X114681000Y-152704226D01*
X114786073Y-152809299D01*
X114935442Y-152871170D01*
X115097118Y-152871170D01*
X115696558Y-152871170D01*
X115845927Y-152809299D01*
X115951000Y-152704226D01*
X116056073Y-152809299D01*
X116205442Y-152871170D01*
X116367118Y-152871170D01*
X116966558Y-152871170D01*
X117061322Y-152831917D01*
X117210969Y-152981564D01*
X117435023Y-153074370D01*
X117553740Y-153074370D01*
X117706140Y-152921970D01*
X117706140Y-151917400D01*
X117683600Y-151917400D01*
X117683600Y-151612600D01*
X117706140Y-151612600D01*
X117706140Y-150608030D01*
X117553740Y-150455630D01*
X117435023Y-150455630D01*
X117210969Y-150548436D01*
X117121424Y-150637980D01*
X117017052Y-150481778D01*
X116624100Y-150088826D01*
X116624100Y-149098000D01*
X116577697Y-148864716D01*
X116470442Y-148704199D01*
X116734391Y-148704430D01*
X117009890Y-148590596D01*
X117220856Y-148379999D01*
X117221048Y-148379535D01*
X117431001Y-148589856D01*
X117706301Y-148704170D01*
X118004391Y-148704430D01*
X118279890Y-148590596D01*
X118490856Y-148379999D01*
X118605170Y-148104699D01*
X118605430Y-147806609D01*
X118491596Y-147531110D01*
X118465600Y-147505068D01*
X118465600Y-147395626D01*
X118500249Y-147360977D01*
X118562120Y-147211608D01*
X118562120Y-147049932D01*
X118562120Y-145719800D01*
X119849900Y-145719800D01*
X119849900Y-145808700D01*
X120002300Y-145961100D01*
X121005600Y-145961100D01*
X121005600Y-145941100D01*
X121310400Y-145941100D01*
X121310400Y-145961100D01*
X121330400Y-145961100D01*
X121330400Y-146265900D01*
X121310400Y-146265900D01*
X121310400Y-146285900D01*
X121005600Y-146285900D01*
X121005600Y-146265900D01*
X120002300Y-146265900D01*
X119849900Y-146418300D01*
X119849900Y-146679257D01*
X119942706Y-146903311D01*
X120114189Y-147074794D01*
X120338243Y-147167600D01*
X120378662Y-147167600D01*
X120229293Y-147229471D01*
X120114971Y-147343793D01*
X120053100Y-147493162D01*
X120053100Y-147654838D01*
X120053100Y-148543838D01*
X120114971Y-148693207D01*
X120229293Y-148807529D01*
X120378662Y-148869400D01*
X120540338Y-148869400D01*
X120548400Y-148869400D01*
X120548400Y-149326600D01*
X120378662Y-149326600D01*
X120229293Y-149388471D01*
X120114971Y-149502793D01*
X120053100Y-149652162D01*
X120053100Y-149813838D01*
X120053100Y-150702838D01*
X120114971Y-150852207D01*
X120229293Y-150966529D01*
X120378662Y-151028400D01*
X120338243Y-151028400D01*
X120114189Y-151121206D01*
X119942706Y-151292689D01*
X119849900Y-151516743D01*
X119849900Y-151777700D01*
X120002300Y-151930100D01*
X121005600Y-151930100D01*
X121005600Y-151180800D01*
X120853200Y-151028400D01*
X121462800Y-151028400D01*
X121310400Y-151180800D01*
X121310400Y-151930100D01*
X122313700Y-151930100D01*
X122466100Y-151777700D01*
X122466100Y-151516743D01*
X122373294Y-151292689D01*
X122201811Y-151121206D01*
X121977757Y-151028400D01*
X121937338Y-151028400D01*
X122086707Y-150966529D01*
X122201029Y-150852207D01*
X122262900Y-150702838D01*
X122262900Y-150541162D01*
X122262900Y-149652162D01*
X122201029Y-149502793D01*
X122086707Y-149388471D01*
X121937338Y-149326600D01*
X121775662Y-149326600D01*
X121767600Y-149326600D01*
X121767600Y-148869400D01*
X121937338Y-148869400D01*
X122086707Y-148807529D01*
X122201029Y-148693207D01*
X122262900Y-148543838D01*
X122262900Y-148382162D01*
X122262900Y-147775704D01*
X122611689Y-147426915D01*
X122660073Y-147475299D01*
X122809442Y-147537170D01*
X122971118Y-147537170D01*
X123570558Y-147537170D01*
X123719927Y-147475299D01*
X123825000Y-147370226D01*
X123884945Y-147430171D01*
X123896803Y-147489784D01*
X124028948Y-147687552D01*
X125120400Y-148779004D01*
X125120400Y-150004140D01*
X125095596Y-149944110D01*
X124884999Y-149733144D01*
X124609699Y-149618830D01*
X124311609Y-149618570D01*
X124036110Y-149732404D01*
X123825144Y-149943001D01*
X123824951Y-149943464D01*
X123614999Y-149733144D01*
X123339699Y-149618830D01*
X123041609Y-149618570D01*
X122766110Y-149732404D01*
X122555144Y-149943001D01*
X122440830Y-150218301D01*
X122440570Y-150516391D01*
X122554404Y-150791890D01*
X122571628Y-150809145D01*
X122545751Y-150835023D01*
X122483880Y-150984392D01*
X122483880Y-151146068D01*
X122483880Y-152545608D01*
X122545751Y-152694977D01*
X122660073Y-152809299D01*
X122809442Y-152871170D01*
X122971118Y-152871170D01*
X123570558Y-152871170D01*
X123719927Y-152809299D01*
X123825000Y-152704226D01*
X123930073Y-152809299D01*
X124079442Y-152871170D01*
X124241118Y-152871170D01*
X124840558Y-152871170D01*
X124989927Y-152809299D01*
X125095000Y-152704226D01*
X125120400Y-152729626D01*
X125120400Y-152838789D01*
X125095144Y-152864001D01*
X124980830Y-153139301D01*
X124980570Y-153437391D01*
X125094404Y-153712890D01*
X125305001Y-153923856D01*
X125580301Y-154038170D01*
X125878391Y-154038430D01*
X126017068Y-153981129D01*
X126026784Y-153979197D01*
X126034948Y-153973741D01*
X126153890Y-153924596D01*
X126364856Y-153713999D01*
X126479170Y-153438699D01*
X126479430Y-153140609D01*
X126425844Y-153010921D01*
X126579023Y-153074370D01*
X126697740Y-153074370D01*
X126850140Y-152921970D01*
X126850140Y-151917400D01*
X126827600Y-151917400D01*
X126827600Y-151612600D01*
X126850140Y-151612600D01*
X126850140Y-150608030D01*
X126697740Y-150455630D01*
X126579023Y-150455630D01*
X126354969Y-150548436D01*
X126339600Y-150563805D01*
X126339600Y-148766548D01*
X126342301Y-148767670D01*
X126640391Y-148767930D01*
X126915890Y-148654096D01*
X127126856Y-148443499D01*
X127203200Y-148259641D01*
X127203200Y-150554690D01*
X127149860Y-150608030D01*
X127149860Y-151612600D01*
X127172400Y-151612600D01*
X127172400Y-151917400D01*
X127149860Y-151917400D01*
X127149860Y-152921970D01*
X127203200Y-152975310D01*
X127203200Y-153162000D01*
X127245736Y-153375844D01*
X127366869Y-153557131D01*
X129145531Y-155335794D01*
X129145400Y-155486513D01*
X129321080Y-155911692D01*
X129646097Y-156237276D01*
X129692400Y-156256502D01*
X129692400Y-156798155D01*
X129647808Y-156816580D01*
X129322224Y-157141597D01*
X129145801Y-157566469D01*
X129145400Y-158026513D01*
X129321080Y-158451692D01*
X129646097Y-158777276D01*
X130070969Y-158953699D01*
X130531013Y-158954100D01*
X130956192Y-158778420D01*
X131281776Y-158453403D01*
X131458199Y-158028531D01*
X131458600Y-157568487D01*
X131458600Y-161378487D01*
X131282920Y-160953308D01*
X130957903Y-160627724D01*
X130533031Y-160451301D01*
X130072987Y-160450900D01*
X129647808Y-160626580D01*
X129322224Y-160951597D01*
X129145801Y-161376469D01*
X129145400Y-161836513D01*
X129321080Y-162261692D01*
X129646097Y-162587276D01*
X129692400Y-162606502D01*
X129692400Y-163148155D01*
X129647808Y-163166580D01*
X129322224Y-163491597D01*
X129145801Y-163916469D01*
X129145400Y-164376513D01*
X129321080Y-164801692D01*
X129646097Y-165127276D01*
X130070969Y-165303699D01*
X130531013Y-165304100D01*
X130956192Y-165128420D01*
X131281776Y-164803403D01*
X131458199Y-164378531D01*
X131458600Y-163918487D01*
X131458600Y-167728487D01*
X131282920Y-167303308D01*
X130957903Y-166977724D01*
X130533031Y-166801301D01*
X130072987Y-166800900D01*
X129647808Y-166976580D01*
X129322224Y-167301597D01*
X129145801Y-167726469D01*
X129145400Y-168186513D01*
X129321080Y-168611692D01*
X129646097Y-168937276D01*
X129692400Y-168956502D01*
X129692400Y-169498155D01*
X129647808Y-169516580D01*
X129322224Y-169841597D01*
X129145801Y-170266469D01*
X129145400Y-170726513D01*
X129321080Y-171151692D01*
X129646097Y-171477276D01*
X130070969Y-171653699D01*
X130531013Y-171654100D01*
X130956192Y-171478420D01*
X131281776Y-171153403D01*
X131458199Y-170728531D01*
X131458600Y-170268487D01*
X131458600Y-174015400D01*
X130144962Y-174015400D01*
X129995593Y-174077271D01*
X129881271Y-174191593D01*
X129819400Y-174340962D01*
X129819400Y-174502638D01*
X129819400Y-174563625D01*
X129801439Y-174520264D01*
X129561582Y-174437945D01*
X129346055Y-174653471D01*
X129346055Y-174222418D01*
X129263736Y-173982561D01*
X128718572Y-173796715D01*
X128143787Y-173833642D01*
X127784264Y-173982561D01*
X127701945Y-174222418D01*
X128524000Y-175044474D01*
X129346055Y-174222418D01*
X129346055Y-174653471D01*
X128739526Y-175260000D01*
X129561582Y-176082055D01*
X129801439Y-175999736D01*
X129819400Y-175947048D01*
X129819400Y-176179038D01*
X129881271Y-176328407D01*
X129995593Y-176442729D01*
X130144962Y-176504600D01*
X130306638Y-176504600D01*
X131983038Y-176504600D01*
X132132407Y-176442729D01*
X132246729Y-176328407D01*
X132308600Y-176179038D01*
X132308600Y-177143515D01*
X132262396Y-177178747D01*
X131639618Y-177343600D01*
X129346055Y-177343600D01*
X129346055Y-176297582D01*
X128524000Y-175475526D01*
X128308474Y-175691052D01*
X128308474Y-175260000D01*
X127486418Y-174437945D01*
X127254000Y-174517710D01*
X127021582Y-174437945D01*
X126806055Y-174653471D01*
X126806055Y-174222418D01*
X126723736Y-173982561D01*
X126178572Y-173796715D01*
X125603787Y-173833642D01*
X125244264Y-173982561D01*
X125161945Y-174222418D01*
X125984000Y-175044474D01*
X126806055Y-174222418D01*
X126806055Y-174653471D01*
X126199526Y-175260000D01*
X127021582Y-176082055D01*
X127254000Y-176002289D01*
X127486418Y-176082055D01*
X128308474Y-175260000D01*
X128308474Y-175691052D01*
X127701945Y-176297582D01*
X127784264Y-176537439D01*
X128329428Y-176723285D01*
X128904213Y-176686358D01*
X129263736Y-176537439D01*
X129346055Y-176297582D01*
X129346055Y-177343600D01*
X126806055Y-177343600D01*
X126806055Y-176297582D01*
X125984000Y-175475526D01*
X125768474Y-175691052D01*
X125768474Y-175260000D01*
X124946418Y-174437945D01*
X124706561Y-174520264D01*
X124606403Y-174814067D01*
X124499736Y-174555912D01*
X124149930Y-174205495D01*
X123692652Y-174015617D01*
X123197520Y-174015185D01*
X122739912Y-174204264D01*
X122466100Y-174477598D01*
X122466100Y-152648257D01*
X122466100Y-152387300D01*
X122313700Y-152234900D01*
X121310400Y-152234900D01*
X121310400Y-152984200D01*
X121462800Y-153136600D01*
X121735243Y-153136600D01*
X121977757Y-153136600D01*
X122201811Y-153043794D01*
X122373294Y-152872311D01*
X122466100Y-152648257D01*
X122466100Y-174477598D01*
X122389495Y-174554070D01*
X122199617Y-175011348D01*
X122199185Y-175506480D01*
X122388264Y-175964088D01*
X122738070Y-176314505D01*
X123195348Y-176504383D01*
X123690480Y-176504815D01*
X124148088Y-176315736D01*
X124498505Y-175965930D01*
X124595651Y-175731975D01*
X124706561Y-175999736D01*
X124946418Y-176082055D01*
X125768474Y-175260000D01*
X125768474Y-175691052D01*
X125161945Y-176297582D01*
X125244264Y-176537439D01*
X125789428Y-176723285D01*
X126364213Y-176686358D01*
X126723736Y-176537439D01*
X126806055Y-176297582D01*
X126806055Y-177343600D01*
X122148815Y-177343600D01*
X122148815Y-175013520D01*
X121959736Y-174555912D01*
X121609930Y-174205495D01*
X121152652Y-174015617D01*
X121005600Y-174015488D01*
X121005600Y-152984200D01*
X121005600Y-152234900D01*
X120002300Y-152234900D01*
X119849900Y-152387300D01*
X119849900Y-152648257D01*
X119942706Y-152872311D01*
X120114189Y-153043794D01*
X120338243Y-153136600D01*
X120580757Y-153136600D01*
X120853200Y-153136600D01*
X121005600Y-152984200D01*
X121005600Y-174015488D01*
X120657520Y-174015185D01*
X120199912Y-174204264D01*
X119849495Y-174554070D01*
X119659617Y-175011348D01*
X119659185Y-175506480D01*
X119848264Y-175964088D01*
X120198070Y-176314505D01*
X120655348Y-176504383D01*
X121150480Y-176504815D01*
X121608088Y-176315736D01*
X121958505Y-175965930D01*
X122148383Y-175508652D01*
X122148815Y-175013520D01*
X122148815Y-177343600D01*
X121285000Y-177343600D01*
X121158000Y-177343600D01*
X119608815Y-177343600D01*
X119608815Y-175013520D01*
X119419736Y-174555912D01*
X119069930Y-174205495D01*
X118765320Y-174079010D01*
X118765320Y-161793527D01*
X118765320Y-161551013D01*
X118765320Y-161277300D01*
X118765320Y-160667700D01*
X118765320Y-160393987D01*
X118765320Y-160151473D01*
X118765320Y-152586027D01*
X118765320Y-152343513D01*
X118765320Y-152069800D01*
X118765320Y-151460200D01*
X118765320Y-151186487D01*
X118765320Y-150943973D01*
X118672514Y-150719919D01*
X118501031Y-150548436D01*
X118276977Y-150455630D01*
X118158260Y-150455630D01*
X118005860Y-150608030D01*
X118005860Y-151612600D01*
X118612920Y-151612600D01*
X118765320Y-151460200D01*
X118765320Y-152069800D01*
X118612920Y-151917400D01*
X118005860Y-151917400D01*
X118005860Y-152921970D01*
X118158260Y-153074370D01*
X118276977Y-153074370D01*
X118501031Y-152981564D01*
X118672514Y-152810081D01*
X118765320Y-152586027D01*
X118765320Y-160151473D01*
X118672514Y-159927419D01*
X118501031Y-159755936D01*
X118276977Y-159663130D01*
X118158260Y-159663130D01*
X118005860Y-159815530D01*
X118005860Y-160820100D01*
X118612920Y-160820100D01*
X118765320Y-160667700D01*
X118765320Y-161277300D01*
X118612920Y-161124900D01*
X118005860Y-161124900D01*
X118005860Y-162129470D01*
X118158260Y-162281870D01*
X118276977Y-162281870D01*
X118501031Y-162189064D01*
X118672514Y-162017581D01*
X118765320Y-161793527D01*
X118765320Y-174079010D01*
X118612652Y-174015617D01*
X118117520Y-174015185D01*
X117659912Y-174204264D01*
X117309495Y-174554070D01*
X117119617Y-175011348D01*
X117119185Y-175506480D01*
X117308264Y-175964088D01*
X117658070Y-176314505D01*
X118115348Y-176504383D01*
X118610480Y-176504815D01*
X119068088Y-176315736D01*
X119418505Y-175965930D01*
X119608383Y-175508652D01*
X119608815Y-175013520D01*
X119608815Y-177343600D01*
X117068815Y-177343600D01*
X117068815Y-175013520D01*
X116879736Y-174555912D01*
X116529930Y-174205495D01*
X116072652Y-174015617D01*
X115577520Y-174015185D01*
X115119912Y-174204264D01*
X114769495Y-174554070D01*
X114579617Y-175011348D01*
X114579185Y-175506480D01*
X114768264Y-175964088D01*
X115118070Y-176314505D01*
X115575348Y-176504383D01*
X116070480Y-176504815D01*
X116528088Y-176315736D01*
X116878505Y-175965930D01*
X117068383Y-175508652D01*
X117068815Y-175013520D01*
X117068815Y-177343600D01*
X114528815Y-177343600D01*
X114528815Y-175013520D01*
X114339736Y-174555912D01*
X113989930Y-174205495D01*
X113532652Y-174015617D01*
X113322100Y-174015433D01*
X113322100Y-161855757D01*
X113322100Y-161594800D01*
X113169700Y-161442400D01*
X112166400Y-161442400D01*
X112166400Y-162191700D01*
X112318800Y-162344100D01*
X112591243Y-162344100D01*
X112833757Y-162344100D01*
X113057811Y-162251294D01*
X113229294Y-162079811D01*
X113322100Y-161855757D01*
X113322100Y-174015433D01*
X113037520Y-174015185D01*
X112579912Y-174204264D01*
X112229495Y-174554070D01*
X112039617Y-175011348D01*
X112039185Y-175506480D01*
X112228264Y-175964088D01*
X112578070Y-176314505D01*
X113035348Y-176504383D01*
X113530480Y-176504815D01*
X113988088Y-176315736D01*
X114338505Y-175965930D01*
X114528383Y-175508652D01*
X114528815Y-175013520D01*
X114528815Y-177343600D01*
X111861600Y-177343600D01*
X111861600Y-162191700D01*
X111861600Y-161442400D01*
X110858300Y-161442400D01*
X110705900Y-161594800D01*
X110705900Y-161855757D01*
X110798706Y-162079811D01*
X110970189Y-162251294D01*
X111194243Y-162344100D01*
X111436757Y-162344100D01*
X111709200Y-162344100D01*
X111861600Y-162191700D01*
X111861600Y-177343600D01*
X110788949Y-177343600D01*
X110144466Y-177215404D01*
X109636205Y-176875794D01*
X109296595Y-176367533D01*
X109168400Y-175723050D01*
X109168400Y-169100500D01*
X109168400Y-165608000D01*
X109168400Y-126790949D01*
X109315931Y-126049263D01*
X109710599Y-125458600D01*
X110301265Y-125063929D01*
X111042949Y-124916400D01*
X126701050Y-124916400D01*
X127345533Y-125044595D01*
X127853794Y-125384205D01*
X128193404Y-125892466D01*
X128218239Y-126017323D01*
X128182729Y-125931593D01*
X128068407Y-125817271D01*
X127919038Y-125755400D01*
X127757362Y-125755400D01*
X126080962Y-125755400D01*
X125931593Y-125817271D01*
X125817271Y-125931593D01*
X125755400Y-126080962D01*
X125755400Y-126242638D01*
X125755400Y-127490258D01*
X125128058Y-128117600D01*
X125014365Y-128117600D01*
X125164088Y-128055736D01*
X125514505Y-127705930D01*
X125704383Y-127248652D01*
X125704815Y-126753520D01*
X125515736Y-126295912D01*
X125165930Y-125945495D01*
X124708652Y-125755617D01*
X124213520Y-125755185D01*
X123755912Y-125944264D01*
X123405495Y-126294070D01*
X123215617Y-126751348D01*
X123215185Y-127246480D01*
X123391460Y-127673100D01*
X122988137Y-127673100D01*
X123164383Y-127248652D01*
X123164815Y-126753520D01*
X122975736Y-126295912D01*
X122625930Y-125945495D01*
X122168652Y-125755617D01*
X121673520Y-125755185D01*
X121215912Y-125944264D01*
X120865495Y-126294070D01*
X120675617Y-126751348D01*
X120675185Y-127246480D01*
X120820788Y-127598869D01*
X119951500Y-128468158D01*
X119913400Y-128430058D01*
X119913400Y-128126262D01*
X120084088Y-128055736D01*
X120434505Y-127705930D01*
X120624383Y-127248652D01*
X120624815Y-126753520D01*
X120435736Y-126295912D01*
X120085930Y-125945495D01*
X119628652Y-125755617D01*
X119133520Y-125755185D01*
X118675912Y-125944264D01*
X118325495Y-126294070D01*
X118135617Y-126751348D01*
X118135185Y-127246480D01*
X118253030Y-127531688D01*
X118050820Y-127329478D01*
X118084383Y-127248652D01*
X118084815Y-126753520D01*
X117895736Y-126295912D01*
X117545930Y-125945495D01*
X117088652Y-125755617D01*
X116593520Y-125755185D01*
X116135912Y-125944264D01*
X115785495Y-126294070D01*
X115595617Y-126751348D01*
X115595185Y-127246480D01*
X115784264Y-127704088D01*
X116134070Y-128054505D01*
X116286019Y-128117600D01*
X115790942Y-128117600D01*
X115361771Y-127688429D01*
X115544383Y-127248652D01*
X115544815Y-126753520D01*
X115355736Y-126295912D01*
X115005930Y-125945495D01*
X114548652Y-125755617D01*
X114053520Y-125755185D01*
X113595912Y-125944264D01*
X113245495Y-126294070D01*
X113055617Y-126751348D01*
X113055185Y-127246480D01*
X113244264Y-127704088D01*
X113594070Y-128054505D01*
X114051348Y-128244383D01*
X114409353Y-128244695D01*
X115192829Y-129028171D01*
X115365876Y-129143797D01*
X115365877Y-129143797D01*
X115570000Y-129184400D01*
X116873058Y-129184400D01*
X117119400Y-129430741D01*
X117119400Y-129493838D01*
X117119400Y-130763838D01*
X117181271Y-130913207D01*
X117295593Y-131027529D01*
X117444962Y-131089400D01*
X117520758Y-131089400D01*
X117381058Y-131229100D01*
X116611400Y-131229100D01*
X116611400Y-130411662D01*
X116549529Y-130262293D01*
X116435207Y-130147971D01*
X116285838Y-130086100D01*
X116124162Y-130086100D01*
X115235162Y-130086100D01*
X115085793Y-130147971D01*
X114971471Y-130262293D01*
X114909600Y-130411662D01*
X114909600Y-130371243D01*
X114816794Y-130147189D01*
X114645311Y-129975706D01*
X114421257Y-129882900D01*
X114160300Y-129882900D01*
X114007900Y-130035300D01*
X114007900Y-131038600D01*
X114027900Y-131038600D01*
X114027900Y-131343400D01*
X114007900Y-131343400D01*
X114007900Y-131363400D01*
X113703100Y-131363400D01*
X113703100Y-131343400D01*
X113703100Y-131038600D01*
X113703100Y-130035300D01*
X113550700Y-129882900D01*
X113289743Y-129882900D01*
X113065689Y-129975706D01*
X112894206Y-130147189D01*
X112801400Y-130371243D01*
X112801400Y-130613757D01*
X112801400Y-130886200D01*
X112953800Y-131038600D01*
X113703100Y-131038600D01*
X113703100Y-131343400D01*
X112953800Y-131343400D01*
X112801400Y-131495800D01*
X112801400Y-131768243D01*
X112801400Y-131851400D01*
X112308433Y-131851400D01*
X112273710Y-131851400D01*
X112248499Y-131826144D01*
X111973199Y-131711830D01*
X111675109Y-131711570D01*
X111399610Y-131825404D01*
X111188644Y-132036001D01*
X111074330Y-132311301D01*
X111074070Y-132609391D01*
X111187904Y-132884890D01*
X111303578Y-133000767D01*
X111188644Y-133115501D01*
X111074330Y-133390801D01*
X111074070Y-133688891D01*
X111187904Y-133964390D01*
X111398501Y-134175356D01*
X111673801Y-134289670D01*
X111971891Y-134289930D01*
X112247390Y-134176096D01*
X112458356Y-133965499D01*
X112524086Y-133807201D01*
X112801400Y-133807201D01*
X112801400Y-133997700D01*
X112953800Y-134150100D01*
X113703100Y-134150100D01*
X113703100Y-134130100D01*
X114007900Y-134130100D01*
X114007900Y-134150100D01*
X114027900Y-134150100D01*
X114027900Y-134454900D01*
X114007900Y-134454900D01*
X114007900Y-135458200D01*
X114160300Y-135610600D01*
X114421257Y-135610600D01*
X114645311Y-135517794D01*
X114816794Y-135346311D01*
X114909600Y-135122257D01*
X114909600Y-135081838D01*
X114971471Y-135231207D01*
X115085793Y-135345529D01*
X115235162Y-135407400D01*
X115396838Y-135407400D01*
X115696652Y-135407400D01*
X115760500Y-135420100D01*
X115824347Y-135407400D01*
X116285838Y-135407400D01*
X116435207Y-135345529D01*
X116549529Y-135231207D01*
X116611400Y-135081838D01*
X116611400Y-134920162D01*
X116611400Y-134777442D01*
X116616442Y-134772400D01*
X117119400Y-134772400D01*
X117119400Y-134827838D01*
X117119400Y-136097838D01*
X117181271Y-136247207D01*
X117195600Y-136261536D01*
X117195600Y-136525000D01*
X117195600Y-137148796D01*
X116771263Y-137573132D01*
X116543110Y-137667404D01*
X116332144Y-137878001D01*
X116217830Y-138153301D01*
X116217570Y-138451391D01*
X116331404Y-138726890D01*
X116542001Y-138937856D01*
X116817301Y-139052170D01*
X117115391Y-139052430D01*
X117390890Y-138938596D01*
X117601856Y-138727999D01*
X117716170Y-138452699D01*
X117716257Y-138352346D01*
X118160052Y-137908552D01*
X118292197Y-137710784D01*
X118338600Y-137477500D01*
X118292197Y-137244216D01*
X118262400Y-137199621D01*
X118262400Y-137102042D01*
X118383501Y-137223356D01*
X118658801Y-137337670D01*
X118956891Y-137337930D01*
X119216432Y-137230689D01*
X119272501Y-137286856D01*
X119547801Y-137401170D01*
X119845891Y-137401430D01*
X120121390Y-137287596D01*
X120332356Y-137076999D01*
X120413662Y-136881190D01*
X120417003Y-136897984D01*
X120549148Y-137095752D01*
X121209549Y-137756153D01*
X121234101Y-137780705D01*
X121234070Y-137816391D01*
X121347904Y-138091890D01*
X121558501Y-138302856D01*
X121833801Y-138417170D01*
X122131891Y-138417430D01*
X122407390Y-138303596D01*
X122618356Y-138092999D01*
X122732670Y-137817699D01*
X122732930Y-137519609D01*
X122642182Y-137299984D01*
X122654745Y-137294794D01*
X122865711Y-137084197D01*
X122980025Y-136808897D01*
X122980285Y-136510807D01*
X122944169Y-136423400D01*
X123220038Y-136423400D01*
X123253500Y-136409539D01*
X123286962Y-136423400D01*
X123448638Y-136423400D01*
X123855038Y-136423400D01*
X124004407Y-136361529D01*
X124118729Y-136247207D01*
X124180600Y-136097838D01*
X124180600Y-135936162D01*
X124180600Y-134666162D01*
X124118729Y-134516793D01*
X124104400Y-134502464D01*
X124104400Y-134302500D01*
X124063797Y-134098377D01*
X124063797Y-134098376D01*
X124017483Y-134029063D01*
X123948171Y-133925329D01*
X123948167Y-133925326D01*
X123567171Y-133544329D01*
X123394123Y-133428703D01*
X123190000Y-133388100D01*
X121315441Y-133388100D01*
X120836671Y-132909329D01*
X120663623Y-132793703D01*
X120459500Y-132753100D01*
X119316500Y-132753100D01*
X119112376Y-132793703D01*
X119043063Y-132840016D01*
X118939329Y-132909329D01*
X118939326Y-132909332D01*
X118143058Y-133705600D01*
X116611400Y-133705600D01*
X116611400Y-133523162D01*
X116549529Y-133373793D01*
X116435207Y-133259471D01*
X116285838Y-133197600D01*
X116124162Y-133197600D01*
X115390704Y-133197600D01*
X114959653Y-132766549D01*
X114935915Y-132750688D01*
X115390704Y-132295900D01*
X115396838Y-132295900D01*
X116285838Y-132295900D01*
X116300814Y-132289696D01*
X116332000Y-132295900D01*
X117602000Y-132295900D01*
X117806123Y-132255297D01*
X117979171Y-132139671D01*
X118741171Y-131377671D01*
X118856797Y-131204623D01*
X118879716Y-131089400D01*
X118879717Y-131089400D01*
X118902038Y-131089400D01*
X119308438Y-131089400D01*
X119354600Y-131070278D01*
X119400762Y-131089400D01*
X119562438Y-131089400D01*
X119968838Y-131089400D01*
X120002300Y-131075539D01*
X120035762Y-131089400D01*
X120197438Y-131089400D01*
X120603838Y-131089400D01*
X120650000Y-131070278D01*
X120696162Y-131089400D01*
X120857838Y-131089400D01*
X121264238Y-131089400D01*
X121310400Y-131070278D01*
X121356562Y-131089400D01*
X121518238Y-131089400D01*
X121924638Y-131089400D01*
X121958100Y-131075539D01*
X121991562Y-131089400D01*
X122153238Y-131089400D01*
X122559638Y-131089400D01*
X122605800Y-131070278D01*
X122651962Y-131089400D01*
X122813638Y-131089400D01*
X122912095Y-131089400D01*
X123022489Y-131199794D01*
X123246543Y-131292600D01*
X123317000Y-131292600D01*
X123469400Y-131140200D01*
X123469400Y-130927536D01*
X123483729Y-130913207D01*
X123545600Y-130763838D01*
X123545600Y-130602162D01*
X123545600Y-129875600D01*
X123672600Y-129875600D01*
X123672600Y-129895600D01*
X124231400Y-129895600D01*
X124383800Y-129743200D01*
X124383800Y-129534257D01*
X124383800Y-129291743D01*
X124339337Y-129184400D01*
X125349000Y-129184400D01*
X125553123Y-129143797D01*
X125726171Y-129028171D01*
X126509741Y-128244600D01*
X127919038Y-128244600D01*
X128068407Y-128182729D01*
X128182729Y-128068407D01*
X128244600Y-127919038D01*
X128244600Y-127757362D01*
X128244600Y-126149844D01*
X128321600Y-126536949D01*
X128321600Y-127000000D01*
X128330369Y-127044089D01*
X128330370Y-127089039D01*
X128485046Y-127866646D01*
X128485046Y-127866652D01*
X128553194Y-128031175D01*
X128993676Y-128690403D01*
X129119597Y-128816324D01*
X129778821Y-129256803D01*
X129778824Y-129256806D01*
X129778825Y-129256806D01*
X129827012Y-129276765D01*
X129943348Y-129324954D01*
X129943353Y-129324954D01*
X130720960Y-129479630D01*
X130765910Y-129479630D01*
X130810000Y-129488400D01*
X131527050Y-129488400D01*
X132171533Y-129616595D01*
X132679794Y-129956205D01*
X133019404Y-130464466D01*
X133147600Y-131108949D01*
X133147600Y-135509000D01*
X133147600Y-175610390D01*
M02*
