M48
;DRILL file {kicad (2014-11-02 BZR 5250)-product} date 05/11/2014 09:55:38
;FORMAT={-:-/ absolute / inch / decimal}
FMAT,2
INCH,TZ
T1C0.013
T2C0.024
T3C0.040
%
G90
G05
M72
T1
X4.4025Y-5.215
X4.4025Y-5.2575
X4.49Y-5.92
X4.49Y-6.2825
X4.54Y-5.92
X4.54Y-6.2825
X4.555Y-6.4175
X4.59Y-5.715
X4.59Y-5.825
X4.59Y-6.0725
X4.59Y-6.23
X4.605Y-5.445
X4.64Y-5.825
X4.64Y-6.0725
X4.6425Y-5.6875
X4.6775Y-5.3775
X4.7125Y-5.38
X4.73Y-5.275
X4.8025Y-5.42
X4.8122Y-5.3803
X4.85Y-5.92
X4.9Y-5.92
X4.95Y-6.035
X4.98Y-5.8275
T2
X5.13Y-5.3625
X5.13Y-5.4625
X5.13Y-5.6125
X5.13Y-5.7125
X5.13Y-5.8625
X5.13Y-5.9625
X5.13Y-6.1125
X5.13Y-6.2125
X5.13Y-6.3625
X5.13Y-6.4625
X5.13Y-6.6125
X5.13Y-6.7125
T3
X4.46Y-6.9
X4.5Y-5.
X4.56Y-6.9
X4.6Y-5.
X4.66Y-6.9
X4.7Y-5.
X4.76Y-6.9
X4.8Y-5.
X4.86Y-6.9
X4.9Y-5.
X4.96Y-6.9
X5.Y-5.
X5.06Y-6.9
X5.09Y-5.2
X5.16Y-6.9
T0
M30
