G04 #@! TF.FileFunction,Legend,Top*
%FSLAX46Y46*%
G04 Gerber Fmt 4.6, Leading zero omitted, Abs format (unit mm)*
G04 Created by KiCad (PCBNEW (2014-11-02 BZR 5250)-product) date 05/11/2014 09:55:45*
%MOMM*%
G01*
G04 APERTURE LIST*
%ADD10C,0.100000*%
%ADD11C,0.254000*%
%ADD12C,0.101600*%
%ADD13C,0.300000*%
%ADD14C,0.099060*%
%ADD15C,0.127000*%
%ADD16C,0.165100*%
%ADD17C,0.152400*%
%ADD18C,0.002540*%
%ADD19C,0.150000*%
G04 APERTURE END LIST*
D10*
D11*
X112797168Y-142052524D02*
X112797168Y-143080619D01*
X112857644Y-143201571D01*
X112918120Y-143262048D01*
X113039073Y-143322524D01*
X113280977Y-143322524D01*
X113401930Y-143262048D01*
X113462406Y-143201571D01*
X113522882Y-143080619D01*
X113522882Y-142052524D01*
X114067168Y-143262048D02*
X114188120Y-143322524D01*
X114430025Y-143322524D01*
X114550977Y-143262048D01*
X114611453Y-143141095D01*
X114611453Y-143080619D01*
X114550977Y-142959667D01*
X114430025Y-142899190D01*
X114248596Y-142899190D01*
X114127644Y-142838714D01*
X114067168Y-142717762D01*
X114067168Y-142657286D01*
X114127644Y-142536333D01*
X114248596Y-142475857D01*
X114430025Y-142475857D01*
X114550977Y-142536333D01*
X115639548Y-143262048D02*
X115518596Y-143322524D01*
X115276691Y-143322524D01*
X115155739Y-143262048D01*
X115095263Y-143141095D01*
X115095263Y-142657286D01*
X115155739Y-142536333D01*
X115276691Y-142475857D01*
X115518596Y-142475857D01*
X115639548Y-142536333D01*
X115700025Y-142657286D01*
X115700025Y-142778238D01*
X115095263Y-142899190D01*
X117090977Y-142052524D02*
X117877167Y-142052524D01*
X117453834Y-142536333D01*
X117635262Y-142536333D01*
X117756215Y-142596810D01*
X117816691Y-142657286D01*
X117877167Y-142778238D01*
X117877167Y-143080619D01*
X117816691Y-143201571D01*
X117756215Y-143262048D01*
X117635262Y-143322524D01*
X117272405Y-143322524D01*
X117151453Y-143262048D01*
X117090977Y-143201571D01*
X118421453Y-143201571D02*
X118481929Y-143262048D01*
X118421453Y-143322524D01*
X118360977Y-143262048D01*
X118421453Y-143201571D01*
X118421453Y-143322524D01*
X118905263Y-142052524D02*
X119691453Y-142052524D01*
X119268120Y-142536333D01*
X119449548Y-142536333D01*
X119570501Y-142596810D01*
X119630977Y-142657286D01*
X119691453Y-142778238D01*
X119691453Y-143080619D01*
X119630977Y-143201571D01*
X119570501Y-143262048D01*
X119449548Y-143322524D01*
X119086691Y-143322524D01*
X118965739Y-143262048D01*
X118905263Y-143201571D01*
X120054310Y-142052524D02*
X120477644Y-143322524D01*
X120900977Y-142052524D01*
X122715262Y-142657286D02*
X122291929Y-142657286D01*
X122291929Y-143322524D02*
X122291929Y-142052524D01*
X122896691Y-142052524D01*
X124106214Y-143322524D02*
X123682881Y-142717762D01*
X123380500Y-143322524D02*
X123380500Y-142052524D01*
X123864309Y-142052524D01*
X123985262Y-142113000D01*
X124045738Y-142173476D01*
X124106214Y-142294429D01*
X124106214Y-142475857D01*
X124045738Y-142596810D01*
X123985262Y-142657286D01*
X123864309Y-142717762D01*
X123380500Y-142717762D01*
X124590024Y-142959667D02*
X125194786Y-142959667D01*
X124469071Y-143322524D02*
X124892405Y-142052524D01*
X125315738Y-143322524D01*
X125739071Y-143322524D02*
X125739071Y-142052524D01*
X126162404Y-142959667D01*
X126585738Y-142052524D01*
X126585738Y-143322524D01*
X127130024Y-143262048D02*
X127250976Y-143322524D01*
X127492881Y-143322524D01*
X127613833Y-143262048D01*
X127674309Y-143141095D01*
X127674309Y-143080619D01*
X127613833Y-142959667D01*
X127492881Y-142899190D01*
X127311452Y-142899190D01*
X127190500Y-142838714D01*
X127130024Y-142717762D01*
X127130024Y-142657286D01*
X127190500Y-142536333D01*
X127311452Y-142475857D01*
X127492881Y-142475857D01*
X127613833Y-142536333D01*
D12*
X117257286Y-168483643D02*
X117184714Y-168447357D01*
X117039571Y-168447357D01*
X116967000Y-168483643D01*
X116894429Y-168556214D01*
X116858143Y-168628786D01*
X116858143Y-168773929D01*
X116894429Y-168846500D01*
X116967000Y-168919071D01*
X117039571Y-168955357D01*
X117184714Y-168955357D01*
X117257286Y-168919071D01*
X117112143Y-168193357D02*
X116930714Y-168229643D01*
X116749286Y-168338500D01*
X116640429Y-168519929D01*
X116604143Y-168701357D01*
X116640429Y-168882786D01*
X116749286Y-169064214D01*
X116930714Y-169173071D01*
X117112143Y-169209357D01*
X117293571Y-169173071D01*
X117475000Y-169064214D01*
X117583857Y-168882786D01*
X117620143Y-168701357D01*
X117583857Y-168519929D01*
X117475000Y-168338500D01*
X117293571Y-168229643D01*
X117112143Y-168193357D01*
X118962714Y-169064214D02*
X118708714Y-168701357D01*
X118527286Y-169064214D02*
X118527286Y-168302214D01*
X118817571Y-168302214D01*
X118890143Y-168338500D01*
X118926428Y-168374786D01*
X118962714Y-168447357D01*
X118962714Y-168556214D01*
X118926428Y-168628786D01*
X118890143Y-168665071D01*
X118817571Y-168701357D01*
X118527286Y-168701357D01*
X119615857Y-169064214D02*
X119615857Y-168665071D01*
X119579571Y-168592500D01*
X119507000Y-168556214D01*
X119361857Y-168556214D01*
X119289286Y-168592500D01*
X119615857Y-169027929D02*
X119543286Y-169064214D01*
X119361857Y-169064214D01*
X119289286Y-169027929D01*
X119253000Y-168955357D01*
X119253000Y-168882786D01*
X119289286Y-168810214D01*
X119361857Y-168773929D01*
X119543286Y-168773929D01*
X119615857Y-168737643D01*
X119906143Y-168556214D02*
X120087572Y-169064214D01*
X120269000Y-168556214D02*
X120087572Y-169064214D01*
X120015000Y-169245643D01*
X119978715Y-169281929D01*
X119906143Y-169318214D01*
X121393857Y-168665071D02*
X121502714Y-168701357D01*
X121538999Y-168737643D01*
X121575285Y-168810214D01*
X121575285Y-168919071D01*
X121538999Y-168991643D01*
X121502714Y-169027929D01*
X121430142Y-169064214D01*
X121139857Y-169064214D01*
X121139857Y-168302214D01*
X121393857Y-168302214D01*
X121466428Y-168338500D01*
X121502714Y-168374786D01*
X121538999Y-168447357D01*
X121538999Y-168519929D01*
X121502714Y-168592500D01*
X121466428Y-168628786D01*
X121393857Y-168665071D01*
X121139857Y-168665071D01*
X122192142Y-169027929D02*
X122119571Y-169064214D01*
X121974428Y-169064214D01*
X121901857Y-169027929D01*
X121865571Y-168955357D01*
X121865571Y-168665071D01*
X121901857Y-168592500D01*
X121974428Y-168556214D01*
X122119571Y-168556214D01*
X122192142Y-168592500D01*
X122228428Y-168665071D01*
X122228428Y-168737643D01*
X121865571Y-168810214D01*
X122555000Y-168556214D02*
X122555000Y-169064214D01*
X122555000Y-168628786D02*
X122591285Y-168592500D01*
X122663857Y-168556214D01*
X122772714Y-168556214D01*
X122845285Y-168592500D01*
X122881571Y-168665071D01*
X122881571Y-169064214D01*
X123244429Y-169064214D02*
X123244429Y-168556214D01*
X123244429Y-168302214D02*
X123208143Y-168338500D01*
X123244429Y-168374786D01*
X123280714Y-168338500D01*
X123244429Y-168302214D01*
X123244429Y-168374786D01*
X123498428Y-168556214D02*
X123788714Y-168556214D01*
X123607286Y-168302214D02*
X123607286Y-168955357D01*
X123643571Y-169027929D01*
X123716143Y-169064214D01*
X123788714Y-169064214D01*
X124333000Y-169027929D02*
X124260429Y-169064214D01*
X124115286Y-169064214D01*
X124042715Y-169027929D01*
X124006429Y-168955357D01*
X124006429Y-168665071D01*
X124042715Y-168592500D01*
X124115286Y-168556214D01*
X124260429Y-168556214D01*
X124333000Y-168592500D01*
X124369286Y-168665071D01*
X124369286Y-168737643D01*
X124006429Y-168810214D01*
X124623286Y-168556214D02*
X125022429Y-168556214D01*
X124623286Y-169064214D01*
X125022429Y-169064214D01*
X125857000Y-168374786D02*
X125893286Y-168338500D01*
X125965857Y-168302214D01*
X126147286Y-168302214D01*
X126219857Y-168338500D01*
X126256143Y-168374786D01*
X126292428Y-168447357D01*
X126292428Y-168519929D01*
X126256143Y-168628786D01*
X125820714Y-169064214D01*
X126292428Y-169064214D01*
X126764142Y-168302214D02*
X126836714Y-168302214D01*
X126909285Y-168338500D01*
X126945571Y-168374786D01*
X126981857Y-168447357D01*
X127018142Y-168592500D01*
X127018142Y-168773929D01*
X126981857Y-168919071D01*
X126945571Y-168991643D01*
X126909285Y-169027929D01*
X126836714Y-169064214D01*
X126764142Y-169064214D01*
X126691571Y-169027929D01*
X126655285Y-168991643D01*
X126619000Y-168919071D01*
X126582714Y-168773929D01*
X126582714Y-168592500D01*
X126619000Y-168447357D01*
X126655285Y-168374786D01*
X126691571Y-168338500D01*
X126764142Y-168302214D01*
X127743856Y-169064214D02*
X127308428Y-169064214D01*
X127526142Y-169064214D02*
X127526142Y-168302214D01*
X127453571Y-168411071D01*
X127380999Y-168483643D01*
X127308428Y-168519929D01*
X128396999Y-168556214D02*
X128396999Y-169064214D01*
X128215570Y-168265929D02*
X128034142Y-168810214D01*
X128505856Y-168810214D01*
D11*
X111001024Y-136131905D02*
X110396262Y-136555238D01*
X111001024Y-136857619D02*
X109731024Y-136857619D01*
X109731024Y-136373810D01*
X109791500Y-136252857D01*
X109851976Y-136192381D01*
X109972929Y-136131905D01*
X110154357Y-136131905D01*
X110275310Y-136192381D01*
X110335786Y-136252857D01*
X110396262Y-136373810D01*
X110396262Y-136857619D01*
X110335786Y-135587619D02*
X110335786Y-135164286D01*
X111001024Y-134982857D02*
X111001024Y-135587619D01*
X109731024Y-135587619D01*
X109731024Y-134982857D01*
X109731024Y-134620000D02*
X111001024Y-134196666D01*
X109731024Y-133773333D01*
X111001024Y-133350000D02*
X109731024Y-133350000D01*
X110940548Y-132805714D02*
X111001024Y-132624286D01*
X111001024Y-132321905D01*
X110940548Y-132200952D01*
X110880071Y-132140476D01*
X110759119Y-132080000D01*
X110638167Y-132080000D01*
X110517214Y-132140476D01*
X110456738Y-132200952D01*
X110396262Y-132321905D01*
X110335786Y-132563809D01*
X110275310Y-132684762D01*
X110214833Y-132745238D01*
X110093881Y-132805714D01*
X109972929Y-132805714D01*
X109851976Y-132745238D01*
X109791500Y-132684762D01*
X109731024Y-132563809D01*
X109731024Y-132261429D01*
X109791500Y-132080000D01*
X111001024Y-131535714D02*
X109731024Y-131535714D01*
X109731024Y-130689047D02*
X109731024Y-130447143D01*
X109791500Y-130326190D01*
X109912452Y-130205238D01*
X110154357Y-130144762D01*
X110577690Y-130144762D01*
X110819595Y-130205238D01*
X110940548Y-130326190D01*
X111001024Y-130447143D01*
X111001024Y-130689047D01*
X110940548Y-130810000D01*
X110819595Y-130930952D01*
X110577690Y-130991428D01*
X110154357Y-130991428D01*
X109912452Y-130930952D01*
X109791500Y-130810000D01*
X109731024Y-130689047D01*
X111001024Y-129600476D02*
X109731024Y-129600476D01*
X111001024Y-128874762D01*
X109731024Y-128874762D01*
X110335786Y-126879048D02*
X110396262Y-126697619D01*
X110456738Y-126637143D01*
X110577690Y-126576667D01*
X110759119Y-126576667D01*
X110880071Y-126637143D01*
X110940548Y-126697619D01*
X111001024Y-126818572D01*
X111001024Y-127302381D01*
X109731024Y-127302381D01*
X109731024Y-126879048D01*
X109791500Y-126758095D01*
X109851976Y-126697619D01*
X109972929Y-126637143D01*
X110093881Y-126637143D01*
X110214833Y-126697619D01*
X110275310Y-126758095D01*
X110335786Y-126879048D01*
X110335786Y-127302381D01*
X116797668Y-165484024D02*
X116797668Y-164214024D01*
X116797668Y-164818786D02*
X117523382Y-164818786D01*
X117523382Y-165484024D02*
X117523382Y-164214024D01*
X118672430Y-165484024D02*
X118672430Y-164818786D01*
X118611953Y-164697833D01*
X118491001Y-164637357D01*
X118249096Y-164637357D01*
X118128144Y-164697833D01*
X118672430Y-165423548D02*
X118551477Y-165484024D01*
X118249096Y-165484024D01*
X118128144Y-165423548D01*
X118067668Y-165302595D01*
X118067668Y-165181643D01*
X118128144Y-165060690D01*
X118249096Y-165000214D01*
X118551477Y-165000214D01*
X118672430Y-164939738D01*
X119821478Y-165423548D02*
X119700525Y-165484024D01*
X119458621Y-165484024D01*
X119337668Y-165423548D01*
X119277192Y-165363071D01*
X119216716Y-165242119D01*
X119216716Y-164879262D01*
X119277192Y-164758310D01*
X119337668Y-164697833D01*
X119458621Y-164637357D01*
X119700525Y-164637357D01*
X119821478Y-164697833D01*
X120365763Y-165484024D02*
X120365763Y-164214024D01*
X120486715Y-165000214D02*
X120849572Y-165484024D01*
X120849572Y-164637357D02*
X120365763Y-165121167D01*
X121333382Y-165423548D02*
X121454334Y-165484024D01*
X121696239Y-165484024D01*
X121817191Y-165423548D01*
X121877667Y-165302595D01*
X121877667Y-165242119D01*
X121817191Y-165121167D01*
X121696239Y-165060690D01*
X121514810Y-165060690D01*
X121393858Y-165000214D01*
X121333382Y-164879262D01*
X121333382Y-164818786D01*
X121393858Y-164697833D01*
X121514810Y-164637357D01*
X121696239Y-164637357D01*
X121817191Y-164697833D01*
X122966239Y-165423548D02*
X122845286Y-165484024D01*
X122603382Y-165484024D01*
X122482429Y-165423548D01*
X122421953Y-165363071D01*
X122361477Y-165242119D01*
X122361477Y-164879262D01*
X122421953Y-164758310D01*
X122482429Y-164697833D01*
X122603382Y-164637357D01*
X122845286Y-164637357D01*
X122966239Y-164697833D01*
X123510524Y-165484024D02*
X123510524Y-164637357D01*
X123510524Y-164879262D02*
X123571000Y-164758310D01*
X123631476Y-164697833D01*
X123752429Y-164637357D01*
X123873381Y-164637357D01*
X124296714Y-165484024D02*
X124296714Y-164637357D01*
X124296714Y-164214024D02*
X124236238Y-164274500D01*
X124296714Y-164334976D01*
X124357190Y-164274500D01*
X124296714Y-164214024D01*
X124296714Y-164334976D01*
X124901476Y-165484024D02*
X124901476Y-164214024D01*
X124901476Y-164697833D02*
X125022428Y-164637357D01*
X125264333Y-164637357D01*
X125385285Y-164697833D01*
X125445762Y-164758310D01*
X125506238Y-164879262D01*
X125506238Y-165242119D01*
X125445762Y-165363071D01*
X125385285Y-165423548D01*
X125264333Y-165484024D01*
X125022428Y-165484024D01*
X124901476Y-165423548D01*
X126050524Y-165484024D02*
X126050524Y-164214024D01*
X126050524Y-164697833D02*
X126171476Y-164637357D01*
X126413381Y-164637357D01*
X126534333Y-164697833D01*
X126594810Y-164758310D01*
X126655286Y-164879262D01*
X126655286Y-165242119D01*
X126594810Y-165363071D01*
X126534333Y-165423548D01*
X126413381Y-165484024D01*
X126171476Y-165484024D01*
X126050524Y-165423548D01*
X127381001Y-165484024D02*
X127260048Y-165423548D01*
X127199572Y-165302595D01*
X127199572Y-164214024D01*
X128348619Y-165423548D02*
X128227667Y-165484024D01*
X127985762Y-165484024D01*
X127864810Y-165423548D01*
X127804334Y-165302595D01*
X127804334Y-164818786D01*
X127864810Y-164697833D01*
X127985762Y-164637357D01*
X128227667Y-164637357D01*
X128348619Y-164697833D01*
X128409096Y-164818786D01*
X128409096Y-164939738D01*
X127804334Y-165060690D01*
X112201476Y-166850786D02*
X111778143Y-166850786D01*
X111778143Y-167516024D02*
X111778143Y-166246024D01*
X112382905Y-166246024D01*
X113592428Y-167516024D02*
X113169095Y-166911262D01*
X112866714Y-167516024D02*
X112866714Y-166246024D01*
X113350523Y-166246024D01*
X113471476Y-166306500D01*
X113531952Y-166366976D01*
X113592428Y-166487929D01*
X113592428Y-166669357D01*
X113531952Y-166790310D01*
X113471476Y-166850786D01*
X113350523Y-166911262D01*
X112866714Y-166911262D01*
X114076238Y-167153167D02*
X114681000Y-167153167D01*
X113955285Y-167516024D02*
X114378619Y-166246024D01*
X114801952Y-167516024D01*
X115225285Y-167516024D02*
X115225285Y-166246024D01*
X115648618Y-167153167D01*
X116071952Y-166246024D01*
X116071952Y-167516024D01*
X117644333Y-167516024D02*
X117644333Y-166669357D01*
X117644333Y-166790310D02*
X117704809Y-166729833D01*
X117825762Y-166669357D01*
X118007190Y-166669357D01*
X118128142Y-166729833D01*
X118188619Y-166850786D01*
X118188619Y-167516024D01*
X118188619Y-166850786D02*
X118249095Y-166729833D01*
X118370047Y-166669357D01*
X118551476Y-166669357D01*
X118672428Y-166729833D01*
X118732904Y-166850786D01*
X118732904Y-167516024D01*
X119337666Y-167516024D02*
X119337666Y-166669357D01*
X119337666Y-166246024D02*
X119277190Y-166306500D01*
X119337666Y-166366976D01*
X119398142Y-166306500D01*
X119337666Y-166246024D01*
X119337666Y-166366976D01*
X119942428Y-166669357D02*
X119942428Y-167516024D01*
X119942428Y-166790310D02*
X120002904Y-166729833D01*
X120123857Y-166669357D01*
X120305285Y-166669357D01*
X120426237Y-166729833D01*
X120486714Y-166850786D01*
X120486714Y-167516024D01*
X121091476Y-167516024D02*
X121091476Y-166669357D01*
X121091476Y-166246024D02*
X121031000Y-166306500D01*
X121091476Y-166366976D01*
X121151952Y-166306500D01*
X121091476Y-166246024D01*
X121091476Y-166366976D01*
X121696238Y-167032214D02*
X122663857Y-167032214D01*
X123208143Y-167455548D02*
X123329095Y-167516024D01*
X123571000Y-167516024D01*
X123691952Y-167455548D01*
X123752428Y-167334595D01*
X123752428Y-167274119D01*
X123691952Y-167153167D01*
X123571000Y-167092690D01*
X123389571Y-167092690D01*
X123268619Y-167032214D01*
X123208143Y-166911262D01*
X123208143Y-166850786D01*
X123268619Y-166729833D01*
X123389571Y-166669357D01*
X123571000Y-166669357D01*
X123691952Y-166729833D01*
X124296714Y-167516024D02*
X124296714Y-166246024D01*
X124841000Y-167516024D02*
X124841000Y-166850786D01*
X124780523Y-166729833D01*
X124659571Y-166669357D01*
X124478143Y-166669357D01*
X124357190Y-166729833D01*
X124296714Y-166790310D01*
X125445762Y-167516024D02*
X125445762Y-166669357D01*
X125445762Y-166246024D02*
X125385286Y-166306500D01*
X125445762Y-166366976D01*
X125506238Y-166306500D01*
X125445762Y-166246024D01*
X125445762Y-166366976D01*
X126534333Y-167455548D02*
X126413381Y-167516024D01*
X126171476Y-167516024D01*
X126050524Y-167455548D01*
X125990048Y-167334595D01*
X125990048Y-166850786D01*
X126050524Y-166729833D01*
X126171476Y-166669357D01*
X126413381Y-166669357D01*
X126534333Y-166729833D01*
X126594810Y-166850786D01*
X126594810Y-166971738D01*
X125990048Y-167092690D01*
X127320524Y-167516024D02*
X127199571Y-167455548D01*
X127139095Y-167334595D01*
X127139095Y-166246024D01*
X128348619Y-167516024D02*
X128348619Y-166246024D01*
X128348619Y-167455548D02*
X128227666Y-167516024D01*
X127985762Y-167516024D01*
X127864809Y-167455548D01*
X127804333Y-167395071D01*
X127743857Y-167274119D01*
X127743857Y-166911262D01*
X127804333Y-166790310D01*
X127864809Y-166729833D01*
X127985762Y-166669357D01*
X128227666Y-166669357D01*
X128348619Y-166729833D01*
D13*
X125892858Y-130282071D02*
X125892858Y-128782071D01*
X126250001Y-128782071D01*
X126464286Y-128853500D01*
X126607144Y-128996357D01*
X126678572Y-129139214D01*
X126750001Y-129424929D01*
X126750001Y-129639214D01*
X126678572Y-129924929D01*
X126607144Y-130067786D01*
X126464286Y-130210643D01*
X126250001Y-130282071D01*
X125892858Y-130282071D01*
X127607144Y-129424929D02*
X127464286Y-129353500D01*
X127392858Y-129282071D01*
X127321429Y-129139214D01*
X127321429Y-129067786D01*
X127392858Y-128924929D01*
X127464286Y-128853500D01*
X127607144Y-128782071D01*
X127892858Y-128782071D01*
X128035715Y-128853500D01*
X128107144Y-128924929D01*
X128178572Y-129067786D01*
X128178572Y-129139214D01*
X128107144Y-129282071D01*
X128035715Y-129353500D01*
X127892858Y-129424929D01*
X127607144Y-129424929D01*
X127464286Y-129496357D01*
X127392858Y-129567786D01*
X127321429Y-129710643D01*
X127321429Y-129996357D01*
X127392858Y-130139214D01*
X127464286Y-130210643D01*
X127607144Y-130282071D01*
X127892858Y-130282071D01*
X128035715Y-130210643D01*
X128107144Y-130139214D01*
X128178572Y-129996357D01*
X128178572Y-129710643D01*
X128107144Y-129567786D01*
X128035715Y-129496357D01*
X127892858Y-129424929D01*
X129421143Y-172025571D02*
X129921143Y-173525571D01*
X130421143Y-172025571D01*
X130921143Y-173525571D02*
X130921143Y-172025571D01*
X131635429Y-173525571D02*
X131635429Y-172025571D01*
X132492572Y-173525571D01*
X132492572Y-172025571D01*
D14*
X112903000Y-148717000D02*
G75*
G03X112903000Y-148717000I-127000J0D01*
G01*
X112776000Y-147574000D02*
X112776000Y-148590000D01*
X112776000Y-148590000D02*
X111252000Y-148590000D01*
X111252000Y-148590000D02*
X111252000Y-147574000D01*
X111252000Y-146558000D02*
X111252000Y-145542000D01*
X111252000Y-145542000D02*
X112776000Y-145542000D01*
X112776000Y-145542000D02*
X112776000Y-146558000D01*
X122047000Y-148717000D02*
G75*
G03X122047000Y-148717000I-127000J0D01*
G01*
X121920000Y-147574000D02*
X121920000Y-148590000D01*
X121920000Y-148590000D02*
X120396000Y-148590000D01*
X120396000Y-148590000D02*
X120396000Y-147574000D01*
X120396000Y-146558000D02*
X120396000Y-145542000D01*
X120396000Y-145542000D02*
X121920000Y-145542000D01*
X121920000Y-145542000D02*
X121920000Y-146558000D01*
X112903000Y-157924500D02*
G75*
G03X112903000Y-157924500I-127000J0D01*
G01*
X112776000Y-156781500D02*
X112776000Y-157797500D01*
X112776000Y-157797500D02*
X111252000Y-157797500D01*
X111252000Y-157797500D02*
X111252000Y-156781500D01*
X111252000Y-155765500D02*
X111252000Y-154749500D01*
X111252000Y-154749500D02*
X112776000Y-154749500D01*
X112776000Y-154749500D02*
X112776000Y-155765500D01*
X111379000Y-149479000D02*
G75*
G03X111379000Y-149479000I-127000J0D01*
G01*
X111252000Y-150622000D02*
X111252000Y-149606000D01*
X111252000Y-149606000D02*
X112776000Y-149606000D01*
X112776000Y-149606000D02*
X112776000Y-150622000D01*
X112776000Y-151638000D02*
X112776000Y-152654000D01*
X112776000Y-152654000D02*
X111252000Y-152654000D01*
X111252000Y-152654000D02*
X111252000Y-151638000D01*
X120523000Y-149479000D02*
G75*
G03X120523000Y-149479000I-127000J0D01*
G01*
X120396000Y-150622000D02*
X120396000Y-149606000D01*
X120396000Y-149606000D02*
X121920000Y-149606000D01*
X121920000Y-149606000D02*
X121920000Y-150622000D01*
X121920000Y-151638000D02*
X121920000Y-152654000D01*
X121920000Y-152654000D02*
X120396000Y-152654000D01*
X120396000Y-152654000D02*
X120396000Y-151638000D01*
X111379000Y-158686500D02*
G75*
G03X111379000Y-158686500I-127000J0D01*
G01*
X111252000Y-159829500D02*
X111252000Y-158813500D01*
X111252000Y-158813500D02*
X112776000Y-158813500D01*
X112776000Y-158813500D02*
X112776000Y-159829500D01*
X112776000Y-160845500D02*
X112776000Y-161861500D01*
X112776000Y-161861500D02*
X111252000Y-161861500D01*
X111252000Y-161861500D02*
X111252000Y-160845500D01*
X116586000Y-130429000D02*
G75*
G03X116586000Y-130429000I-127000J0D01*
G01*
X115316000Y-130429000D02*
X116332000Y-130429000D01*
X116332000Y-130429000D02*
X116332000Y-131953000D01*
X116332000Y-131953000D02*
X115316000Y-131953000D01*
X114300000Y-131953000D02*
X113284000Y-131953000D01*
X113284000Y-131953000D02*
X113284000Y-130429000D01*
X113284000Y-130429000D02*
X114300000Y-130429000D01*
X116586000Y-133540500D02*
G75*
G03X116586000Y-133540500I-127000J0D01*
G01*
X115316000Y-133540500D02*
X116332000Y-133540500D01*
X116332000Y-133540500D02*
X116332000Y-135064500D01*
X116332000Y-135064500D02*
X115316000Y-135064500D01*
X114300000Y-135064500D02*
X113284000Y-135064500D01*
X113284000Y-135064500D02*
X113284000Y-133540500D01*
X113284000Y-133540500D02*
X114300000Y-133540500D01*
D15*
X115570000Y-127635000D02*
X114935000Y-128270000D01*
X114935000Y-128270000D02*
X113665000Y-128270000D01*
X113665000Y-128270000D02*
X113030000Y-127635000D01*
X113030000Y-127635000D02*
X113030000Y-126365000D01*
X113030000Y-126365000D02*
X113665000Y-125730000D01*
X113665000Y-125730000D02*
X114935000Y-125730000D01*
X114935000Y-125730000D02*
X115570000Y-126365000D01*
X118110000Y-127635000D02*
X117475000Y-128270000D01*
X117475000Y-128270000D02*
X116205000Y-128270000D01*
X116205000Y-128270000D02*
X115570000Y-127635000D01*
X115570000Y-126365000D02*
X116205000Y-125730000D01*
X116205000Y-125730000D02*
X117475000Y-125730000D01*
X117475000Y-125730000D02*
X118110000Y-126365000D01*
X120650000Y-127635000D02*
X120015000Y-128270000D01*
X120015000Y-128270000D02*
X118745000Y-128270000D01*
X118745000Y-128270000D02*
X118110000Y-127635000D01*
X118110000Y-126365000D02*
X118745000Y-125730000D01*
X118745000Y-125730000D02*
X120015000Y-125730000D01*
X120015000Y-125730000D02*
X120650000Y-126365000D01*
X125730000Y-127635000D02*
X125095000Y-128270000D01*
X125095000Y-128270000D02*
X123825000Y-128270000D01*
X123825000Y-128270000D02*
X123190000Y-127635000D01*
X123190000Y-127635000D02*
X122555000Y-128270000D01*
X122555000Y-128270000D02*
X121285000Y-128270000D01*
X121285000Y-128270000D02*
X120650000Y-127635000D01*
X120650000Y-126365000D02*
X121285000Y-125730000D01*
X121285000Y-125730000D02*
X122555000Y-125730000D01*
X122555000Y-125730000D02*
X123190000Y-126365000D01*
X123190000Y-126365000D02*
X123825000Y-125730000D01*
X123825000Y-125730000D02*
X125095000Y-125730000D01*
X125095000Y-125730000D02*
X125730000Y-126365000D01*
X128270000Y-127635000D02*
X127635000Y-128270000D01*
X127635000Y-128270000D02*
X126365000Y-128270000D01*
X126365000Y-128270000D02*
X125730000Y-127635000D01*
X125730000Y-126365000D02*
X126365000Y-125730000D01*
X126365000Y-125730000D02*
X127635000Y-125730000D01*
X127635000Y-125730000D02*
X128270000Y-126365000D01*
X128270000Y-126365000D02*
X128270000Y-127635000D01*
D16*
X124460000Y-130937000D02*
X116840000Y-130937000D01*
X116840000Y-134493000D02*
X124460000Y-134493000D01*
X124460000Y-130937000D02*
X124460000Y-134493000D01*
D17*
X116840000Y-134493000D02*
X116840000Y-130937000D01*
D15*
X117707210Y-133985000D02*
G75*
G03X117707210Y-133985000I-359210J0D01*
G01*
X116840000Y-132080000D02*
X117602000Y-132080000D01*
X117602000Y-132080000D02*
X117602000Y-133350000D01*
X117602000Y-133350000D02*
X116840000Y-133350000D01*
X113284000Y-160083500D02*
X113284000Y-160210500D01*
X113284000Y-160210500D02*
X118618000Y-160210500D01*
X118618000Y-156400500D02*
X113284000Y-156400500D01*
X113284000Y-156400500D02*
X113284000Y-160083500D01*
X113284000Y-157797500D02*
X113792000Y-157797500D01*
X113792000Y-157797500D02*
X113792000Y-158813500D01*
X113792000Y-158813500D02*
X113284000Y-158813500D01*
X118618000Y-156400500D02*
X118618000Y-160210500D01*
X113284000Y-150876000D02*
X113284000Y-151003000D01*
X113284000Y-151003000D02*
X118618000Y-151003000D01*
X118618000Y-147193000D02*
X113284000Y-147193000D01*
X113284000Y-147193000D02*
X113284000Y-150876000D01*
X113284000Y-148590000D02*
X113792000Y-148590000D01*
X113792000Y-148590000D02*
X113792000Y-149606000D01*
X113792000Y-149606000D02*
X113284000Y-149606000D01*
X118618000Y-147193000D02*
X118618000Y-151003000D01*
X122428000Y-150876000D02*
X122428000Y-151003000D01*
X122428000Y-151003000D02*
X127762000Y-151003000D01*
X127762000Y-147193000D02*
X122428000Y-147193000D01*
X122428000Y-147193000D02*
X122428000Y-150876000D01*
X122428000Y-148590000D02*
X122936000Y-148590000D01*
X122936000Y-148590000D02*
X122936000Y-149606000D01*
X122936000Y-149606000D02*
X122428000Y-149606000D01*
X127762000Y-147193000D02*
X127762000Y-151003000D01*
X128016000Y-131445000D02*
X128651000Y-130810000D01*
X128651000Y-130810000D02*
X129921000Y-130810000D01*
X129921000Y-130810000D02*
X130556000Y-131445000D01*
X130556000Y-131445000D02*
X130556000Y-132715000D01*
X130556000Y-132715000D02*
X129921000Y-133350000D01*
X129921000Y-133350000D02*
X128651000Y-133350000D01*
X128651000Y-133350000D02*
X128016000Y-132715000D01*
X128016000Y-132715000D02*
X128016000Y-131445000D01*
X114554000Y-175895000D02*
X113919000Y-176530000D01*
X113919000Y-176530000D02*
X112649000Y-176530000D01*
X112649000Y-176530000D02*
X112014000Y-175895000D01*
X112014000Y-175895000D02*
X112014000Y-174625000D01*
X112014000Y-174625000D02*
X112649000Y-173990000D01*
X112649000Y-173990000D02*
X113919000Y-173990000D01*
X113919000Y-173990000D02*
X114554000Y-174625000D01*
X117094000Y-175895000D02*
X116459000Y-176530000D01*
X116459000Y-176530000D02*
X115189000Y-176530000D01*
X115189000Y-176530000D02*
X114554000Y-175895000D01*
X114554000Y-174625000D02*
X115189000Y-173990000D01*
X115189000Y-173990000D02*
X116459000Y-173990000D01*
X116459000Y-173990000D02*
X117094000Y-174625000D01*
X119634000Y-175895000D02*
X118999000Y-176530000D01*
X118999000Y-176530000D02*
X117729000Y-176530000D01*
X117729000Y-176530000D02*
X117094000Y-175895000D01*
X117094000Y-174625000D02*
X117729000Y-173990000D01*
X117729000Y-173990000D02*
X118999000Y-173990000D01*
X118999000Y-173990000D02*
X119634000Y-174625000D01*
X122174000Y-175895000D02*
X121539000Y-176530000D01*
X121539000Y-176530000D02*
X120269000Y-176530000D01*
X120269000Y-176530000D02*
X119634000Y-175895000D01*
X119634000Y-174625000D02*
X120269000Y-173990000D01*
X120269000Y-173990000D02*
X121539000Y-173990000D01*
X121539000Y-173990000D02*
X122174000Y-174625000D01*
X124714000Y-175895000D02*
X124079000Y-176530000D01*
X124079000Y-176530000D02*
X122809000Y-176530000D01*
X122809000Y-176530000D02*
X122174000Y-175895000D01*
X122174000Y-174625000D02*
X122809000Y-173990000D01*
X122809000Y-173990000D02*
X124079000Y-173990000D01*
X124079000Y-173990000D02*
X124714000Y-174625000D01*
X129794000Y-175895000D02*
X129159000Y-176530000D01*
X129159000Y-176530000D02*
X127889000Y-176530000D01*
X127889000Y-176530000D02*
X127254000Y-175895000D01*
X127254000Y-175895000D02*
X126619000Y-176530000D01*
X126619000Y-176530000D02*
X125349000Y-176530000D01*
X125349000Y-176530000D02*
X124714000Y-175895000D01*
X124714000Y-174625000D02*
X125349000Y-173990000D01*
X125349000Y-173990000D02*
X126619000Y-173990000D01*
X126619000Y-173990000D02*
X127254000Y-174625000D01*
X127254000Y-174625000D02*
X127889000Y-173990000D01*
X127889000Y-173990000D02*
X129159000Y-173990000D01*
X129159000Y-173990000D02*
X129794000Y-174625000D01*
X132334000Y-175895000D02*
X131699000Y-176530000D01*
X131699000Y-176530000D02*
X130429000Y-176530000D01*
X130429000Y-176530000D02*
X129794000Y-175895000D01*
X129794000Y-174625000D02*
X130429000Y-173990000D01*
X130429000Y-173990000D02*
X131699000Y-173990000D01*
X131699000Y-173990000D02*
X132334000Y-174625000D01*
X132334000Y-174625000D02*
X132334000Y-175895000D01*
D18*
G36*
X128417320Y-163405820D02*
X127825500Y-163405820D01*
X127825500Y-160807400D01*
X127797560Y-160538160D01*
X127703580Y-160324800D01*
X127523240Y-160159700D01*
X127236220Y-160025080D01*
X126819660Y-159910780D01*
X126255780Y-159801560D01*
X126235460Y-159799020D01*
X125689360Y-159689800D01*
X125285500Y-159575500D01*
X125034040Y-159458660D01*
X124945140Y-159341820D01*
X124945140Y-159336740D01*
X125001020Y-159235140D01*
X125145800Y-159059880D01*
X125308360Y-158889700D01*
X125783340Y-158511240D01*
X126342140Y-158214060D01*
X126629160Y-158112460D01*
X126738380Y-158087060D01*
X126794260Y-158112460D01*
X126812040Y-158224220D01*
X126799340Y-158455360D01*
X126786640Y-158615380D01*
X126768860Y-158917640D01*
X126776480Y-159085280D01*
X126814580Y-159151320D01*
X126880620Y-159153860D01*
X127025400Y-159049720D01*
X127149860Y-158823660D01*
X127246380Y-158526480D01*
X127299720Y-158208980D01*
X127302260Y-157919420D01*
X127241300Y-157708600D01*
X127198120Y-157655260D01*
X126974600Y-157579060D01*
X126636780Y-157622240D01*
X126182120Y-157779720D01*
X125834140Y-157942280D01*
X125234700Y-158290260D01*
X124802900Y-158645860D01*
X124538740Y-159014160D01*
X124439680Y-159390080D01*
X124437140Y-159430720D01*
X124480320Y-159677100D01*
X124617480Y-159877760D01*
X124866400Y-160040320D01*
X125242320Y-160174940D01*
X125760480Y-160286700D01*
X126189740Y-160355280D01*
X126695200Y-160446720D01*
X127038100Y-160558480D01*
X127231140Y-160695640D01*
X127281940Y-160865820D01*
X127198120Y-161076640D01*
X127190500Y-161086800D01*
X126964440Y-161312860D01*
X126652020Y-161485580D01*
X126306580Y-161582100D01*
X125986540Y-161589720D01*
X125821440Y-161536380D01*
X125651260Y-161470340D01*
X125529340Y-161518600D01*
X125481080Y-161561780D01*
X125376940Y-161739580D01*
X125415040Y-161891980D01*
X125569980Y-162011360D01*
X125813820Y-162090100D01*
X126126240Y-162120580D01*
X126476760Y-162090100D01*
X126814580Y-162003740D01*
X127287020Y-161775140D01*
X127614680Y-161467800D01*
X127792480Y-161089340D01*
X127825500Y-160807400D01*
X127825500Y-163405820D01*
X124310140Y-163405820D01*
X124099320Y-163405820D01*
X124099320Y-162135820D01*
X124099320Y-160505140D01*
X124096780Y-159918400D01*
X124089160Y-159473900D01*
X124073920Y-159146240D01*
X124048520Y-158910020D01*
X124012960Y-158739840D01*
X123962160Y-158605220D01*
X123949460Y-158579820D01*
X123748800Y-158295340D01*
X123464320Y-158112460D01*
X123070620Y-158018480D01*
X122552460Y-158005780D01*
X121897140Y-158028640D01*
X121897140Y-157203140D01*
X121897140Y-156377640D01*
X121475500Y-156377640D01*
X121051320Y-156377640D01*
X121051320Y-159258000D01*
X121051320Y-162135820D01*
X121475500Y-162135820D01*
X121897140Y-162135820D01*
X121897140Y-160596580D01*
X121899680Y-160035240D01*
X121907300Y-159621220D01*
X121922540Y-159324040D01*
X121945400Y-159123380D01*
X121980960Y-158996380D01*
X122029220Y-158912560D01*
X122036840Y-158902400D01*
X122245120Y-158783020D01*
X122532140Y-158744920D01*
X122826780Y-158783020D01*
X123060460Y-158897320D01*
X123083320Y-158917640D01*
X123144280Y-158988760D01*
X123187460Y-159082740D01*
X123217940Y-159224980D01*
X123238260Y-159438340D01*
X123248420Y-159750760D01*
X123250960Y-160187640D01*
X123253500Y-160611820D01*
X123253500Y-162135820D01*
X123675140Y-162135820D01*
X124099320Y-162135820D01*
X124099320Y-163405820D01*
X120205500Y-163405820D01*
X120205500Y-159298640D01*
X120205500Y-155194000D01*
X124310140Y-155194000D01*
X128417320Y-155194000D01*
X128417320Y-159298640D01*
X128417320Y-163405820D01*
X128417320Y-163405820D01*
X128417320Y-163405820D01*
G37*
X128417320Y-163405820D02*
X127825500Y-163405820D01*
X127825500Y-160807400D01*
X127797560Y-160538160D01*
X127703580Y-160324800D01*
X127523240Y-160159700D01*
X127236220Y-160025080D01*
X126819660Y-159910780D01*
X126255780Y-159801560D01*
X126235460Y-159799020D01*
X125689360Y-159689800D01*
X125285500Y-159575500D01*
X125034040Y-159458660D01*
X124945140Y-159341820D01*
X124945140Y-159336740D01*
X125001020Y-159235140D01*
X125145800Y-159059880D01*
X125308360Y-158889700D01*
X125783340Y-158511240D01*
X126342140Y-158214060D01*
X126629160Y-158112460D01*
X126738380Y-158087060D01*
X126794260Y-158112460D01*
X126812040Y-158224220D01*
X126799340Y-158455360D01*
X126786640Y-158615380D01*
X126768860Y-158917640D01*
X126776480Y-159085280D01*
X126814580Y-159151320D01*
X126880620Y-159153860D01*
X127025400Y-159049720D01*
X127149860Y-158823660D01*
X127246380Y-158526480D01*
X127299720Y-158208980D01*
X127302260Y-157919420D01*
X127241300Y-157708600D01*
X127198120Y-157655260D01*
X126974600Y-157579060D01*
X126636780Y-157622240D01*
X126182120Y-157779720D01*
X125834140Y-157942280D01*
X125234700Y-158290260D01*
X124802900Y-158645860D01*
X124538740Y-159014160D01*
X124439680Y-159390080D01*
X124437140Y-159430720D01*
X124480320Y-159677100D01*
X124617480Y-159877760D01*
X124866400Y-160040320D01*
X125242320Y-160174940D01*
X125760480Y-160286700D01*
X126189740Y-160355280D01*
X126695200Y-160446720D01*
X127038100Y-160558480D01*
X127231140Y-160695640D01*
X127281940Y-160865820D01*
X127198120Y-161076640D01*
X127190500Y-161086800D01*
X126964440Y-161312860D01*
X126652020Y-161485580D01*
X126306580Y-161582100D01*
X125986540Y-161589720D01*
X125821440Y-161536380D01*
X125651260Y-161470340D01*
X125529340Y-161518600D01*
X125481080Y-161561780D01*
X125376940Y-161739580D01*
X125415040Y-161891980D01*
X125569980Y-162011360D01*
X125813820Y-162090100D01*
X126126240Y-162120580D01*
X126476760Y-162090100D01*
X126814580Y-162003740D01*
X127287020Y-161775140D01*
X127614680Y-161467800D01*
X127792480Y-161089340D01*
X127825500Y-160807400D01*
X127825500Y-163405820D01*
X124310140Y-163405820D01*
X124099320Y-163405820D01*
X124099320Y-162135820D01*
X124099320Y-160505140D01*
X124096780Y-159918400D01*
X124089160Y-159473900D01*
X124073920Y-159146240D01*
X124048520Y-158910020D01*
X124012960Y-158739840D01*
X123962160Y-158605220D01*
X123949460Y-158579820D01*
X123748800Y-158295340D01*
X123464320Y-158112460D01*
X123070620Y-158018480D01*
X122552460Y-158005780D01*
X121897140Y-158028640D01*
X121897140Y-157203140D01*
X121897140Y-156377640D01*
X121475500Y-156377640D01*
X121051320Y-156377640D01*
X121051320Y-159258000D01*
X121051320Y-162135820D01*
X121475500Y-162135820D01*
X121897140Y-162135820D01*
X121897140Y-160596580D01*
X121899680Y-160035240D01*
X121907300Y-159621220D01*
X121922540Y-159324040D01*
X121945400Y-159123380D01*
X121980960Y-158996380D01*
X122029220Y-158912560D01*
X122036840Y-158902400D01*
X122245120Y-158783020D01*
X122532140Y-158744920D01*
X122826780Y-158783020D01*
X123060460Y-158897320D01*
X123083320Y-158917640D01*
X123144280Y-158988760D01*
X123187460Y-159082740D01*
X123217940Y-159224980D01*
X123238260Y-159438340D01*
X123248420Y-159750760D01*
X123250960Y-160187640D01*
X123253500Y-160611820D01*
X123253500Y-162135820D01*
X123675140Y-162135820D01*
X124099320Y-162135820D01*
X124099320Y-163405820D01*
X120205500Y-163405820D01*
X120205500Y-159298640D01*
X120205500Y-155194000D01*
X124310140Y-155194000D01*
X128417320Y-155194000D01*
X128417320Y-159298640D01*
X128417320Y-163405820D01*
X128417320Y-163405820D01*
D15*
X110762143Y-147193000D02*
X110798429Y-147229286D01*
X110834714Y-147338143D01*
X110834714Y-147410714D01*
X110798429Y-147519571D01*
X110725857Y-147592143D01*
X110653286Y-147628428D01*
X110508143Y-147664714D01*
X110399286Y-147664714D01*
X110254143Y-147628428D01*
X110181571Y-147592143D01*
X110109000Y-147519571D01*
X110072714Y-147410714D01*
X110072714Y-147338143D01*
X110109000Y-147229286D01*
X110145286Y-147193000D01*
X110834714Y-146467286D02*
X110834714Y-146902714D01*
X110834714Y-146685000D02*
X110072714Y-146685000D01*
X110181571Y-146757571D01*
X110254143Y-146830143D01*
X110290429Y-146902714D01*
X119906143Y-147193000D02*
X119942429Y-147229286D01*
X119978714Y-147338143D01*
X119978714Y-147410714D01*
X119942429Y-147519571D01*
X119869857Y-147592143D01*
X119797286Y-147628428D01*
X119652143Y-147664714D01*
X119543286Y-147664714D01*
X119398143Y-147628428D01*
X119325571Y-147592143D01*
X119253000Y-147519571D01*
X119216714Y-147410714D01*
X119216714Y-147338143D01*
X119253000Y-147229286D01*
X119289286Y-147193000D01*
X119289286Y-146902714D02*
X119253000Y-146866428D01*
X119216714Y-146793857D01*
X119216714Y-146612428D01*
X119253000Y-146539857D01*
X119289286Y-146503571D01*
X119361857Y-146467286D01*
X119434429Y-146467286D01*
X119543286Y-146503571D01*
X119978714Y-146939000D01*
X119978714Y-146467286D01*
X110762143Y-156400500D02*
X110798429Y-156436786D01*
X110834714Y-156545643D01*
X110834714Y-156618214D01*
X110798429Y-156727071D01*
X110725857Y-156799643D01*
X110653286Y-156835928D01*
X110508143Y-156872214D01*
X110399286Y-156872214D01*
X110254143Y-156835928D01*
X110181571Y-156799643D01*
X110109000Y-156727071D01*
X110072714Y-156618214D01*
X110072714Y-156545643D01*
X110109000Y-156436786D01*
X110145286Y-156400500D01*
X110072714Y-156146500D02*
X110072714Y-155674786D01*
X110363000Y-155928786D01*
X110363000Y-155819928D01*
X110399286Y-155747357D01*
X110435571Y-155711071D01*
X110508143Y-155674786D01*
X110689571Y-155674786D01*
X110762143Y-155711071D01*
X110798429Y-155747357D01*
X110834714Y-155819928D01*
X110834714Y-156037643D01*
X110798429Y-156110214D01*
X110762143Y-156146500D01*
X110762143Y-151257000D02*
X110798429Y-151293286D01*
X110834714Y-151402143D01*
X110834714Y-151474714D01*
X110798429Y-151583571D01*
X110725857Y-151656143D01*
X110653286Y-151692428D01*
X110508143Y-151728714D01*
X110399286Y-151728714D01*
X110254143Y-151692428D01*
X110181571Y-151656143D01*
X110109000Y-151583571D01*
X110072714Y-151474714D01*
X110072714Y-151402143D01*
X110109000Y-151293286D01*
X110145286Y-151257000D01*
X110326714Y-150603857D02*
X110834714Y-150603857D01*
X110036429Y-150785286D02*
X110580714Y-150966714D01*
X110580714Y-150495000D01*
X119906143Y-151257000D02*
X119942429Y-151293286D01*
X119978714Y-151402143D01*
X119978714Y-151474714D01*
X119942429Y-151583571D01*
X119869857Y-151656143D01*
X119797286Y-151692428D01*
X119652143Y-151728714D01*
X119543286Y-151728714D01*
X119398143Y-151692428D01*
X119325571Y-151656143D01*
X119253000Y-151583571D01*
X119216714Y-151474714D01*
X119216714Y-151402143D01*
X119253000Y-151293286D01*
X119289286Y-151257000D01*
X119216714Y-150567571D02*
X119216714Y-150930428D01*
X119579571Y-150966714D01*
X119543286Y-150930428D01*
X119507000Y-150857857D01*
X119507000Y-150676428D01*
X119543286Y-150603857D01*
X119579571Y-150567571D01*
X119652143Y-150531286D01*
X119833571Y-150531286D01*
X119906143Y-150567571D01*
X119942429Y-150603857D01*
X119978714Y-150676428D01*
X119978714Y-150857857D01*
X119942429Y-150930428D01*
X119906143Y-150966714D01*
X110762143Y-160464500D02*
X110798429Y-160500786D01*
X110834714Y-160609643D01*
X110834714Y-160682214D01*
X110798429Y-160791071D01*
X110725857Y-160863643D01*
X110653286Y-160899928D01*
X110508143Y-160936214D01*
X110399286Y-160936214D01*
X110254143Y-160899928D01*
X110181571Y-160863643D01*
X110109000Y-160791071D01*
X110072714Y-160682214D01*
X110072714Y-160609643D01*
X110109000Y-160500786D01*
X110145286Y-160464500D01*
X110072714Y-159811357D02*
X110072714Y-159956500D01*
X110109000Y-160029071D01*
X110145286Y-160065357D01*
X110254143Y-160137928D01*
X110399286Y-160174214D01*
X110689571Y-160174214D01*
X110762143Y-160137928D01*
X110798429Y-160101643D01*
X110834714Y-160029071D01*
X110834714Y-159883928D01*
X110798429Y-159811357D01*
X110762143Y-159775071D01*
X110689571Y-159738786D01*
X110508143Y-159738786D01*
X110435571Y-159775071D01*
X110399286Y-159811357D01*
X110363000Y-159883928D01*
X110363000Y-160029071D01*
X110399286Y-160101643D01*
X110435571Y-160137928D01*
X110508143Y-160174214D01*
X112857643Y-131318000D02*
X112893929Y-131354286D01*
X112930214Y-131463143D01*
X112930214Y-131535714D01*
X112893929Y-131644571D01*
X112821357Y-131717143D01*
X112748786Y-131753428D01*
X112603643Y-131789714D01*
X112494786Y-131789714D01*
X112349643Y-131753428D01*
X112277071Y-131717143D01*
X112204500Y-131644571D01*
X112168214Y-131535714D01*
X112168214Y-131463143D01*
X112204500Y-131354286D01*
X112240786Y-131318000D01*
X112168214Y-131064000D02*
X112168214Y-130556000D01*
X112930214Y-130882571D01*
X112857643Y-134429500D02*
X112893929Y-134465786D01*
X112930214Y-134574643D01*
X112930214Y-134647214D01*
X112893929Y-134756071D01*
X112821357Y-134828643D01*
X112748786Y-134864928D01*
X112603643Y-134901214D01*
X112494786Y-134901214D01*
X112349643Y-134864928D01*
X112277071Y-134828643D01*
X112204500Y-134756071D01*
X112168214Y-134647214D01*
X112168214Y-134574643D01*
X112204500Y-134465786D01*
X112240786Y-134429500D01*
X112494786Y-133994071D02*
X112458500Y-134066643D01*
X112422214Y-134102928D01*
X112349643Y-134139214D01*
X112313357Y-134139214D01*
X112240786Y-134102928D01*
X112204500Y-134066643D01*
X112168214Y-133994071D01*
X112168214Y-133848928D01*
X112204500Y-133776357D01*
X112240786Y-133740071D01*
X112313357Y-133703786D01*
X112349643Y-133703786D01*
X112422214Y-133740071D01*
X112458500Y-133776357D01*
X112494786Y-133848928D01*
X112494786Y-133994071D01*
X112531071Y-134066643D01*
X112567357Y-134102928D01*
X112639929Y-134139214D01*
X112785071Y-134139214D01*
X112857643Y-134102928D01*
X112893929Y-134066643D01*
X112930214Y-133994071D01*
X112930214Y-133848928D01*
X112893929Y-133776357D01*
X112857643Y-133740071D01*
X112785071Y-133703786D01*
X112639929Y-133703786D01*
X112567357Y-133740071D01*
X112531071Y-133776357D01*
X112494786Y-133848928D01*
X125149429Y-132297714D02*
X125149429Y-132914571D01*
X125185714Y-132987143D01*
X125222000Y-133023429D01*
X125294571Y-133059714D01*
X125439714Y-133059714D01*
X125512286Y-133023429D01*
X125548571Y-132987143D01*
X125584857Y-132914571D01*
X125584857Y-132297714D01*
X126274286Y-132551714D02*
X126274286Y-133059714D01*
X126092857Y-132261429D02*
X125911429Y-132805714D01*
X126383143Y-132805714D01*
X110072714Y-158886071D02*
X110689571Y-158886071D01*
X110762143Y-158849786D01*
X110798429Y-158813500D01*
X110834714Y-158740929D01*
X110834714Y-158595786D01*
X110798429Y-158523214D01*
X110762143Y-158486929D01*
X110689571Y-158450643D01*
X110072714Y-158450643D01*
X110072714Y-158160357D02*
X110072714Y-157688643D01*
X110363000Y-157942643D01*
X110363000Y-157833785D01*
X110399286Y-157761214D01*
X110435571Y-157724928D01*
X110508143Y-157688643D01*
X110689571Y-157688643D01*
X110762143Y-157724928D01*
X110798429Y-157761214D01*
X110834714Y-157833785D01*
X110834714Y-158051500D01*
X110798429Y-158124071D01*
X110762143Y-158160357D01*
X110072714Y-149678571D02*
X110689571Y-149678571D01*
X110762143Y-149642286D01*
X110798429Y-149606000D01*
X110834714Y-149533429D01*
X110834714Y-149388286D01*
X110798429Y-149315714D01*
X110762143Y-149279429D01*
X110689571Y-149243143D01*
X110072714Y-149243143D01*
X110834714Y-148481143D02*
X110834714Y-148916571D01*
X110834714Y-148698857D02*
X110072714Y-148698857D01*
X110181571Y-148771428D01*
X110254143Y-148844000D01*
X110290429Y-148916571D01*
X119216714Y-149678571D02*
X119833571Y-149678571D01*
X119906143Y-149642286D01*
X119942429Y-149606000D01*
X119978714Y-149533429D01*
X119978714Y-149388286D01*
X119942429Y-149315714D01*
X119906143Y-149279429D01*
X119833571Y-149243143D01*
X119216714Y-149243143D01*
X119289286Y-148916571D02*
X119253000Y-148880285D01*
X119216714Y-148807714D01*
X119216714Y-148626285D01*
X119253000Y-148553714D01*
X119289286Y-148517428D01*
X119361857Y-148481143D01*
X119434429Y-148481143D01*
X119543286Y-148517428D01*
X119978714Y-148952857D01*
X119978714Y-148481143D01*
D19*
X132548262Y-170513214D02*
X132595881Y-170370357D01*
X132595881Y-170132261D01*
X132548262Y-170037023D01*
X132500643Y-169989404D01*
X132405405Y-169941785D01*
X132310167Y-169941785D01*
X132214929Y-169989404D01*
X132167310Y-170037023D01*
X132119690Y-170132261D01*
X132072071Y-170322738D01*
X132024452Y-170417976D01*
X131976833Y-170465595D01*
X131881595Y-170513214D01*
X131786357Y-170513214D01*
X131691119Y-170465595D01*
X131643500Y-170417976D01*
X131595881Y-170322738D01*
X131595881Y-170084642D01*
X131643500Y-169941785D01*
X132500643Y-168941785D02*
X132548262Y-168989404D01*
X132595881Y-169132261D01*
X132595881Y-169227499D01*
X132548262Y-169370357D01*
X132453024Y-169465595D01*
X132357786Y-169513214D01*
X132167310Y-169560833D01*
X132024452Y-169560833D01*
X131833976Y-169513214D01*
X131738738Y-169465595D01*
X131643500Y-169370357D01*
X131595881Y-169227499D01*
X131595881Y-169132261D01*
X131643500Y-168989404D01*
X131691119Y-168941785D01*
X132595881Y-168513214D02*
X131595881Y-168513214D01*
X132595881Y-167941785D02*
X132024452Y-168370357D01*
X131595881Y-167941785D02*
X132167310Y-168513214D01*
X132595881Y-164448928D02*
X131595881Y-164448928D01*
X132310167Y-164115594D01*
X131595881Y-163782261D01*
X132595881Y-163782261D01*
X132595881Y-163306071D02*
X131595881Y-163306071D01*
X132548262Y-162877500D02*
X132595881Y-162734643D01*
X132595881Y-162496547D01*
X132548262Y-162401309D01*
X132500643Y-162353690D01*
X132405405Y-162306071D01*
X132310167Y-162306071D01*
X132214929Y-162353690D01*
X132167310Y-162401309D01*
X132119690Y-162496547D01*
X132072071Y-162687024D01*
X132024452Y-162782262D01*
X131976833Y-162829881D01*
X131881595Y-162877500D01*
X131786357Y-162877500D01*
X131691119Y-162829881D01*
X131643500Y-162782262D01*
X131595881Y-162687024D01*
X131595881Y-162448928D01*
X131643500Y-162306071D01*
X131595881Y-161687024D02*
X131595881Y-161496547D01*
X131643500Y-161401309D01*
X131738738Y-161306071D01*
X131929214Y-161258452D01*
X132262548Y-161258452D01*
X132453024Y-161306071D01*
X132548262Y-161401309D01*
X132595881Y-161496547D01*
X132595881Y-161687024D01*
X132548262Y-161782262D01*
X132453024Y-161877500D01*
X132262548Y-161925119D01*
X131929214Y-161925119D01*
X131738738Y-161877500D01*
X131643500Y-161782262D01*
X131595881Y-161687024D01*
X132595881Y-158098928D02*
X131595881Y-158098928D01*
X132310167Y-157765594D01*
X131595881Y-157432261D01*
X132595881Y-157432261D01*
X131595881Y-156765595D02*
X131595881Y-156575118D01*
X131643500Y-156479880D01*
X131738738Y-156384642D01*
X131929214Y-156337023D01*
X132262548Y-156337023D01*
X132453024Y-156384642D01*
X132548262Y-156479880D01*
X132595881Y-156575118D01*
X132595881Y-156765595D01*
X132548262Y-156860833D01*
X132453024Y-156956071D01*
X132262548Y-157003690D01*
X131929214Y-157003690D01*
X131738738Y-156956071D01*
X131643500Y-156860833D01*
X131595881Y-156765595D01*
X132548262Y-155956071D02*
X132595881Y-155813214D01*
X132595881Y-155575118D01*
X132548262Y-155479880D01*
X132500643Y-155432261D01*
X132405405Y-155384642D01*
X132310167Y-155384642D01*
X132214929Y-155432261D01*
X132167310Y-155479880D01*
X132119690Y-155575118D01*
X132072071Y-155765595D01*
X132024452Y-155860833D01*
X131976833Y-155908452D01*
X131881595Y-155956071D01*
X131786357Y-155956071D01*
X131691119Y-155908452D01*
X131643500Y-155860833D01*
X131595881Y-155765595D01*
X131595881Y-155527499D01*
X131643500Y-155384642D01*
X132595881Y-154956071D02*
X131595881Y-154956071D01*
X132595881Y-153010833D02*
X131595881Y-153010833D01*
X131595881Y-152772738D01*
X131643500Y-152629880D01*
X131738738Y-152534642D01*
X131833976Y-152487023D01*
X132024452Y-152439404D01*
X132167310Y-152439404D01*
X132357786Y-152487023D01*
X132453024Y-152534642D01*
X132548262Y-152629880D01*
X132595881Y-152772738D01*
X132595881Y-153010833D01*
X132595881Y-151487023D02*
X132595881Y-152058452D01*
X132595881Y-151772738D02*
X131595881Y-151772738D01*
X131738738Y-151867976D01*
X131833976Y-151963214D01*
X131881595Y-152058452D01*
X131595881Y-150867976D02*
X131595881Y-150772737D01*
X131643500Y-150677499D01*
X131691119Y-150629880D01*
X131786357Y-150582261D01*
X131976833Y-150534642D01*
X132214929Y-150534642D01*
X132405405Y-150582261D01*
X132500643Y-150629880D01*
X132548262Y-150677499D01*
X132595881Y-150772737D01*
X132595881Y-150867976D01*
X132548262Y-150963214D01*
X132500643Y-151010833D01*
X132405405Y-151058452D01*
X132214929Y-151106071D01*
X131976833Y-151106071D01*
X131786357Y-151058452D01*
X131691119Y-151010833D01*
X131643500Y-150963214D01*
X131595881Y-150867976D01*
X132214929Y-150106071D02*
X132214929Y-149344166D01*
X131595881Y-148867976D02*
X132405405Y-148867976D01*
X132500643Y-148820357D01*
X132548262Y-148772738D01*
X132595881Y-148677500D01*
X132595881Y-148487023D01*
X132548262Y-148391785D01*
X132500643Y-148344166D01*
X132405405Y-148296547D01*
X131595881Y-148296547D01*
X131595881Y-147915595D02*
X131595881Y-147296547D01*
X131976833Y-147629881D01*
X131976833Y-147487023D01*
X132024452Y-147391785D01*
X132072071Y-147344166D01*
X132167310Y-147296547D01*
X132405405Y-147296547D01*
X132500643Y-147344166D01*
X132548262Y-147391785D01*
X132595881Y-147487023D01*
X132595881Y-147772738D01*
X132548262Y-147867976D01*
X132500643Y-147915595D01*
X132595881Y-146248143D02*
X131595881Y-146248143D01*
X131595881Y-146010048D01*
X131643500Y-145867190D01*
X131738738Y-145771952D01*
X131833976Y-145724333D01*
X132024452Y-145676714D01*
X132167310Y-145676714D01*
X132357786Y-145724333D01*
X132453024Y-145771952D01*
X132548262Y-145867190D01*
X132595881Y-146010048D01*
X132595881Y-146248143D01*
X132595881Y-145200524D02*
X132595881Y-145010048D01*
X132548262Y-144914809D01*
X132500643Y-144867190D01*
X132357786Y-144771952D01*
X132167310Y-144724333D01*
X131786357Y-144724333D01*
X131691119Y-144771952D01*
X131643500Y-144819571D01*
X131595881Y-144914809D01*
X131595881Y-145105286D01*
X131643500Y-145200524D01*
X131691119Y-145248143D01*
X131786357Y-145295762D01*
X132024452Y-145295762D01*
X132119690Y-145248143D01*
X132167310Y-145200524D01*
X132214929Y-145105286D01*
X132214929Y-144914809D01*
X132167310Y-144819571D01*
X132119690Y-144771952D01*
X132024452Y-144724333D01*
X132214929Y-144295762D02*
X132214929Y-143533857D01*
X131595881Y-143057667D02*
X132405405Y-143057667D01*
X132500643Y-143010048D01*
X132548262Y-142962429D01*
X132595881Y-142867191D01*
X132595881Y-142676714D01*
X132548262Y-142581476D01*
X132500643Y-142533857D01*
X132405405Y-142486238D01*
X131595881Y-142486238D01*
X131691119Y-142057667D02*
X131643500Y-142010048D01*
X131595881Y-141914810D01*
X131595881Y-141676714D01*
X131643500Y-141581476D01*
X131691119Y-141533857D01*
X131786357Y-141486238D01*
X131881595Y-141486238D01*
X132024452Y-141533857D01*
X132595881Y-142105286D01*
X132595881Y-141486238D01*
X132595881Y-139834643D02*
X131595881Y-139834643D01*
X131595881Y-139596548D01*
X131643500Y-139453690D01*
X131738738Y-139358452D01*
X131833976Y-139310833D01*
X132024452Y-139263214D01*
X132167310Y-139263214D01*
X132357786Y-139310833D01*
X132453024Y-139358452D01*
X132548262Y-139453690D01*
X132595881Y-139596548D01*
X132595881Y-139834643D01*
X132024452Y-138691786D02*
X131976833Y-138787024D01*
X131929214Y-138834643D01*
X131833976Y-138882262D01*
X131786357Y-138882262D01*
X131691119Y-138834643D01*
X131643500Y-138787024D01*
X131595881Y-138691786D01*
X131595881Y-138501309D01*
X131643500Y-138406071D01*
X131691119Y-138358452D01*
X131786357Y-138310833D01*
X131833976Y-138310833D01*
X131929214Y-138358452D01*
X131976833Y-138406071D01*
X132024452Y-138501309D01*
X132024452Y-138691786D01*
X132072071Y-138787024D01*
X132119690Y-138834643D01*
X132214929Y-138882262D01*
X132405405Y-138882262D01*
X132500643Y-138834643D01*
X132548262Y-138787024D01*
X132595881Y-138691786D01*
X132595881Y-138501309D01*
X132548262Y-138406071D01*
X132500643Y-138358452D01*
X132405405Y-138310833D01*
X132214929Y-138310833D01*
X132119690Y-138358452D01*
X132072071Y-138406071D01*
X132024452Y-138501309D01*
X132214929Y-137882262D02*
X132214929Y-137120357D01*
X131595881Y-136644167D02*
X132405405Y-136644167D01*
X132500643Y-136596548D01*
X132548262Y-136548929D01*
X132595881Y-136453691D01*
X132595881Y-136263214D01*
X132548262Y-136167976D01*
X132500643Y-136120357D01*
X132405405Y-136072738D01*
X131595881Y-136072738D01*
X132595881Y-135072738D02*
X132595881Y-135644167D01*
X132595881Y-135358453D02*
X131595881Y-135358453D01*
X131738738Y-135453691D01*
X131833976Y-135548929D01*
X131881595Y-135644167D01*
D17*
X130937000Y-132854095D02*
X130888619Y-132950857D01*
X130888619Y-133096000D01*
X130937000Y-133241142D01*
X131033762Y-133337904D01*
X131130524Y-133386285D01*
X131324048Y-133434666D01*
X131469190Y-133434666D01*
X131662714Y-133386285D01*
X131759476Y-133337904D01*
X131856238Y-133241142D01*
X131904619Y-133096000D01*
X131904619Y-132999238D01*
X131856238Y-132854095D01*
X131807857Y-132805714D01*
X131469190Y-132805714D01*
X131469190Y-132999238D01*
X131904619Y-132370285D02*
X130888619Y-132370285D01*
X131904619Y-131789714D01*
X130888619Y-131789714D01*
X131904619Y-131305904D02*
X130888619Y-131305904D01*
X130888619Y-131063999D01*
X130937000Y-130918857D01*
X131033762Y-130822095D01*
X131130524Y-130773714D01*
X131324048Y-130725333D01*
X131469190Y-130725333D01*
X131662714Y-130773714D01*
X131759476Y-130822095D01*
X131856238Y-130918857D01*
X131904619Y-131063999D01*
X131904619Y-131305904D01*
M02*
