%FSLAX46Y46*%
G04 Gerber Fmt 4.6, Leading zero omitted, Abs format (unit mm)*
G04 Created by KiCad (PCBNEW (2014-09-30 BZR 5157)-product) date 07/10/2014 19:43:52*
%MOMM*%
G01*
G04 APERTURE LIST*
%ADD10C,0.100000*%
%ADD11R,1.397000X0.889000*%
%ADD12R,0.889000X1.397000*%
%ADD13R,1.676400X1.676400*%
%ADD14C,1.676400*%
%ADD15R,1.270000X1.016000*%
%ADD16R,0.406400X1.270000*%
%ADD17R,0.599440X1.399540*%
%ADD18C,1.500000*%
G04 APERTURE END LIST*
D10*
D11*
X112014000Y-148018500D03*
X112014000Y-146113500D03*
X121158000Y-148018500D03*
X121158000Y-146113500D03*
X112014000Y-157226000D03*
X112014000Y-155321000D03*
X112014000Y-150177500D03*
X112014000Y-152082500D03*
X121158000Y-150177500D03*
X121158000Y-152082500D03*
X112014000Y-159385000D03*
X112014000Y-161290000D03*
D12*
X115760500Y-131191000D03*
X113855500Y-131191000D03*
X115760500Y-134302500D03*
X113855500Y-134302500D03*
D13*
X127000000Y-127000000D03*
D14*
X124460000Y-127000000D03*
X121920000Y-127000000D03*
X119380000Y-127000000D03*
X116840000Y-127000000D03*
X114300000Y-127000000D03*
D15*
X123507500Y-171577000D03*
X123507500Y-172847000D03*
X120904000Y-171577000D03*
X120904000Y-172847000D03*
X112141000Y-142049500D03*
X112141000Y-140779500D03*
X115062000Y-142049500D03*
X115062000Y-140779500D03*
X117983000Y-142049500D03*
X117983000Y-140779500D03*
X120904000Y-142049500D03*
X120904000Y-140779500D03*
X123825000Y-142049500D03*
X123825000Y-140779500D03*
X126746000Y-142049500D03*
X126746000Y-140779500D03*
D16*
X117729000Y-135382000D03*
X118364000Y-135382000D03*
X119024400Y-135382000D03*
X119684800Y-135382000D03*
X120319800Y-135382000D03*
X120980200Y-135382000D03*
X121640600Y-135382000D03*
X122275600Y-135382000D03*
X122936000Y-135382000D03*
X123571000Y-135382000D03*
X123571000Y-130048000D03*
X122936000Y-130048000D03*
X122275600Y-130048000D03*
X121640600Y-130048000D03*
X120980200Y-130048000D03*
X120319800Y-130048000D03*
X119684800Y-130048000D03*
X119024400Y-130048000D03*
X118364000Y-130048000D03*
X117729000Y-130048000D03*
D17*
X114046000Y-155638500D03*
X114046000Y-160972500D03*
X115316000Y-155638500D03*
X116586000Y-155638500D03*
X117856000Y-155638500D03*
X115316000Y-160972500D03*
X116586000Y-160972500D03*
X117856000Y-160972500D03*
X114046000Y-146431000D03*
X114046000Y-151765000D03*
X115316000Y-146431000D03*
X116586000Y-146431000D03*
X117856000Y-146431000D03*
X115316000Y-151765000D03*
X116586000Y-151765000D03*
X117856000Y-151765000D03*
X123190000Y-146431000D03*
X123190000Y-151765000D03*
X124460000Y-146431000D03*
X125730000Y-146431000D03*
X127000000Y-146431000D03*
X124460000Y-151765000D03*
X125730000Y-151765000D03*
X127000000Y-151765000D03*
D13*
X131064000Y-175260000D03*
D14*
X128524000Y-175260000D03*
X125984000Y-175260000D03*
X123444000Y-175260000D03*
X120904000Y-175260000D03*
D18*
X130302000Y-170497500D03*
X130302000Y-167957500D03*
X130302000Y-164147500D03*
X130302000Y-161607500D03*
X130302000Y-157797500D03*
X130302000Y-155257500D03*
X130302000Y-151447500D03*
X130302000Y-148907500D03*
X130302000Y-145097500D03*
X130302000Y-142557500D03*
X130302000Y-138747500D03*
X130302000Y-136207500D03*
D13*
X129286000Y-132080000D03*
M02*
