G04 #@! TF.FileFunction,Legend,Bot*
%FSLAX46Y46*%
G04 Gerber Fmt 4.6, Leading zero omitted, Abs format (unit mm)*
G04 Created by KiCad (PCBNEW (2014-11-02 BZR 5250)-product) date 05/11/2014 13:18:46*
%MOMM*%
G01*
G04 APERTURE LIST*
%ADD10C,0.100000*%
%ADD11C,0.254000*%
G04 APERTURE END LIST*
D10*
D11*
X126606905Y-166125071D02*
X126667381Y-166185548D01*
X126848810Y-166246024D01*
X126969762Y-166246024D01*
X127151190Y-166185548D01*
X127272143Y-166064595D01*
X127332619Y-165943643D01*
X127393095Y-165701738D01*
X127393095Y-165520310D01*
X127332619Y-165278405D01*
X127272143Y-165157452D01*
X127151190Y-165036500D01*
X126969762Y-164976024D01*
X126848810Y-164976024D01*
X126667381Y-165036500D01*
X126606905Y-165096976D01*
X126062619Y-166246024D02*
X126062619Y-164976024D01*
X126062619Y-165580786D02*
X125336905Y-165580786D01*
X125336905Y-166246024D02*
X125336905Y-164976024D01*
X124732143Y-166246024D02*
X124732143Y-164976024D01*
X124127381Y-166246024D02*
X124127381Y-164976024D01*
X123643572Y-164976024D01*
X123522619Y-165036500D01*
X123462143Y-165096976D01*
X123401667Y-165217929D01*
X123401667Y-165399357D01*
X123462143Y-165520310D01*
X123522619Y-165580786D01*
X123643572Y-165641262D01*
X124127381Y-165641262D01*
X121950238Y-166185548D02*
X121768810Y-166246024D01*
X121466429Y-166246024D01*
X121345476Y-166185548D01*
X121285000Y-166125071D01*
X121224524Y-166004119D01*
X121224524Y-165883167D01*
X121285000Y-165762214D01*
X121345476Y-165701738D01*
X121466429Y-165641262D01*
X121708333Y-165580786D01*
X121829286Y-165520310D01*
X121889762Y-165459833D01*
X121950238Y-165338881D01*
X121950238Y-165217929D01*
X121889762Y-165096976D01*
X121829286Y-165036500D01*
X121708333Y-164976024D01*
X121405953Y-164976024D01*
X121224524Y-165036500D01*
X120680238Y-165580786D02*
X120256905Y-165580786D01*
X120075476Y-166246024D02*
X120680238Y-166246024D01*
X120680238Y-164976024D01*
X120075476Y-164976024D01*
X118926428Y-166246024D02*
X119531190Y-166246024D01*
X119531190Y-164976024D01*
X118503095Y-165580786D02*
X118079762Y-165580786D01*
X117898333Y-166246024D02*
X118503095Y-166246024D01*
X118503095Y-164976024D01*
X117898333Y-164976024D01*
X116628333Y-166125071D02*
X116688809Y-166185548D01*
X116870238Y-166246024D01*
X116991190Y-166246024D01*
X117172618Y-166185548D01*
X117293571Y-166064595D01*
X117354047Y-165943643D01*
X117414523Y-165701738D01*
X117414523Y-165520310D01*
X117354047Y-165278405D01*
X117293571Y-165157452D01*
X117172618Y-165036500D01*
X116991190Y-164976024D01*
X116870238Y-164976024D01*
X116688809Y-165036500D01*
X116628333Y-165096976D01*
X116265476Y-164976024D02*
X115539761Y-164976024D01*
X115902618Y-166246024D02*
X115902618Y-164976024D01*
X115116428Y-166125071D02*
X115055952Y-166185548D01*
X115116428Y-166246024D01*
X115176904Y-166185548D01*
X115116428Y-166125071D01*
X115116428Y-166246024D01*
X115116428Y-165459833D02*
X115055952Y-165520310D01*
X115116428Y-165580786D01*
X115176904Y-165520310D01*
X115116428Y-165459833D01*
X115116428Y-165580786D01*
X127332619Y-167008024D02*
X127332619Y-168036119D01*
X127272143Y-168157071D01*
X127211667Y-168217548D01*
X127090714Y-168278024D01*
X126848810Y-168278024D01*
X126727857Y-168217548D01*
X126667381Y-168157071D01*
X126606905Y-168036119D01*
X126606905Y-167008024D01*
X125336905Y-168278024D02*
X126062619Y-168278024D01*
X125699762Y-168278024D02*
X125699762Y-167008024D01*
X125820714Y-167189452D01*
X125941667Y-167310405D01*
X126062619Y-167370881D01*
X123825000Y-167612786D02*
X122857381Y-167612786D01*
X122857381Y-167975643D02*
X123825000Y-167975643D01*
X121285000Y-168278024D02*
X121285000Y-167008024D01*
X120982619Y-167008024D01*
X120801191Y-167068500D01*
X120680238Y-167189452D01*
X120619762Y-167310405D01*
X120559286Y-167552310D01*
X120559286Y-167733738D01*
X120619762Y-167975643D01*
X120680238Y-168096595D01*
X120801191Y-168217548D01*
X120982619Y-168278024D01*
X121285000Y-168278024D01*
X119833571Y-167552310D02*
X119954524Y-167491833D01*
X120015000Y-167431357D01*
X120075476Y-167310405D01*
X120075476Y-167249929D01*
X120015000Y-167128976D01*
X119954524Y-167068500D01*
X119833571Y-167008024D01*
X119591667Y-167008024D01*
X119470714Y-167068500D01*
X119410238Y-167128976D01*
X119349762Y-167249929D01*
X119349762Y-167310405D01*
X119410238Y-167431357D01*
X119470714Y-167491833D01*
X119591667Y-167552310D01*
X119833571Y-167552310D01*
X119954524Y-167612786D01*
X120015000Y-167673262D01*
X120075476Y-167794214D01*
X120075476Y-168036119D01*
X120015000Y-168157071D01*
X119954524Y-168217548D01*
X119833571Y-168278024D01*
X119591667Y-168278024D01*
X119470714Y-168217548D01*
X119410238Y-168157071D01*
X119349762Y-168036119D01*
X119349762Y-167794214D01*
X119410238Y-167673262D01*
X119470714Y-167612786D01*
X119591667Y-167552310D01*
X127332619Y-169040024D02*
X127332619Y-170068119D01*
X127272143Y-170189071D01*
X127211667Y-170249548D01*
X127090714Y-170310024D01*
X126848810Y-170310024D01*
X126727857Y-170249548D01*
X126667381Y-170189071D01*
X126606905Y-170068119D01*
X126606905Y-169040024D01*
X126062619Y-169160976D02*
X126002143Y-169100500D01*
X125881191Y-169040024D01*
X125578810Y-169040024D01*
X125457857Y-169100500D01*
X125397381Y-169160976D01*
X125336905Y-169281929D01*
X125336905Y-169402881D01*
X125397381Y-169584310D01*
X126123095Y-170310024D01*
X125336905Y-170310024D01*
X123825000Y-169644786D02*
X122857381Y-169644786D01*
X122857381Y-170007643D02*
X123825000Y-170007643D01*
X121285000Y-170310024D02*
X121285000Y-169040024D01*
X120982619Y-169040024D01*
X120801191Y-169100500D01*
X120680238Y-169221452D01*
X120619762Y-169342405D01*
X120559286Y-169584310D01*
X120559286Y-169765738D01*
X120619762Y-170007643D01*
X120680238Y-170128595D01*
X120801191Y-170249548D01*
X120982619Y-170310024D01*
X121285000Y-170310024D01*
X119954524Y-170310024D02*
X119712619Y-170310024D01*
X119591667Y-170249548D01*
X119531191Y-170189071D01*
X119410238Y-170007643D01*
X119349762Y-169765738D01*
X119349762Y-169281929D01*
X119410238Y-169160976D01*
X119470714Y-169100500D01*
X119591667Y-169040024D01*
X119833571Y-169040024D01*
X119954524Y-169100500D01*
X120015000Y-169160976D01*
X120075476Y-169281929D01*
X120075476Y-169584310D01*
X120015000Y-169705262D01*
X119954524Y-169765738D01*
X119833571Y-169826214D01*
X119591667Y-169826214D01*
X119470714Y-169765738D01*
X119410238Y-169705262D01*
X119349762Y-169584310D01*
X127332619Y-171072024D02*
X127332619Y-172100119D01*
X127272143Y-172221071D01*
X127211667Y-172281548D01*
X127090714Y-172342024D01*
X126848810Y-172342024D01*
X126727857Y-172281548D01*
X126667381Y-172221071D01*
X126606905Y-172100119D01*
X126606905Y-171072024D01*
X126123095Y-171072024D02*
X125336905Y-171072024D01*
X125760238Y-171555833D01*
X125578810Y-171555833D01*
X125457857Y-171616310D01*
X125397381Y-171676786D01*
X125336905Y-171797738D01*
X125336905Y-172100119D01*
X125397381Y-172221071D01*
X125457857Y-172281548D01*
X125578810Y-172342024D01*
X125941667Y-172342024D01*
X126062619Y-172281548D01*
X126123095Y-172221071D01*
X123825000Y-171676786D02*
X122857381Y-171676786D01*
X122857381Y-172039643D02*
X123825000Y-172039643D01*
X121285000Y-172342024D02*
X121285000Y-171072024D01*
X120982619Y-171072024D01*
X120801191Y-171132500D01*
X120680238Y-171253452D01*
X120619762Y-171374405D01*
X120559286Y-171616310D01*
X120559286Y-171797738D01*
X120619762Y-172039643D01*
X120680238Y-172160595D01*
X120801191Y-172281548D01*
X120982619Y-172342024D01*
X121285000Y-172342024D01*
X119349762Y-172342024D02*
X120075476Y-172342024D01*
X119712619Y-172342024D02*
X119712619Y-171072024D01*
X119833571Y-171253452D01*
X119954524Y-171374405D01*
X120075476Y-171434881D01*
X118563571Y-171072024D02*
X118442619Y-171072024D01*
X118321667Y-171132500D01*
X118261190Y-171192976D01*
X118200714Y-171313929D01*
X118140238Y-171555833D01*
X118140238Y-171858214D01*
X118200714Y-172100119D01*
X118261190Y-172221071D01*
X118321667Y-172281548D01*
X118442619Y-172342024D01*
X118563571Y-172342024D01*
X118684524Y-172281548D01*
X118745000Y-172221071D01*
X118805476Y-172100119D01*
X118865952Y-171858214D01*
X118865952Y-171555833D01*
X118805476Y-171313929D01*
X118745000Y-171192976D01*
X118684524Y-171132500D01*
X118563571Y-171072024D01*
M02*
