G04 #@! TF.FileFunction,Legend,Top*
%FSLAX46Y46*%
G04 Gerber Fmt 4.6, Leading zero omitted, Abs format (unit mm)*
G04 Created by KiCad (PCBNEW (2014-11-02 BZR 5250)-product) date 05/11/2014 13:18:46*
%MOMM*%
G01*
G04 APERTURE LIST*
%ADD10C,0.100000*%
%ADD11C,0.254000*%
%ADD12C,0.101600*%
%ADD13C,0.300000*%
%ADD14C,0.099060*%
%ADD15C,0.127000*%
%ADD16C,0.165100*%
%ADD17C,0.152400*%
%ADD18C,0.002540*%
G04 APERTURE END LIST*
D10*
D11*
X111527168Y-141735024D02*
X111527168Y-142763119D01*
X111587644Y-142884071D01*
X111648120Y-142944548D01*
X111769073Y-143005024D01*
X112010977Y-143005024D01*
X112131930Y-142944548D01*
X112192406Y-142884071D01*
X112252882Y-142763119D01*
X112252882Y-141735024D01*
X112797168Y-142944548D02*
X112918120Y-143005024D01*
X113160025Y-143005024D01*
X113280977Y-142944548D01*
X113341453Y-142823595D01*
X113341453Y-142763119D01*
X113280977Y-142642167D01*
X113160025Y-142581690D01*
X112978596Y-142581690D01*
X112857644Y-142521214D01*
X112797168Y-142400262D01*
X112797168Y-142339786D01*
X112857644Y-142218833D01*
X112978596Y-142158357D01*
X113160025Y-142158357D01*
X113280977Y-142218833D01*
X114369548Y-142944548D02*
X114248596Y-143005024D01*
X114006691Y-143005024D01*
X113885739Y-142944548D01*
X113825263Y-142823595D01*
X113825263Y-142339786D01*
X113885739Y-142218833D01*
X114006691Y-142158357D01*
X114248596Y-142158357D01*
X114369548Y-142218833D01*
X114430025Y-142339786D01*
X114430025Y-142460738D01*
X113825263Y-142581690D01*
X115820977Y-141735024D02*
X116607167Y-141735024D01*
X116183834Y-142218833D01*
X116365262Y-142218833D01*
X116486215Y-142279310D01*
X116546691Y-142339786D01*
X116607167Y-142460738D01*
X116607167Y-142763119D01*
X116546691Y-142884071D01*
X116486215Y-142944548D01*
X116365262Y-143005024D01*
X116002405Y-143005024D01*
X115881453Y-142944548D01*
X115820977Y-142884071D01*
X117151453Y-142884071D02*
X117211929Y-142944548D01*
X117151453Y-143005024D01*
X117090977Y-142944548D01*
X117151453Y-142884071D01*
X117151453Y-143005024D01*
X117635263Y-141735024D02*
X118421453Y-141735024D01*
X117998120Y-142218833D01*
X118179548Y-142218833D01*
X118300501Y-142279310D01*
X118360977Y-142339786D01*
X118421453Y-142460738D01*
X118421453Y-142763119D01*
X118360977Y-142884071D01*
X118300501Y-142944548D01*
X118179548Y-143005024D01*
X117816691Y-143005024D01*
X117695739Y-142944548D01*
X117635263Y-142884071D01*
X118784310Y-141735024D02*
X119207644Y-143005024D01*
X119630977Y-141735024D01*
X121445262Y-142339786D02*
X121021929Y-142339786D01*
X121021929Y-143005024D02*
X121021929Y-141735024D01*
X121626691Y-141735024D01*
X122836214Y-143005024D02*
X122412881Y-142400262D01*
X122110500Y-143005024D02*
X122110500Y-141735024D01*
X122594309Y-141735024D01*
X122715262Y-141795500D01*
X122775738Y-141855976D01*
X122836214Y-141976929D01*
X122836214Y-142158357D01*
X122775738Y-142279310D01*
X122715262Y-142339786D01*
X122594309Y-142400262D01*
X122110500Y-142400262D01*
X123320024Y-142642167D02*
X123924786Y-142642167D01*
X123199071Y-143005024D02*
X123622405Y-141735024D01*
X124045738Y-143005024D01*
X124469071Y-143005024D02*
X124469071Y-141735024D01*
X124892404Y-142642167D01*
X125315738Y-141735024D01*
X125315738Y-143005024D01*
X125860024Y-142944548D02*
X125980976Y-143005024D01*
X126222881Y-143005024D01*
X126343833Y-142944548D01*
X126404309Y-142823595D01*
X126404309Y-142763119D01*
X126343833Y-142642167D01*
X126222881Y-142581690D01*
X126041452Y-142581690D01*
X125920500Y-142521214D01*
X125860024Y-142400262D01*
X125860024Y-142339786D01*
X125920500Y-142218833D01*
X126041452Y-142158357D01*
X126222881Y-142158357D01*
X126343833Y-142218833D01*
D12*
X116368286Y-168420143D02*
X116295714Y-168383857D01*
X116150571Y-168383857D01*
X116078000Y-168420143D01*
X116005429Y-168492714D01*
X115969143Y-168565286D01*
X115969143Y-168710429D01*
X116005429Y-168783000D01*
X116078000Y-168855571D01*
X116150571Y-168891857D01*
X116295714Y-168891857D01*
X116368286Y-168855571D01*
X116223143Y-168129857D02*
X116041714Y-168166143D01*
X115860286Y-168275000D01*
X115751429Y-168456429D01*
X115715143Y-168637857D01*
X115751429Y-168819286D01*
X115860286Y-169000714D01*
X116041714Y-169109571D01*
X116223143Y-169145857D01*
X116404571Y-169109571D01*
X116586000Y-169000714D01*
X116694857Y-168819286D01*
X116731143Y-168637857D01*
X116694857Y-168456429D01*
X116586000Y-168275000D01*
X116404571Y-168166143D01*
X116223143Y-168129857D01*
X118073714Y-169000714D02*
X117819714Y-168637857D01*
X117638286Y-169000714D02*
X117638286Y-168238714D01*
X117928571Y-168238714D01*
X118001143Y-168275000D01*
X118037428Y-168311286D01*
X118073714Y-168383857D01*
X118073714Y-168492714D01*
X118037428Y-168565286D01*
X118001143Y-168601571D01*
X117928571Y-168637857D01*
X117638286Y-168637857D01*
X118726857Y-169000714D02*
X118726857Y-168601571D01*
X118690571Y-168529000D01*
X118618000Y-168492714D01*
X118472857Y-168492714D01*
X118400286Y-168529000D01*
X118726857Y-168964429D02*
X118654286Y-169000714D01*
X118472857Y-169000714D01*
X118400286Y-168964429D01*
X118364000Y-168891857D01*
X118364000Y-168819286D01*
X118400286Y-168746714D01*
X118472857Y-168710429D01*
X118654286Y-168710429D01*
X118726857Y-168674143D01*
X119017143Y-168492714D02*
X119198572Y-169000714D01*
X119380000Y-168492714D02*
X119198572Y-169000714D01*
X119126000Y-169182143D01*
X119089715Y-169218429D01*
X119017143Y-169254714D01*
X120504857Y-168601571D02*
X120613714Y-168637857D01*
X120649999Y-168674143D01*
X120686285Y-168746714D01*
X120686285Y-168855571D01*
X120649999Y-168928143D01*
X120613714Y-168964429D01*
X120541142Y-169000714D01*
X120250857Y-169000714D01*
X120250857Y-168238714D01*
X120504857Y-168238714D01*
X120577428Y-168275000D01*
X120613714Y-168311286D01*
X120649999Y-168383857D01*
X120649999Y-168456429D01*
X120613714Y-168529000D01*
X120577428Y-168565286D01*
X120504857Y-168601571D01*
X120250857Y-168601571D01*
X121303142Y-168964429D02*
X121230571Y-169000714D01*
X121085428Y-169000714D01*
X121012857Y-168964429D01*
X120976571Y-168891857D01*
X120976571Y-168601571D01*
X121012857Y-168529000D01*
X121085428Y-168492714D01*
X121230571Y-168492714D01*
X121303142Y-168529000D01*
X121339428Y-168601571D01*
X121339428Y-168674143D01*
X120976571Y-168746714D01*
X121666000Y-168492714D02*
X121666000Y-169000714D01*
X121666000Y-168565286D02*
X121702285Y-168529000D01*
X121774857Y-168492714D01*
X121883714Y-168492714D01*
X121956285Y-168529000D01*
X121992571Y-168601571D01*
X121992571Y-169000714D01*
X122355429Y-169000714D02*
X122355429Y-168492714D01*
X122355429Y-168238714D02*
X122319143Y-168275000D01*
X122355429Y-168311286D01*
X122391714Y-168275000D01*
X122355429Y-168238714D01*
X122355429Y-168311286D01*
X122609428Y-168492714D02*
X122899714Y-168492714D01*
X122718286Y-168238714D02*
X122718286Y-168891857D01*
X122754571Y-168964429D01*
X122827143Y-169000714D01*
X122899714Y-169000714D01*
X123444000Y-168964429D02*
X123371429Y-169000714D01*
X123226286Y-169000714D01*
X123153715Y-168964429D01*
X123117429Y-168891857D01*
X123117429Y-168601571D01*
X123153715Y-168529000D01*
X123226286Y-168492714D01*
X123371429Y-168492714D01*
X123444000Y-168529000D01*
X123480286Y-168601571D01*
X123480286Y-168674143D01*
X123117429Y-168746714D01*
X123734286Y-168492714D02*
X124133429Y-168492714D01*
X123734286Y-169000714D01*
X124133429Y-169000714D01*
X124968000Y-168311286D02*
X125004286Y-168275000D01*
X125076857Y-168238714D01*
X125258286Y-168238714D01*
X125330857Y-168275000D01*
X125367143Y-168311286D01*
X125403428Y-168383857D01*
X125403428Y-168456429D01*
X125367143Y-168565286D01*
X124931714Y-169000714D01*
X125403428Y-169000714D01*
X125875142Y-168238714D02*
X125947714Y-168238714D01*
X126020285Y-168275000D01*
X126056571Y-168311286D01*
X126092857Y-168383857D01*
X126129142Y-168529000D01*
X126129142Y-168710429D01*
X126092857Y-168855571D01*
X126056571Y-168928143D01*
X126020285Y-168964429D01*
X125947714Y-169000714D01*
X125875142Y-169000714D01*
X125802571Y-168964429D01*
X125766285Y-168928143D01*
X125730000Y-168855571D01*
X125693714Y-168710429D01*
X125693714Y-168529000D01*
X125730000Y-168383857D01*
X125766285Y-168311286D01*
X125802571Y-168275000D01*
X125875142Y-168238714D01*
X126854856Y-169000714D02*
X126419428Y-169000714D01*
X126637142Y-169000714D02*
X126637142Y-168238714D01*
X126564571Y-168347571D01*
X126491999Y-168420143D01*
X126419428Y-168456429D01*
X127507999Y-168492714D02*
X127507999Y-169000714D01*
X127326570Y-168202429D02*
X127145142Y-168746714D01*
X127616856Y-168746714D01*
D11*
X111001024Y-136131905D02*
X110396262Y-136555238D01*
X111001024Y-136857619D02*
X109731024Y-136857619D01*
X109731024Y-136373810D01*
X109791500Y-136252857D01*
X109851976Y-136192381D01*
X109972929Y-136131905D01*
X110154357Y-136131905D01*
X110275310Y-136192381D01*
X110335786Y-136252857D01*
X110396262Y-136373810D01*
X110396262Y-136857619D01*
X110335786Y-135587619D02*
X110335786Y-135164286D01*
X111001024Y-134982857D02*
X111001024Y-135587619D01*
X109731024Y-135587619D01*
X109731024Y-134982857D01*
X109731024Y-134620000D02*
X111001024Y-134196666D01*
X109731024Y-133773333D01*
X111001024Y-133350000D02*
X109731024Y-133350000D01*
X110940548Y-132805714D02*
X111001024Y-132624286D01*
X111001024Y-132321905D01*
X110940548Y-132200952D01*
X110880071Y-132140476D01*
X110759119Y-132080000D01*
X110638167Y-132080000D01*
X110517214Y-132140476D01*
X110456738Y-132200952D01*
X110396262Y-132321905D01*
X110335786Y-132563809D01*
X110275310Y-132684762D01*
X110214833Y-132745238D01*
X110093881Y-132805714D01*
X109972929Y-132805714D01*
X109851976Y-132745238D01*
X109791500Y-132684762D01*
X109731024Y-132563809D01*
X109731024Y-132261429D01*
X109791500Y-132080000D01*
X111001024Y-131535714D02*
X109731024Y-131535714D01*
X109731024Y-130689047D02*
X109731024Y-130447143D01*
X109791500Y-130326190D01*
X109912452Y-130205238D01*
X110154357Y-130144762D01*
X110577690Y-130144762D01*
X110819595Y-130205238D01*
X110940548Y-130326190D01*
X111001024Y-130447143D01*
X111001024Y-130689047D01*
X110940548Y-130810000D01*
X110819595Y-130930952D01*
X110577690Y-130991428D01*
X110154357Y-130991428D01*
X109912452Y-130930952D01*
X109791500Y-130810000D01*
X109731024Y-130689047D01*
X111001024Y-129600476D02*
X109731024Y-129600476D01*
X111001024Y-128874762D01*
X109731024Y-128874762D01*
X110880071Y-126576667D02*
X110940548Y-126637143D01*
X111001024Y-126818572D01*
X111001024Y-126939524D01*
X110940548Y-127120952D01*
X110819595Y-127241905D01*
X110698643Y-127302381D01*
X110456738Y-127362857D01*
X110275310Y-127362857D01*
X110033405Y-127302381D01*
X109912452Y-127241905D01*
X109791500Y-127120952D01*
X109731024Y-126939524D01*
X109731024Y-126818572D01*
X109791500Y-126637143D01*
X109851976Y-126576667D01*
X115845168Y-165039524D02*
X115845168Y-163769524D01*
X115845168Y-164374286D02*
X116570882Y-164374286D01*
X116570882Y-165039524D02*
X116570882Y-163769524D01*
X117719930Y-165039524D02*
X117719930Y-164374286D01*
X117659453Y-164253333D01*
X117538501Y-164192857D01*
X117296596Y-164192857D01*
X117175644Y-164253333D01*
X117719930Y-164979048D02*
X117598977Y-165039524D01*
X117296596Y-165039524D01*
X117175644Y-164979048D01*
X117115168Y-164858095D01*
X117115168Y-164737143D01*
X117175644Y-164616190D01*
X117296596Y-164555714D01*
X117598977Y-164555714D01*
X117719930Y-164495238D01*
X118868978Y-164979048D02*
X118748025Y-165039524D01*
X118506121Y-165039524D01*
X118385168Y-164979048D01*
X118324692Y-164918571D01*
X118264216Y-164797619D01*
X118264216Y-164434762D01*
X118324692Y-164313810D01*
X118385168Y-164253333D01*
X118506121Y-164192857D01*
X118748025Y-164192857D01*
X118868978Y-164253333D01*
X119413263Y-165039524D02*
X119413263Y-163769524D01*
X119534215Y-164555714D02*
X119897072Y-165039524D01*
X119897072Y-164192857D02*
X119413263Y-164676667D01*
X120380882Y-164979048D02*
X120501834Y-165039524D01*
X120743739Y-165039524D01*
X120864691Y-164979048D01*
X120925167Y-164858095D01*
X120925167Y-164797619D01*
X120864691Y-164676667D01*
X120743739Y-164616190D01*
X120562310Y-164616190D01*
X120441358Y-164555714D01*
X120380882Y-164434762D01*
X120380882Y-164374286D01*
X120441358Y-164253333D01*
X120562310Y-164192857D01*
X120743739Y-164192857D01*
X120864691Y-164253333D01*
X122013739Y-164979048D02*
X121892786Y-165039524D01*
X121650882Y-165039524D01*
X121529929Y-164979048D01*
X121469453Y-164918571D01*
X121408977Y-164797619D01*
X121408977Y-164434762D01*
X121469453Y-164313810D01*
X121529929Y-164253333D01*
X121650882Y-164192857D01*
X121892786Y-164192857D01*
X122013739Y-164253333D01*
X122558024Y-165039524D02*
X122558024Y-164192857D01*
X122558024Y-164434762D02*
X122618500Y-164313810D01*
X122678976Y-164253333D01*
X122799929Y-164192857D01*
X122920881Y-164192857D01*
X123344214Y-165039524D02*
X123344214Y-164192857D01*
X123344214Y-163769524D02*
X123283738Y-163830000D01*
X123344214Y-163890476D01*
X123404690Y-163830000D01*
X123344214Y-163769524D01*
X123344214Y-163890476D01*
X123948976Y-165039524D02*
X123948976Y-163769524D01*
X123948976Y-164253333D02*
X124069928Y-164192857D01*
X124311833Y-164192857D01*
X124432785Y-164253333D01*
X124493262Y-164313810D01*
X124553738Y-164434762D01*
X124553738Y-164797619D01*
X124493262Y-164918571D01*
X124432785Y-164979048D01*
X124311833Y-165039524D01*
X124069928Y-165039524D01*
X123948976Y-164979048D01*
X125098024Y-165039524D02*
X125098024Y-163769524D01*
X125098024Y-164253333D02*
X125218976Y-164192857D01*
X125460881Y-164192857D01*
X125581833Y-164253333D01*
X125642310Y-164313810D01*
X125702786Y-164434762D01*
X125702786Y-164797619D01*
X125642310Y-164918571D01*
X125581833Y-164979048D01*
X125460881Y-165039524D01*
X125218976Y-165039524D01*
X125098024Y-164979048D01*
X126428501Y-165039524D02*
X126307548Y-164979048D01*
X126247072Y-164858095D01*
X126247072Y-163769524D01*
X127396119Y-164979048D02*
X127275167Y-165039524D01*
X127033262Y-165039524D01*
X126912310Y-164979048D01*
X126851834Y-164858095D01*
X126851834Y-164374286D01*
X126912310Y-164253333D01*
X127033262Y-164192857D01*
X127275167Y-164192857D01*
X127396119Y-164253333D01*
X127456596Y-164374286D01*
X127456596Y-164495238D01*
X126851834Y-164616190D01*
X111248976Y-166406286D02*
X110825643Y-166406286D01*
X110825643Y-167071524D02*
X110825643Y-165801524D01*
X111430405Y-165801524D01*
X112639928Y-167071524D02*
X112216595Y-166466762D01*
X111914214Y-167071524D02*
X111914214Y-165801524D01*
X112398023Y-165801524D01*
X112518976Y-165862000D01*
X112579452Y-165922476D01*
X112639928Y-166043429D01*
X112639928Y-166224857D01*
X112579452Y-166345810D01*
X112518976Y-166406286D01*
X112398023Y-166466762D01*
X111914214Y-166466762D01*
X113123738Y-166708667D02*
X113728500Y-166708667D01*
X113002785Y-167071524D02*
X113426119Y-165801524D01*
X113849452Y-167071524D01*
X114272785Y-167071524D02*
X114272785Y-165801524D01*
X114696118Y-166708667D01*
X115119452Y-165801524D01*
X115119452Y-167071524D01*
X116691833Y-167071524D02*
X116691833Y-166224857D01*
X116691833Y-166345810D02*
X116752309Y-166285333D01*
X116873262Y-166224857D01*
X117054690Y-166224857D01*
X117175642Y-166285333D01*
X117236119Y-166406286D01*
X117236119Y-167071524D01*
X117236119Y-166406286D02*
X117296595Y-166285333D01*
X117417547Y-166224857D01*
X117598976Y-166224857D01*
X117719928Y-166285333D01*
X117780404Y-166406286D01*
X117780404Y-167071524D01*
X118385166Y-167071524D02*
X118385166Y-166224857D01*
X118385166Y-165801524D02*
X118324690Y-165862000D01*
X118385166Y-165922476D01*
X118445642Y-165862000D01*
X118385166Y-165801524D01*
X118385166Y-165922476D01*
X118989928Y-166224857D02*
X118989928Y-167071524D01*
X118989928Y-166345810D02*
X119050404Y-166285333D01*
X119171357Y-166224857D01*
X119352785Y-166224857D01*
X119473737Y-166285333D01*
X119534214Y-166406286D01*
X119534214Y-167071524D01*
X120138976Y-167071524D02*
X120138976Y-166224857D01*
X120138976Y-165801524D02*
X120078500Y-165862000D01*
X120138976Y-165922476D01*
X120199452Y-165862000D01*
X120138976Y-165801524D01*
X120138976Y-165922476D01*
X120743738Y-166587714D02*
X121711357Y-166587714D01*
X122255643Y-167011048D02*
X122376595Y-167071524D01*
X122618500Y-167071524D01*
X122739452Y-167011048D01*
X122799928Y-166890095D01*
X122799928Y-166829619D01*
X122739452Y-166708667D01*
X122618500Y-166648190D01*
X122437071Y-166648190D01*
X122316119Y-166587714D01*
X122255643Y-166466762D01*
X122255643Y-166406286D01*
X122316119Y-166285333D01*
X122437071Y-166224857D01*
X122618500Y-166224857D01*
X122739452Y-166285333D01*
X123344214Y-167071524D02*
X123344214Y-165801524D01*
X123888500Y-167071524D02*
X123888500Y-166406286D01*
X123828023Y-166285333D01*
X123707071Y-166224857D01*
X123525643Y-166224857D01*
X123404690Y-166285333D01*
X123344214Y-166345810D01*
X124493262Y-167071524D02*
X124493262Y-166224857D01*
X124493262Y-165801524D02*
X124432786Y-165862000D01*
X124493262Y-165922476D01*
X124553738Y-165862000D01*
X124493262Y-165801524D01*
X124493262Y-165922476D01*
X125581833Y-167011048D02*
X125460881Y-167071524D01*
X125218976Y-167071524D01*
X125098024Y-167011048D01*
X125037548Y-166890095D01*
X125037548Y-166406286D01*
X125098024Y-166285333D01*
X125218976Y-166224857D01*
X125460881Y-166224857D01*
X125581833Y-166285333D01*
X125642310Y-166406286D01*
X125642310Y-166527238D01*
X125037548Y-166648190D01*
X126368024Y-167071524D02*
X126247071Y-167011048D01*
X126186595Y-166890095D01*
X126186595Y-165801524D01*
X127396119Y-167071524D02*
X127396119Y-165801524D01*
X127396119Y-167011048D02*
X127275166Y-167071524D01*
X127033262Y-167071524D01*
X126912309Y-167011048D01*
X126851833Y-166950571D01*
X126791357Y-166829619D01*
X126791357Y-166466762D01*
X126851833Y-166345810D01*
X126912309Y-166285333D01*
X127033262Y-166224857D01*
X127275166Y-166224857D01*
X127396119Y-166285333D01*
D13*
X125892858Y-130282071D02*
X125892858Y-128782071D01*
X126250001Y-128782071D01*
X126464286Y-128853500D01*
X126607144Y-128996357D01*
X126678572Y-129139214D01*
X126750001Y-129424929D01*
X126750001Y-129639214D01*
X126678572Y-129924929D01*
X126607144Y-130067786D01*
X126464286Y-130210643D01*
X126250001Y-130282071D01*
X125892858Y-130282071D01*
X127607144Y-129424929D02*
X127464286Y-129353500D01*
X127392858Y-129282071D01*
X127321429Y-129139214D01*
X127321429Y-129067786D01*
X127392858Y-128924929D01*
X127464286Y-128853500D01*
X127607144Y-128782071D01*
X127892858Y-128782071D01*
X128035715Y-128853500D01*
X128107144Y-128924929D01*
X128178572Y-129067786D01*
X128178572Y-129139214D01*
X128107144Y-129282071D01*
X128035715Y-129353500D01*
X127892858Y-129424929D01*
X127607144Y-129424929D01*
X127464286Y-129496357D01*
X127392858Y-129567786D01*
X127321429Y-129710643D01*
X127321429Y-129996357D01*
X127392858Y-130139214D01*
X127464286Y-130210643D01*
X127607144Y-130282071D01*
X127892858Y-130282071D01*
X128035715Y-130210643D01*
X128107144Y-130139214D01*
X128178572Y-129996357D01*
X128178572Y-129710643D01*
X128107144Y-129567786D01*
X128035715Y-129496357D01*
X127892858Y-129424929D01*
X129421143Y-172025571D02*
X129921143Y-173525571D01*
X130421143Y-172025571D01*
X130921143Y-173525571D02*
X130921143Y-172025571D01*
X131635429Y-173525571D02*
X131635429Y-172025571D01*
X132492572Y-173525571D01*
X132492572Y-172025571D01*
D14*
X112903000Y-148717000D02*
G75*
G03X112903000Y-148717000I-127000J0D01*
G01*
X112776000Y-147574000D02*
X112776000Y-148590000D01*
X112776000Y-148590000D02*
X111252000Y-148590000D01*
X111252000Y-148590000D02*
X111252000Y-147574000D01*
X111252000Y-146558000D02*
X111252000Y-145542000D01*
X111252000Y-145542000D02*
X112776000Y-145542000D01*
X112776000Y-145542000D02*
X112776000Y-146558000D01*
X122047000Y-148717000D02*
G75*
G03X122047000Y-148717000I-127000J0D01*
G01*
X121920000Y-147574000D02*
X121920000Y-148590000D01*
X121920000Y-148590000D02*
X120396000Y-148590000D01*
X120396000Y-148590000D02*
X120396000Y-147574000D01*
X120396000Y-146558000D02*
X120396000Y-145542000D01*
X120396000Y-145542000D02*
X121920000Y-145542000D01*
X121920000Y-145542000D02*
X121920000Y-146558000D01*
X112903000Y-157924500D02*
G75*
G03X112903000Y-157924500I-127000J0D01*
G01*
X112776000Y-156781500D02*
X112776000Y-157797500D01*
X112776000Y-157797500D02*
X111252000Y-157797500D01*
X111252000Y-157797500D02*
X111252000Y-156781500D01*
X111252000Y-155765500D02*
X111252000Y-154749500D01*
X111252000Y-154749500D02*
X112776000Y-154749500D01*
X112776000Y-154749500D02*
X112776000Y-155765500D01*
X111379000Y-149479000D02*
G75*
G03X111379000Y-149479000I-127000J0D01*
G01*
X111252000Y-150622000D02*
X111252000Y-149606000D01*
X111252000Y-149606000D02*
X112776000Y-149606000D01*
X112776000Y-149606000D02*
X112776000Y-150622000D01*
X112776000Y-151638000D02*
X112776000Y-152654000D01*
X112776000Y-152654000D02*
X111252000Y-152654000D01*
X111252000Y-152654000D02*
X111252000Y-151638000D01*
X120523000Y-149479000D02*
G75*
G03X120523000Y-149479000I-127000J0D01*
G01*
X120396000Y-150622000D02*
X120396000Y-149606000D01*
X120396000Y-149606000D02*
X121920000Y-149606000D01*
X121920000Y-149606000D02*
X121920000Y-150622000D01*
X121920000Y-151638000D02*
X121920000Y-152654000D01*
X121920000Y-152654000D02*
X120396000Y-152654000D01*
X120396000Y-152654000D02*
X120396000Y-151638000D01*
X111379000Y-158686500D02*
G75*
G03X111379000Y-158686500I-127000J0D01*
G01*
X111252000Y-159829500D02*
X111252000Y-158813500D01*
X111252000Y-158813500D02*
X112776000Y-158813500D01*
X112776000Y-158813500D02*
X112776000Y-159829500D01*
X112776000Y-160845500D02*
X112776000Y-161861500D01*
X112776000Y-161861500D02*
X111252000Y-161861500D01*
X111252000Y-161861500D02*
X111252000Y-160845500D01*
X116586000Y-130429000D02*
G75*
G03X116586000Y-130429000I-127000J0D01*
G01*
X115316000Y-130429000D02*
X116332000Y-130429000D01*
X116332000Y-130429000D02*
X116332000Y-131953000D01*
X116332000Y-131953000D02*
X115316000Y-131953000D01*
X114300000Y-131953000D02*
X113284000Y-131953000D01*
X113284000Y-131953000D02*
X113284000Y-130429000D01*
X113284000Y-130429000D02*
X114300000Y-130429000D01*
X116586000Y-133540500D02*
G75*
G03X116586000Y-133540500I-127000J0D01*
G01*
X115316000Y-133540500D02*
X116332000Y-133540500D01*
X116332000Y-133540500D02*
X116332000Y-135064500D01*
X116332000Y-135064500D02*
X115316000Y-135064500D01*
X114300000Y-135064500D02*
X113284000Y-135064500D01*
X113284000Y-135064500D02*
X113284000Y-133540500D01*
X113284000Y-133540500D02*
X114300000Y-133540500D01*
D15*
X115570000Y-127635000D02*
X114935000Y-128270000D01*
X114935000Y-128270000D02*
X113665000Y-128270000D01*
X113665000Y-128270000D02*
X113030000Y-127635000D01*
X113030000Y-127635000D02*
X113030000Y-126365000D01*
X113030000Y-126365000D02*
X113665000Y-125730000D01*
X113665000Y-125730000D02*
X114935000Y-125730000D01*
X114935000Y-125730000D02*
X115570000Y-126365000D01*
X118110000Y-127635000D02*
X117475000Y-128270000D01*
X117475000Y-128270000D02*
X116205000Y-128270000D01*
X116205000Y-128270000D02*
X115570000Y-127635000D01*
X115570000Y-126365000D02*
X116205000Y-125730000D01*
X116205000Y-125730000D02*
X117475000Y-125730000D01*
X117475000Y-125730000D02*
X118110000Y-126365000D01*
X120650000Y-127635000D02*
X120015000Y-128270000D01*
X120015000Y-128270000D02*
X118745000Y-128270000D01*
X118745000Y-128270000D02*
X118110000Y-127635000D01*
X118110000Y-126365000D02*
X118745000Y-125730000D01*
X118745000Y-125730000D02*
X120015000Y-125730000D01*
X120015000Y-125730000D02*
X120650000Y-126365000D01*
X125730000Y-127635000D02*
X125095000Y-128270000D01*
X125095000Y-128270000D02*
X123825000Y-128270000D01*
X123825000Y-128270000D02*
X123190000Y-127635000D01*
X123190000Y-127635000D02*
X122555000Y-128270000D01*
X122555000Y-128270000D02*
X121285000Y-128270000D01*
X121285000Y-128270000D02*
X120650000Y-127635000D01*
X120650000Y-126365000D02*
X121285000Y-125730000D01*
X121285000Y-125730000D02*
X122555000Y-125730000D01*
X122555000Y-125730000D02*
X123190000Y-126365000D01*
X123190000Y-126365000D02*
X123825000Y-125730000D01*
X123825000Y-125730000D02*
X125095000Y-125730000D01*
X125095000Y-125730000D02*
X125730000Y-126365000D01*
X128270000Y-127635000D02*
X127635000Y-128270000D01*
X127635000Y-128270000D02*
X126365000Y-128270000D01*
X126365000Y-128270000D02*
X125730000Y-127635000D01*
X125730000Y-126365000D02*
X126365000Y-125730000D01*
X126365000Y-125730000D02*
X127635000Y-125730000D01*
X127635000Y-125730000D02*
X128270000Y-126365000D01*
X128270000Y-126365000D02*
X128270000Y-127635000D01*
D16*
X124460000Y-130937000D02*
X116840000Y-130937000D01*
X116840000Y-134493000D02*
X124460000Y-134493000D01*
X124460000Y-130937000D02*
X124460000Y-134493000D01*
D17*
X116840000Y-134493000D02*
X116840000Y-130937000D01*
D15*
X117707210Y-133985000D02*
G75*
G03X117707210Y-133985000I-359210J0D01*
G01*
X116840000Y-132080000D02*
X117602000Y-132080000D01*
X117602000Y-132080000D02*
X117602000Y-133350000D01*
X117602000Y-133350000D02*
X116840000Y-133350000D01*
X113284000Y-160083500D02*
X113284000Y-160210500D01*
X113284000Y-160210500D02*
X118618000Y-160210500D01*
X118618000Y-156400500D02*
X113284000Y-156400500D01*
X113284000Y-156400500D02*
X113284000Y-160083500D01*
X113284000Y-157797500D02*
X113792000Y-157797500D01*
X113792000Y-157797500D02*
X113792000Y-158813500D01*
X113792000Y-158813500D02*
X113284000Y-158813500D01*
X118618000Y-156400500D02*
X118618000Y-160210500D01*
X113284000Y-150876000D02*
X113284000Y-151003000D01*
X113284000Y-151003000D02*
X118618000Y-151003000D01*
X118618000Y-147193000D02*
X113284000Y-147193000D01*
X113284000Y-147193000D02*
X113284000Y-150876000D01*
X113284000Y-148590000D02*
X113792000Y-148590000D01*
X113792000Y-148590000D02*
X113792000Y-149606000D01*
X113792000Y-149606000D02*
X113284000Y-149606000D01*
X118618000Y-147193000D02*
X118618000Y-151003000D01*
X122428000Y-150876000D02*
X122428000Y-151003000D01*
X122428000Y-151003000D02*
X127762000Y-151003000D01*
X127762000Y-147193000D02*
X122428000Y-147193000D01*
X122428000Y-147193000D02*
X122428000Y-150876000D01*
X122428000Y-148590000D02*
X122936000Y-148590000D01*
X122936000Y-148590000D02*
X122936000Y-149606000D01*
X122936000Y-149606000D02*
X122428000Y-149606000D01*
X127762000Y-147193000D02*
X127762000Y-151003000D01*
X114554000Y-175895000D02*
X113919000Y-176530000D01*
X113919000Y-176530000D02*
X112649000Y-176530000D01*
X112649000Y-176530000D02*
X112014000Y-175895000D01*
X112014000Y-175895000D02*
X112014000Y-174625000D01*
X112014000Y-174625000D02*
X112649000Y-173990000D01*
X112649000Y-173990000D02*
X113919000Y-173990000D01*
X113919000Y-173990000D02*
X114554000Y-174625000D01*
X117094000Y-175895000D02*
X116459000Y-176530000D01*
X116459000Y-176530000D02*
X115189000Y-176530000D01*
X115189000Y-176530000D02*
X114554000Y-175895000D01*
X114554000Y-174625000D02*
X115189000Y-173990000D01*
X115189000Y-173990000D02*
X116459000Y-173990000D01*
X116459000Y-173990000D02*
X117094000Y-174625000D01*
X119634000Y-175895000D02*
X118999000Y-176530000D01*
X118999000Y-176530000D02*
X117729000Y-176530000D01*
X117729000Y-176530000D02*
X117094000Y-175895000D01*
X117094000Y-174625000D02*
X117729000Y-173990000D01*
X117729000Y-173990000D02*
X118999000Y-173990000D01*
X118999000Y-173990000D02*
X119634000Y-174625000D01*
X122174000Y-175895000D02*
X121539000Y-176530000D01*
X121539000Y-176530000D02*
X120269000Y-176530000D01*
X120269000Y-176530000D02*
X119634000Y-175895000D01*
X119634000Y-174625000D02*
X120269000Y-173990000D01*
X120269000Y-173990000D02*
X121539000Y-173990000D01*
X121539000Y-173990000D02*
X122174000Y-174625000D01*
X124714000Y-175895000D02*
X124079000Y-176530000D01*
X124079000Y-176530000D02*
X122809000Y-176530000D01*
X122809000Y-176530000D02*
X122174000Y-175895000D01*
X122174000Y-174625000D02*
X122809000Y-173990000D01*
X122809000Y-173990000D02*
X124079000Y-173990000D01*
X124079000Y-173990000D02*
X124714000Y-174625000D01*
X129794000Y-175895000D02*
X129159000Y-176530000D01*
X129159000Y-176530000D02*
X127889000Y-176530000D01*
X127889000Y-176530000D02*
X127254000Y-175895000D01*
X127254000Y-175895000D02*
X126619000Y-176530000D01*
X126619000Y-176530000D02*
X125349000Y-176530000D01*
X125349000Y-176530000D02*
X124714000Y-175895000D01*
X124714000Y-174625000D02*
X125349000Y-173990000D01*
X125349000Y-173990000D02*
X126619000Y-173990000D01*
X126619000Y-173990000D02*
X127254000Y-174625000D01*
X127254000Y-174625000D02*
X127889000Y-173990000D01*
X127889000Y-173990000D02*
X129159000Y-173990000D01*
X129159000Y-173990000D02*
X129794000Y-174625000D01*
X132334000Y-175895000D02*
X131699000Y-176530000D01*
X131699000Y-176530000D02*
X130429000Y-176530000D01*
X130429000Y-176530000D02*
X129794000Y-175895000D01*
X129794000Y-174625000D02*
X130429000Y-173990000D01*
X130429000Y-173990000D02*
X131699000Y-173990000D01*
X131699000Y-173990000D02*
X132334000Y-174625000D01*
X132334000Y-174625000D02*
X132334000Y-175895000D01*
D18*
G36*
X127655320Y-162453320D02*
X127063500Y-162453320D01*
X127063500Y-159854900D01*
X127035560Y-159585660D01*
X126941580Y-159372300D01*
X126761240Y-159207200D01*
X126474220Y-159072580D01*
X126057660Y-158958280D01*
X125493780Y-158849060D01*
X125473460Y-158846520D01*
X124927360Y-158737300D01*
X124523500Y-158623000D01*
X124272040Y-158506160D01*
X124183140Y-158389320D01*
X124183140Y-158384240D01*
X124239020Y-158282640D01*
X124383800Y-158107380D01*
X124546360Y-157937200D01*
X125021340Y-157558740D01*
X125580140Y-157261560D01*
X125867160Y-157159960D01*
X125976380Y-157134560D01*
X126032260Y-157159960D01*
X126050040Y-157271720D01*
X126037340Y-157502860D01*
X126024640Y-157662880D01*
X126006860Y-157965140D01*
X126014480Y-158132780D01*
X126052580Y-158198820D01*
X126118620Y-158201360D01*
X126263400Y-158097220D01*
X126387860Y-157871160D01*
X126484380Y-157573980D01*
X126537720Y-157256480D01*
X126540260Y-156966920D01*
X126479300Y-156756100D01*
X126436120Y-156702760D01*
X126212600Y-156626560D01*
X125874780Y-156669740D01*
X125420120Y-156827220D01*
X125072140Y-156989780D01*
X124472700Y-157337760D01*
X124040900Y-157693360D01*
X123776740Y-158061660D01*
X123677680Y-158437580D01*
X123675140Y-158478220D01*
X123718320Y-158724600D01*
X123855480Y-158925260D01*
X124104400Y-159087820D01*
X124480320Y-159222440D01*
X124998480Y-159334200D01*
X125427740Y-159402780D01*
X125933200Y-159494220D01*
X126276100Y-159605980D01*
X126469140Y-159743140D01*
X126519940Y-159913320D01*
X126436120Y-160124140D01*
X126428500Y-160134300D01*
X126202440Y-160360360D01*
X125890020Y-160533080D01*
X125544580Y-160629600D01*
X125224540Y-160637220D01*
X125059440Y-160583880D01*
X124889260Y-160517840D01*
X124767340Y-160566100D01*
X124719080Y-160609280D01*
X124614940Y-160787080D01*
X124653040Y-160939480D01*
X124807980Y-161058860D01*
X125051820Y-161137600D01*
X125364240Y-161168080D01*
X125714760Y-161137600D01*
X126052580Y-161051240D01*
X126525020Y-160822640D01*
X126852680Y-160515300D01*
X127030480Y-160136840D01*
X127063500Y-159854900D01*
X127063500Y-162453320D01*
X123548140Y-162453320D01*
X123337320Y-162453320D01*
X123337320Y-161183320D01*
X123337320Y-159552640D01*
X123334780Y-158965900D01*
X123327160Y-158521400D01*
X123311920Y-158193740D01*
X123286520Y-157957520D01*
X123250960Y-157787340D01*
X123200160Y-157652720D01*
X123187460Y-157627320D01*
X122986800Y-157342840D01*
X122702320Y-157159960D01*
X122308620Y-157065980D01*
X121790460Y-157053280D01*
X121135140Y-157076140D01*
X121135140Y-156250640D01*
X121135140Y-155425140D01*
X120713500Y-155425140D01*
X120289320Y-155425140D01*
X120289320Y-158305500D01*
X120289320Y-161183320D01*
X120713500Y-161183320D01*
X121135140Y-161183320D01*
X121135140Y-159644080D01*
X121137680Y-159082740D01*
X121145300Y-158668720D01*
X121160540Y-158371540D01*
X121183400Y-158170880D01*
X121218960Y-158043880D01*
X121267220Y-157960060D01*
X121274840Y-157949900D01*
X121483120Y-157830520D01*
X121770140Y-157792420D01*
X122064780Y-157830520D01*
X122298460Y-157944820D01*
X122321320Y-157965140D01*
X122382280Y-158036260D01*
X122425460Y-158130240D01*
X122455940Y-158272480D01*
X122476260Y-158485840D01*
X122486420Y-158798260D01*
X122488960Y-159235140D01*
X122491500Y-159659320D01*
X122491500Y-161183320D01*
X122913140Y-161183320D01*
X123337320Y-161183320D01*
X123337320Y-162453320D01*
X119443500Y-162453320D01*
X119443500Y-158346140D01*
X119443500Y-154241500D01*
X123548140Y-154241500D01*
X127655320Y-154241500D01*
X127655320Y-158346140D01*
X127655320Y-162453320D01*
X127655320Y-162453320D01*
X127655320Y-162453320D01*
G37*
X127655320Y-162453320D02*
X127063500Y-162453320D01*
X127063500Y-159854900D01*
X127035560Y-159585660D01*
X126941580Y-159372300D01*
X126761240Y-159207200D01*
X126474220Y-159072580D01*
X126057660Y-158958280D01*
X125493780Y-158849060D01*
X125473460Y-158846520D01*
X124927360Y-158737300D01*
X124523500Y-158623000D01*
X124272040Y-158506160D01*
X124183140Y-158389320D01*
X124183140Y-158384240D01*
X124239020Y-158282640D01*
X124383800Y-158107380D01*
X124546360Y-157937200D01*
X125021340Y-157558740D01*
X125580140Y-157261560D01*
X125867160Y-157159960D01*
X125976380Y-157134560D01*
X126032260Y-157159960D01*
X126050040Y-157271720D01*
X126037340Y-157502860D01*
X126024640Y-157662880D01*
X126006860Y-157965140D01*
X126014480Y-158132780D01*
X126052580Y-158198820D01*
X126118620Y-158201360D01*
X126263400Y-158097220D01*
X126387860Y-157871160D01*
X126484380Y-157573980D01*
X126537720Y-157256480D01*
X126540260Y-156966920D01*
X126479300Y-156756100D01*
X126436120Y-156702760D01*
X126212600Y-156626560D01*
X125874780Y-156669740D01*
X125420120Y-156827220D01*
X125072140Y-156989780D01*
X124472700Y-157337760D01*
X124040900Y-157693360D01*
X123776740Y-158061660D01*
X123677680Y-158437580D01*
X123675140Y-158478220D01*
X123718320Y-158724600D01*
X123855480Y-158925260D01*
X124104400Y-159087820D01*
X124480320Y-159222440D01*
X124998480Y-159334200D01*
X125427740Y-159402780D01*
X125933200Y-159494220D01*
X126276100Y-159605980D01*
X126469140Y-159743140D01*
X126519940Y-159913320D01*
X126436120Y-160124140D01*
X126428500Y-160134300D01*
X126202440Y-160360360D01*
X125890020Y-160533080D01*
X125544580Y-160629600D01*
X125224540Y-160637220D01*
X125059440Y-160583880D01*
X124889260Y-160517840D01*
X124767340Y-160566100D01*
X124719080Y-160609280D01*
X124614940Y-160787080D01*
X124653040Y-160939480D01*
X124807980Y-161058860D01*
X125051820Y-161137600D01*
X125364240Y-161168080D01*
X125714760Y-161137600D01*
X126052580Y-161051240D01*
X126525020Y-160822640D01*
X126852680Y-160515300D01*
X127030480Y-160136840D01*
X127063500Y-159854900D01*
X127063500Y-162453320D01*
X123548140Y-162453320D01*
X123337320Y-162453320D01*
X123337320Y-161183320D01*
X123337320Y-159552640D01*
X123334780Y-158965900D01*
X123327160Y-158521400D01*
X123311920Y-158193740D01*
X123286520Y-157957520D01*
X123250960Y-157787340D01*
X123200160Y-157652720D01*
X123187460Y-157627320D01*
X122986800Y-157342840D01*
X122702320Y-157159960D01*
X122308620Y-157065980D01*
X121790460Y-157053280D01*
X121135140Y-157076140D01*
X121135140Y-156250640D01*
X121135140Y-155425140D01*
X120713500Y-155425140D01*
X120289320Y-155425140D01*
X120289320Y-158305500D01*
X120289320Y-161183320D01*
X120713500Y-161183320D01*
X121135140Y-161183320D01*
X121135140Y-159644080D01*
X121137680Y-159082740D01*
X121145300Y-158668720D01*
X121160540Y-158371540D01*
X121183400Y-158170880D01*
X121218960Y-158043880D01*
X121267220Y-157960060D01*
X121274840Y-157949900D01*
X121483120Y-157830520D01*
X121770140Y-157792420D01*
X122064780Y-157830520D01*
X122298460Y-157944820D01*
X122321320Y-157965140D01*
X122382280Y-158036260D01*
X122425460Y-158130240D01*
X122455940Y-158272480D01*
X122476260Y-158485840D01*
X122486420Y-158798260D01*
X122488960Y-159235140D01*
X122491500Y-159659320D01*
X122491500Y-161183320D01*
X122913140Y-161183320D01*
X123337320Y-161183320D01*
X123337320Y-162453320D01*
X119443500Y-162453320D01*
X119443500Y-158346140D01*
X119443500Y-154241500D01*
X123548140Y-154241500D01*
X127655320Y-154241500D01*
X127655320Y-158346140D01*
X127655320Y-162453320D01*
X127655320Y-162453320D01*
D15*
X110762143Y-147193000D02*
X110798429Y-147229286D01*
X110834714Y-147338143D01*
X110834714Y-147410714D01*
X110798429Y-147519571D01*
X110725857Y-147592143D01*
X110653286Y-147628428D01*
X110508143Y-147664714D01*
X110399286Y-147664714D01*
X110254143Y-147628428D01*
X110181571Y-147592143D01*
X110109000Y-147519571D01*
X110072714Y-147410714D01*
X110072714Y-147338143D01*
X110109000Y-147229286D01*
X110145286Y-147193000D01*
X110834714Y-146467286D02*
X110834714Y-146902714D01*
X110834714Y-146685000D02*
X110072714Y-146685000D01*
X110181571Y-146757571D01*
X110254143Y-146830143D01*
X110290429Y-146902714D01*
X119906143Y-147193000D02*
X119942429Y-147229286D01*
X119978714Y-147338143D01*
X119978714Y-147410714D01*
X119942429Y-147519571D01*
X119869857Y-147592143D01*
X119797286Y-147628428D01*
X119652143Y-147664714D01*
X119543286Y-147664714D01*
X119398143Y-147628428D01*
X119325571Y-147592143D01*
X119253000Y-147519571D01*
X119216714Y-147410714D01*
X119216714Y-147338143D01*
X119253000Y-147229286D01*
X119289286Y-147193000D01*
X119289286Y-146902714D02*
X119253000Y-146866428D01*
X119216714Y-146793857D01*
X119216714Y-146612428D01*
X119253000Y-146539857D01*
X119289286Y-146503571D01*
X119361857Y-146467286D01*
X119434429Y-146467286D01*
X119543286Y-146503571D01*
X119978714Y-146939000D01*
X119978714Y-146467286D01*
X110762143Y-156400500D02*
X110798429Y-156436786D01*
X110834714Y-156545643D01*
X110834714Y-156618214D01*
X110798429Y-156727071D01*
X110725857Y-156799643D01*
X110653286Y-156835928D01*
X110508143Y-156872214D01*
X110399286Y-156872214D01*
X110254143Y-156835928D01*
X110181571Y-156799643D01*
X110109000Y-156727071D01*
X110072714Y-156618214D01*
X110072714Y-156545643D01*
X110109000Y-156436786D01*
X110145286Y-156400500D01*
X110072714Y-156146500D02*
X110072714Y-155674786D01*
X110363000Y-155928786D01*
X110363000Y-155819928D01*
X110399286Y-155747357D01*
X110435571Y-155711071D01*
X110508143Y-155674786D01*
X110689571Y-155674786D01*
X110762143Y-155711071D01*
X110798429Y-155747357D01*
X110834714Y-155819928D01*
X110834714Y-156037643D01*
X110798429Y-156110214D01*
X110762143Y-156146500D01*
X110762143Y-151257000D02*
X110798429Y-151293286D01*
X110834714Y-151402143D01*
X110834714Y-151474714D01*
X110798429Y-151583571D01*
X110725857Y-151656143D01*
X110653286Y-151692428D01*
X110508143Y-151728714D01*
X110399286Y-151728714D01*
X110254143Y-151692428D01*
X110181571Y-151656143D01*
X110109000Y-151583571D01*
X110072714Y-151474714D01*
X110072714Y-151402143D01*
X110109000Y-151293286D01*
X110145286Y-151257000D01*
X110326714Y-150603857D02*
X110834714Y-150603857D01*
X110036429Y-150785286D02*
X110580714Y-150966714D01*
X110580714Y-150495000D01*
X119906143Y-151257000D02*
X119942429Y-151293286D01*
X119978714Y-151402143D01*
X119978714Y-151474714D01*
X119942429Y-151583571D01*
X119869857Y-151656143D01*
X119797286Y-151692428D01*
X119652143Y-151728714D01*
X119543286Y-151728714D01*
X119398143Y-151692428D01*
X119325571Y-151656143D01*
X119253000Y-151583571D01*
X119216714Y-151474714D01*
X119216714Y-151402143D01*
X119253000Y-151293286D01*
X119289286Y-151257000D01*
X119216714Y-150567571D02*
X119216714Y-150930428D01*
X119579571Y-150966714D01*
X119543286Y-150930428D01*
X119507000Y-150857857D01*
X119507000Y-150676428D01*
X119543286Y-150603857D01*
X119579571Y-150567571D01*
X119652143Y-150531286D01*
X119833571Y-150531286D01*
X119906143Y-150567571D01*
X119942429Y-150603857D01*
X119978714Y-150676428D01*
X119978714Y-150857857D01*
X119942429Y-150930428D01*
X119906143Y-150966714D01*
X110762143Y-160464500D02*
X110798429Y-160500786D01*
X110834714Y-160609643D01*
X110834714Y-160682214D01*
X110798429Y-160791071D01*
X110725857Y-160863643D01*
X110653286Y-160899928D01*
X110508143Y-160936214D01*
X110399286Y-160936214D01*
X110254143Y-160899928D01*
X110181571Y-160863643D01*
X110109000Y-160791071D01*
X110072714Y-160682214D01*
X110072714Y-160609643D01*
X110109000Y-160500786D01*
X110145286Y-160464500D01*
X110072714Y-159811357D02*
X110072714Y-159956500D01*
X110109000Y-160029071D01*
X110145286Y-160065357D01*
X110254143Y-160137928D01*
X110399286Y-160174214D01*
X110689571Y-160174214D01*
X110762143Y-160137928D01*
X110798429Y-160101643D01*
X110834714Y-160029071D01*
X110834714Y-159883928D01*
X110798429Y-159811357D01*
X110762143Y-159775071D01*
X110689571Y-159738786D01*
X110508143Y-159738786D01*
X110435571Y-159775071D01*
X110399286Y-159811357D01*
X110363000Y-159883928D01*
X110363000Y-160029071D01*
X110399286Y-160101643D01*
X110435571Y-160137928D01*
X110508143Y-160174214D01*
X112857643Y-131318000D02*
X112893929Y-131354286D01*
X112930214Y-131463143D01*
X112930214Y-131535714D01*
X112893929Y-131644571D01*
X112821357Y-131717143D01*
X112748786Y-131753428D01*
X112603643Y-131789714D01*
X112494786Y-131789714D01*
X112349643Y-131753428D01*
X112277071Y-131717143D01*
X112204500Y-131644571D01*
X112168214Y-131535714D01*
X112168214Y-131463143D01*
X112204500Y-131354286D01*
X112240786Y-131318000D01*
X112168214Y-131064000D02*
X112168214Y-130556000D01*
X112930214Y-130882571D01*
X112857643Y-134429500D02*
X112893929Y-134465786D01*
X112930214Y-134574643D01*
X112930214Y-134647214D01*
X112893929Y-134756071D01*
X112821357Y-134828643D01*
X112748786Y-134864928D01*
X112603643Y-134901214D01*
X112494786Y-134901214D01*
X112349643Y-134864928D01*
X112277071Y-134828643D01*
X112204500Y-134756071D01*
X112168214Y-134647214D01*
X112168214Y-134574643D01*
X112204500Y-134465786D01*
X112240786Y-134429500D01*
X112494786Y-133994071D02*
X112458500Y-134066643D01*
X112422214Y-134102928D01*
X112349643Y-134139214D01*
X112313357Y-134139214D01*
X112240786Y-134102928D01*
X112204500Y-134066643D01*
X112168214Y-133994071D01*
X112168214Y-133848928D01*
X112204500Y-133776357D01*
X112240786Y-133740071D01*
X112313357Y-133703786D01*
X112349643Y-133703786D01*
X112422214Y-133740071D01*
X112458500Y-133776357D01*
X112494786Y-133848928D01*
X112494786Y-133994071D01*
X112531071Y-134066643D01*
X112567357Y-134102928D01*
X112639929Y-134139214D01*
X112785071Y-134139214D01*
X112857643Y-134102928D01*
X112893929Y-134066643D01*
X112930214Y-133994071D01*
X112930214Y-133848928D01*
X112893929Y-133776357D01*
X112857643Y-133740071D01*
X112785071Y-133703786D01*
X112639929Y-133703786D01*
X112567357Y-133740071D01*
X112531071Y-133776357D01*
X112494786Y-133848928D01*
X125149429Y-132297714D02*
X125149429Y-132914571D01*
X125185714Y-132987143D01*
X125222000Y-133023429D01*
X125294571Y-133059714D01*
X125439714Y-133059714D01*
X125512286Y-133023429D01*
X125548571Y-132987143D01*
X125584857Y-132914571D01*
X125584857Y-132297714D01*
X126274286Y-132551714D02*
X126274286Y-133059714D01*
X126092857Y-132261429D02*
X125911429Y-132805714D01*
X126383143Y-132805714D01*
X110072714Y-158886071D02*
X110689571Y-158886071D01*
X110762143Y-158849786D01*
X110798429Y-158813500D01*
X110834714Y-158740929D01*
X110834714Y-158595786D01*
X110798429Y-158523214D01*
X110762143Y-158486929D01*
X110689571Y-158450643D01*
X110072714Y-158450643D01*
X110072714Y-158160357D02*
X110072714Y-157688643D01*
X110363000Y-157942643D01*
X110363000Y-157833785D01*
X110399286Y-157761214D01*
X110435571Y-157724928D01*
X110508143Y-157688643D01*
X110689571Y-157688643D01*
X110762143Y-157724928D01*
X110798429Y-157761214D01*
X110834714Y-157833785D01*
X110834714Y-158051500D01*
X110798429Y-158124071D01*
X110762143Y-158160357D01*
X110072714Y-149678571D02*
X110689571Y-149678571D01*
X110762143Y-149642286D01*
X110798429Y-149606000D01*
X110834714Y-149533429D01*
X110834714Y-149388286D01*
X110798429Y-149315714D01*
X110762143Y-149279429D01*
X110689571Y-149243143D01*
X110072714Y-149243143D01*
X110834714Y-148481143D02*
X110834714Y-148916571D01*
X110834714Y-148698857D02*
X110072714Y-148698857D01*
X110181571Y-148771428D01*
X110254143Y-148844000D01*
X110290429Y-148916571D01*
X119216714Y-149678571D02*
X119833571Y-149678571D01*
X119906143Y-149642286D01*
X119942429Y-149606000D01*
X119978714Y-149533429D01*
X119978714Y-149388286D01*
X119942429Y-149315714D01*
X119906143Y-149279429D01*
X119833571Y-149243143D01*
X119216714Y-149243143D01*
X119289286Y-148916571D02*
X119253000Y-148880285D01*
X119216714Y-148807714D01*
X119216714Y-148626285D01*
X119253000Y-148553714D01*
X119289286Y-148517428D01*
X119361857Y-148481143D01*
X119434429Y-148481143D01*
X119543286Y-148517428D01*
X119978714Y-148952857D01*
X119978714Y-148481143D01*
M02*
