G04 #@! TF.FileFunction,Copper,L2,Bot,Signal*
%FSLAX46Y46*%
G04 Gerber Fmt 4.6, Leading zero omitted, Abs format (unit mm)*
G04 Created by KiCad (PCBNEW (2014-11-02 BZR 5250)-product) date 05/11/2014 13:18:46*
%MOMM*%
G01*
G04 APERTURE LIST*
%ADD10C,0.100000*%
%ADD11R,1.676400X1.676400*%
%ADD12C,1.676400*%
%ADD13C,0.685800*%
%ADD14C,0.609600*%
%ADD15C,0.406400*%
%ADD16C,0.152400*%
%ADD17C,0.254000*%
G04 APERTURE END LIST*
D10*
D11*
X127000000Y-127000000D03*
D12*
X124460000Y-127000000D03*
X121920000Y-127000000D03*
X119380000Y-127000000D03*
X116840000Y-127000000D03*
X114300000Y-127000000D03*
D11*
X131064000Y-175260000D03*
D12*
X128524000Y-175260000D03*
X125984000Y-175260000D03*
X123444000Y-175260000D03*
X120904000Y-175260000D03*
X118364000Y-175260000D03*
X115824000Y-175260000D03*
X113284000Y-175260000D03*
D13*
X115697000Y-163004500D03*
X111823500Y-133540500D03*
X125730000Y-153289000D03*
X116586000Y-158242000D03*
X111823500Y-132461000D03*
X122047000Y-136652000D03*
X114046000Y-150368000D03*
X126492000Y-148018500D03*
X116586000Y-154241500D03*
X116586000Y-147955000D03*
X116586000Y-145161000D03*
X116967000Y-138303000D03*
X117856000Y-154241500D03*
X117919500Y-144462500D03*
X117856000Y-147955000D03*
X119697500Y-136652000D03*
X115316000Y-150368000D03*
X124460000Y-150368000D03*
X118808500Y-136588500D03*
X115316000Y-159575500D03*
X123190000Y-150368000D03*
X121983500Y-137668000D03*
X120142000Y-133985000D03*
X114046000Y-159575500D03*
D14*
X120777000Y-171513500D02*
X120777000Y-168148000D01*
X120777000Y-168148000D02*
X116586000Y-163957000D01*
D15*
X116586000Y-163957000D02*
X116586000Y-163893500D01*
X116039899Y-163347399D02*
X115697000Y-163004500D01*
X116586000Y-163893500D02*
X116039899Y-163347399D01*
D14*
X120777000Y-171513500D02*
X120777000Y-175133000D01*
X120777000Y-175133000D02*
X120904000Y-175260000D01*
D15*
X116586000Y-163830000D02*
X116586000Y-163957000D01*
D14*
X111442500Y-158813500D02*
X110998000Y-158369000D01*
X110998000Y-158369000D02*
X110998000Y-134366000D01*
X110998000Y-134366000D02*
X111480601Y-133883399D01*
X111480601Y-133883399D02*
X111823500Y-133540500D01*
X116586000Y-163957000D02*
X111125000Y-158496000D01*
D15*
X120777000Y-158242000D02*
X125730000Y-153289000D01*
X116586000Y-158242000D02*
X120777000Y-158242000D01*
D16*
X114109500Y-127000000D02*
X114300000Y-127000000D01*
D17*
X114109500Y-127000000D02*
X114300000Y-127190500D01*
D14*
X110172492Y-158813492D02*
X115379500Y-164020500D01*
X110299500Y-158940500D02*
X109918492Y-158559492D01*
X109918492Y-133731008D02*
X111188500Y-132461000D01*
X111188500Y-132461000D02*
X111823500Y-132461000D01*
X109918492Y-158559492D02*
X109918492Y-133731008D01*
X115824000Y-164465000D02*
X115379500Y-164020500D01*
X115824000Y-175260000D02*
X115824000Y-164465000D01*
D15*
X120840500Y-135445500D02*
X121704101Y-136309101D01*
X117348000Y-135445500D02*
X120840500Y-135445500D01*
X114046000Y-138747500D02*
X117348000Y-135445500D01*
X121704101Y-136309101D02*
X122047000Y-136652000D01*
X114046000Y-150368000D02*
X114046000Y-138747500D01*
X116586000Y-154241500D02*
X116586000Y-147955000D01*
X116586000Y-145161000D02*
X116586000Y-138684000D01*
X116586000Y-138684000D02*
X116624101Y-138645899D01*
X116624101Y-138645899D02*
X116967000Y-138303000D01*
X117919500Y-154178000D02*
X117919500Y-147955000D01*
X117856000Y-154241500D02*
X117919500Y-154178000D01*
X117856000Y-147955000D02*
X117856000Y-144526000D01*
X117856000Y-144526000D02*
X117919500Y-144462500D01*
X119697500Y-137136933D02*
X119697500Y-136652000D01*
X119697500Y-142684500D02*
X119697500Y-137136933D01*
X117919500Y-144462500D02*
X119697500Y-142684500D01*
X115316000Y-153606500D02*
X115316000Y-150368000D01*
X115316000Y-154178000D02*
X116332000Y-155194000D01*
X116332000Y-155194000D02*
X119634000Y-155194000D01*
X119634000Y-155194000D02*
X124460000Y-150368000D01*
X115316000Y-153606500D02*
X115316000Y-154178000D01*
X115316000Y-150368000D02*
X115316000Y-143446500D01*
X115316000Y-143446500D02*
X115252500Y-143383000D01*
X118323567Y-136588500D02*
X118808500Y-136588500D01*
X115252500Y-143383000D02*
X115252500Y-138778994D01*
X115252500Y-138778994D02*
X117442994Y-136588500D01*
X117442994Y-136588500D02*
X118323567Y-136588500D01*
X115316000Y-153606500D02*
X115316000Y-159575500D01*
X123190000Y-150368000D02*
X123190000Y-143459170D01*
X121983500Y-138152933D02*
X121983500Y-137668000D01*
X121983500Y-142252670D02*
X121983500Y-138152933D01*
X123190000Y-143459170D02*
X121983500Y-142252670D01*
X112712500Y-138684000D02*
X117411500Y-133985000D01*
X112712500Y-140462000D02*
X112712500Y-138684000D01*
X117411500Y-133985000D02*
X120142000Y-133985000D01*
D17*
X112712500Y-140398500D02*
X112712500Y-140462000D01*
D15*
X114046000Y-159575500D02*
X112712500Y-158242000D01*
X112712500Y-140462000D02*
X112712500Y-158242000D01*
M02*
